<svg width="10" height="5" viewBox="0 0 10 5" fill="none" xmlns="http://www.w3.org/2000/svg">
<path fill-rule="evenodd" clip-rule="evenodd" d="M0.852698 0.0036294C0.568643 0.0290516 0.284578 0.19057 0.133811 0.412396C-0.0385058 0.665921 -0.0448931 0.999883 0.117536 1.26363C0.195991 1.39102 0.187145 1.38338 1.51593 2.47129C2.81412 3.53415 4.3408 4.77581 4.40771 4.82319C4.51324 4.89791 4.67111 4.96196 4.81299 4.98761C4.90629 5.00447 5.09368 5.00406 5.19216 4.98677C5.39734 4.95075 5.52893 4.88159 5.77825 4.67874C8.83897 2.18848 9.69903 1.48215 9.79053 1.38358C9.92812 1.23535 10.0003 1.04967 10 0.844573C9.99961 0.564493 9.85802 0.322835 9.5975 0.157599C9.2511 -0.0621113 8.84048 -0.0516813 8.46809 0.186286C8.43145 0.209697 7.63743 0.853914 6.7036 1.61788C5.76976 2.38184 5.00257 3.00591 4.99874 3.0047C4.9949 3.00349 4.23532 2.38349 3.31078 1.62691C2.38624 0.870343 1.59959 0.230461 1.56266 0.204961C1.34727 0.0561976 1.08772 -0.0174048 0.852698 0.0036294Z" fill="#7A7A7A"/>
</svg>
