<svg width="27" height="24" viewBox="0 0 27 24" fill="none" xmlns="http://www.w3.org/2000/svg">
<path fill-rule="evenodd" clip-rule="evenodd" d="M13.3763 0.00446494C13.1347 0.0525137 13.0675 0.0686965 12.9577 0.105205C12.5852 0.229053 12.2723 0.416983 11.994 0.684031C11.7813 0.888131 11.6416 1.07954 11.474 1.39638C11.4162 1.50575 8.91176 5.84674 5.9086 11.043C2.90544 16.2393 0.407897 20.5699 0.358528 20.6666C0.199618 20.9778 0.0909956 21.2893 0.0314989 21.6043C-0.0108483 21.8285 -0.0104297 22.226 0.0323496 22.424C0.107375 22.7712 0.251391 23.0455 0.486785 23.2895C0.84598 23.6619 1.30638 23.8734 1.98267 23.9768C2.12544 23.9986 2.817 24 13.4911 24C22.6444 24 24.8712 23.9967 24.9691 23.9827C25.6683 23.8834 26.1419 23.6702 26.5089 23.2896C26.9408 22.8416 27.0916 22.231 26.9463 21.5179C26.8925 21.2538 26.754 20.8797 26.611 20.6123C26.5753 20.5455 24.082 16.2211 21.0703 11.0025C18.0586 5.78398 15.5718 1.4687 15.5439 1.41302C15.1814 0.687905 14.554 0.195999 13.7873 0.0357101C13.6539 0.00782566 13.4408 -0.00837056 13.3763 0.00446494ZM14.8482 10.5099V14.559H13.4978H12.1475V10.5099V6.46084H13.4978H14.8482V10.5099ZM14.8482 18.608V19.9577H13.4978H12.1475V18.608V17.2583H13.4978H14.8482V18.608Z" fill="#C63131"/>
</svg>
