<svg width="670" height="702" viewBox="0 0 670 702" fill="none" xmlns="http://www.w3.org/2000/svg">
<path opacity="0.05" fill-rule="evenodd" clip-rule="evenodd" d="M329.015 2.4495C321.699 7.73532 319.85 16.6531 323.721 27.992C325.89 34.3417 331.144 45.2654 333.547 48.4197L334.905 50.2019L336.324 48.4197C338.777 45.3384 344.117 34.4148 346.31 27.992C350.188 16.6335 348.411 7.79145 341.204 2.58493C336.488 -0.822513 333.588 -0.854585 329.015 2.4495ZM307.357 31.6792C297.429 33.6173 289.781 39.4672 285.269 48.573C282.188 54.79 281.998 55.6686 282.063 63.3844C282.181 77.612 287.788 90.6609 298.114 100.75L302.426 104.962L334.933 105.025L367.439 105.087L370.161 102.595C381.826 91.9101 387.882 78.5111 387.94 63.2587C387.969 55.3139 387.811 54.618 384.498 48.1382C381.883 43.0216 379.924 40.5088 376.56 37.9577C371.942 34.4567 364.533 31.7309 359.214 31.5776C356.327 31.4939 356.107 31.7051 355.116 35.4992C351.99 47.4654 339.961 64.9045 334.834 64.9045C330.061 64.9045 318.411 48.1524 315.313 36.8358C313.758 31.1553 312.897 30.5975 307.357 31.6792ZM245.942 75.5617C241.048 78.5379 238.887 85.3688 240.783 91.8736C242.019 96.1124 248.718 108.594 249.6 108.301C251.231 107.76 257.292 94.9246 258.156 90.1815C259.262 84.1169 258.04 80.0037 254.109 76.5615C250.429 73.3385 249.735 73.2538 245.942 75.5617ZM415.913 76.5695C411.491 80.4421 410.464 84.7789 412.288 91.8798C413.762 97.6174 418.829 107.768 420.496 108.323C421.022 108.497 423.148 105.226 425.221 101.052C431.476 88.459 431.092 79.8201 424.09 75.5617C420.295 73.2529 419.603 73.3385 415.913 76.5695ZM53.7111 82.2982C37.3429 91.6303 29.0833 108.168 27.2384 135.299C25.7759 156.807 34.0578 174.918 54.139 194.132C61.6178 201.287 77.4544 213.207 88.4344 219.946C91.137 221.604 93.4625 223.034 93.6028 223.121C93.9494 223.337 92.2698 230.68 91.7561 231.191C91.2495 231.697 75.2503 221.864 62.0788 212.952C38.0907 196.72 23.4289 183.812 15.7393 172.154C14.3295 170.017 12.8974 168.268 12.5561 168.268C11.5644 168.268 7.54228 172.858 5.13811 176.734C1.72081 182.242 -0.0150892 190.692 9.88051e-05 201.741C0.0152868 213.411 1.60288 220.788 5.8171 228.788C16.7176 249.477 38.8947 261.538 86.8709 272.868C88.9696 273.364 89.3278 273.901 89.3278 276.55C89.3278 280.483 89.351 280.482 68.1236 276.994C40.494 272.454 21.7198 266.065 10.1787 257.276C7.67629 255.37 5.41328 253.811 5.14972 253.811C4.88616 253.811 4.11962 255.114 3.44509 256.707C2.58116 258.749 2.22648 263.673 2.24256 273.415C2.26222 286.117 2.4543 287.742 4.63244 293.653C8.9217 305.288 14.9612 311.895 26.0305 317.062C35.7902 321.617 42.8954 322.71 62.5255 322.676C73.5466 322.657 83.3875 322.136 89.3126 321.257C94.4631 320.493 98.7721 319.962 98.8882 320.077C99.0035 320.193 99.7093 321.745 100.455 323.527C102.006 327.229 102.4 326.928 93.7949 328.604C72.9954 332.655 45.1799 334.12 32.1727 331.851C27.5172 331.039 22.5712 329.809 21.1829 329.118C17.846 327.458 17.4654 328.485 18.0827 337.474C18.7251 346.827 22.7633 356.454 28.8108 363.053C38.6142 373.752 50.9799 376.059 75.7042 371.801C88.287 369.634 104.576 363.401 117.638 355.755C120.476 354.094 120.494 354.095 122.748 356.206C123.991 357.372 124.807 358.652 124.559 359.052C123.732 360.386 107.923 369.777 99.1017 374.175C83.5206 381.942 70.1534 386.111 57.3633 387.189L50.7432 387.747L51.2748 390.505C52.3031 395.847 58.0155 406.008 61.8099 409.247C67.8306 414.388 73.8102 416.19 86.4501 416.673C99.393 417.169 102.816 416.443 113.309 410.977C123.078 405.888 133.406 397.756 143.57 387.151C148.097 382.426 152.343 378.561 153.004 378.561C153.664 378.561 154.901 379.068 155.751 379.688C157.168 380.722 156.914 381.371 152.704 387.485C140.697 404.921 126.92 418.586 114.12 425.753C111.295 427.336 108.983 428.809 108.983 429.026C108.983 430.178 112.666 436.348 114.576 438.399C117.991 442.065 122.273 443.839 128.84 444.307C152.684 446.009 173.371 428.587 186.276 395.937C187.633 392.506 188.831 389.588 188.942 389.451C189.052 389.315 190.254 389.625 191.612 390.14C193.975 391.037 194.056 391.267 193.497 395.474C191.417 411.111 182.377 432.728 174.547 440.792C171.872 443.546 169.795 446.41 169.932 447.155C170.069 447.9 172.364 449.612 175.032 450.96C181.858 454.408 191.738 454.463 198.882 451.091C211.371 445.198 217.884 431.88 219.099 409.748L219.319 405.738L222.893 410.828C224.858 413.628 226.768 415.933 227.136 415.952C227.505 415.97 227.807 397.34 227.807 374.551V333.116L221.329 333.101C206.934 333.066 194.28 328.288 186.712 320.029C181.569 314.416 179.165 308.562 177.617 297.882C176.591 290.807 176.671 289.17 178.562 278.444C181.643 260.961 182.526 253.367 181.876 249.917C181.125 245.922 175.785 240.016 162.639 228.64C140.602 209.571 128.029 193.987 124.101 180.874C123.461 178.739 122.382 176.781 121.701 176.52C121.001 176.252 118.758 177.717 116.53 179.899C114.365 182.018 112.455 183.575 112.285 183.361C108.236 178.247 89.2697 148.849 83.2901 138.418C69.8041 114.891 60.7387 92.803 60.7387 83.4717C60.7387 79.2997 59.3708 79.0707 53.7111 82.2982ZM609.293 83.4601C609.293 87.674 606.094 98.4372 601.727 108.916C593.918 127.657 578.194 154.361 560.315 179.248L557.228 183.546L553.398 179.796C551.236 177.68 549.028 176.253 548.33 176.52C547.65 176.781 546.577 178.739 545.946 180.874C542.102 193.872 529.555 209.424 507.444 228.597C495.609 238.86 489.927 244.777 488.574 248.249C487.343 251.403 488.151 260.488 490.95 274.99C493.611 288.776 493.7 295.044 491.362 304.16C489.203 312.582 486.546 317.31 481.232 322.196C473.601 329.212 461.904 333.116 448.517 333.116H442.225V374.551C442.225 412.682 442.613 419.705 444.427 414.426C444.722 413.569 446.352 411.263 448.048 409.303L451.133 405.738L451.177 411.085C451.337 430.294 459.073 445.661 471.42 451.293C478.335 454.449 488.375 454.307 495 450.96C500.603 448.129 501.441 446.099 498.089 443.47C494.408 440.582 488.791 432.484 485.553 425.397C482.263 418.197 477.427 402.18 476.548 395.575C475.996 391.424 476.066 391.248 478.59 390.37C481.182 389.469 481.219 389.504 483.32 394.927C495.707 426.89 515.323 444.5 538.54 444.5C548.257 444.5 554.767 441.067 558.694 433.872C559.989 431.498 561.049 429.318 561.049 429.026C561.049 428.735 559.34 427.636 557.252 426.585C545.164 420.497 528.725 404.412 516.873 387.073C512.934 381.311 512.752 380.804 514.234 379.722C515.11 379.084 516.312 378.561 516.906 378.561C517.5 378.561 522.749 383.312 528.573 389.119C540.175 400.69 546.145 405.379 556.058 410.712C565.529 415.807 570.692 417.102 581.151 417.006C590.119 416.924 598.134 415.397 603.132 412.819C609.593 409.486 617.08 398.782 618.737 390.505L619.289 387.747L612.668 387.189C595.386 385.732 573.054 377.085 552.67 363.958L544.737 358.849L547.197 356.288L549.656 353.728L553.342 356.052C562.837 362.039 579.77 368.847 591.425 371.363C606.537 374.624 622.899 374.287 631.391 370.54C643.036 365.403 652.137 349.562 652.166 334.379C652.172 331.397 651.952 328.733 651.677 328.459C651.401 328.184 650.085 328.503 648.75 329.167C643.205 331.926 629.98 333.353 615.1 332.799C601.299 332.285 580.909 329.86 572.381 327.718L568.254 326.682L569.594 323.485C570.331 321.726 571.028 320.193 571.144 320.078C571.259 319.963 575.166 320.398 579.826 321.046C602.659 324.22 625.706 323.51 638.649 319.234C651.807 314.887 660.781 306.341 665.261 293.894C668.417 285.122 669.321 266.824 666.993 258.837C666.187 256.073 665.321 253.811 665.068 253.811C664.815 253.811 662.491 255.404 659.905 257.352C648.68 265.805 628.662 272.561 601.699 276.997C580.61 280.466 580.704 280.468 580.704 276.568C580.704 273.748 580.992 273.41 584.054 272.636C603.649 267.679 610.087 265.864 617.545 263.196C647.024 252.647 663.874 237.483 668.672 217.186C670.26 210.463 670.469 194.433 669.054 187.693C667.829 181.855 663.635 173.759 660.079 170.371C657.45 167.866 657.384 167.853 656.145 169.605C644.953 185.437 631.114 197.65 604.379 215.288C585.88 227.494 578.604 231.654 577.94 230.402C577.621 229.799 577.118 227.903 576.823 226.188C576.291 223.092 576.337 223.039 583.332 218.815C600.64 208.367 618.979 192.75 628.443 180.399C635.132 171.67 640.347 160.466 642.016 151.243C645.257 133.326 639.987 107.469 630.462 94.5539C626.339 88.966 624.209 87.0556 617.833 83.2338C610.791 79.0137 609.293 79.0529 609.293 83.4601ZM174.485 86.6154C172.43 87.8121 167.555 91.2169 163.651 94.1806C156.718 99.445 146.953 105.233 143.379 106.197C142.396 106.462 139.884 107.119 137.795 107.657C134.505 108.505 133.998 108.957 133.998 111.049C133.998 112.376 134.973 116.471 136.165 120.148C142.707 140.343 142.505 139.167 140.886 147.545C140.079 151.719 138.601 156.697 137.602 158.609C136.603 160.522 135.785 162.245 135.785 162.44C135.785 162.634 137.896 162.58 140.476 162.319C147.084 161.65 149.725 163.794 150.567 170.512C150.903 173.199 151.504 175.397 151.9 175.397C152.296 175.397 154.263 173.493 156.269 171.164C160.52 166.233 163.321 159.447 164.033 152.355C164.976 142.962 160.651 128.831 153.961 119.447C152.318 117.142 150.973 115.012 150.973 114.713C150.973 114.416 153.686 113.933 157.004 113.641C160.321 113.348 166.199 112.269 170.066 111.243C173.934 110.216 177.189 109.495 177.301 109.64C177.412 109.785 177.922 112.911 178.435 116.587C179.561 124.652 182.201 131.898 185.789 136.765C189.367 141.616 197.404 145.83 204.488 146.568C210.414 147.187 211.378 146.369 207.389 144.107C205.994 143.315 203.846 141.31 202.616 139.652C197.041 132.131 195.964 123.06 199.162 110.566C200.175 106.607 200.74 102.632 200.416 101.734C199.028 97.8821 193.181 91.183 188.724 88.3396C182.31 84.2469 179.199 83.87 174.485 86.6154ZM484.338 86.4336C479.537 88.8039 472.546 95.6491 470.47 100.014C468.98 103.145 468.993 103.547 470.817 110.565C473.475 120.794 473.324 127.679 470.291 134.419C468.071 139.352 463.047 145.101 460.956 145.101C460.481 145.101 460.093 145.559 460.093 146.118C460.093 147.992 470.416 146.218 476.067 143.373C484.925 138.913 490.371 129.244 491.782 115.473C492.121 112.164 492.542 109.458 492.717 109.458C492.892 109.458 497.183 110.46 502.25 111.685C507.318 112.909 513.174 113.912 515.262 113.912C517.349 113.912 519.059 114.173 519.059 114.489C519.059 114.806 517.627 117.216 515.879 119.844C503.492 138.457 502.673 158.3 513.763 171.164C515.769 173.493 517.727 175.397 518.113 175.397C518.499 175.397 519.057 173.643 519.351 171.5C520.501 163.138 523.036 161.221 531.314 162.459L535.363 163.065L533.482 160.43C531.553 157.727 529.472 150.946 528.414 143.908C527.928 140.668 528.516 137.671 531.624 127.594C533.717 120.805 535.601 113.818 535.81 112.069L536.191 108.887L529.635 106.983C522.371 104.872 515.523 101.06 506.097 93.8758C498.457 88.0545 492.407 84.533 490.023 84.5196C489.04 84.5143 486.482 85.375 484.338 86.4336ZM230.04 96.034C216.862 99.2338 210.245 111.029 213.566 125.397C214.982 131.52 218.548 138.268 222.744 142.763L226.592 146.883H249.421H272.249L275.736 143.096C277.654 141.012 280.079 137.905 281.125 136.19C285.378 129.217 287.05 117.712 284.921 110.063C282.986 103.114 273.895 96.0919 266.834 96.0919C264.295 96.0919 263.543 96.4483 263.542 97.6513C263.541 100.003 258.515 110.119 255.398 114.044C251.019 119.559 249.867 119.812 245.805 116.153C242.126 112.837 236.465 102.988 235.426 98.0968C234.787 95.0841 234.463 94.9603 230.04 96.034ZM401.575 96.042C393.904 97.8981 386.813 103.95 385.101 110.102C382.999 117.649 384.636 129.055 388.843 136.19C389.854 137.905 392.312 141.012 394.304 143.096L397.926 146.883H420.676H443.425L447.174 142.981C457.701 132.023 460.307 114.387 452.905 104.196C450.108 100.346 443.946 96.7272 438.505 95.7417C435.359 95.1723 435.207 95.2632 434.611 98.071C433.568 102.985 427.914 112.83 424.227 116.153C421.406 118.694 420.414 119.126 419.06 118.402C415.362 116.429 409.123 106.584 406.927 99.257C405.751 95.3327 405.393 95.118 401.575 96.042ZM303.077 121.327C301.596 132.369 296.905 141.028 289.816 145.804C288.345 146.795 288.723 146.895 292.589 146.539C308.052 145.113 320.764 133.185 322.263 118.693L322.758 113.913H313.415H304.072L303.077 121.327ZM347.781 118.817C349.052 131.104 357.773 141.176 370.547 145.111C373.711 146.085 377.566 146.87 379.11 146.854L381.92 146.827L379.24 144.853C372.161 139.643 368.489 132.592 366.955 121.265L365.96 113.913H356.617H347.273L347.781 118.817ZM312.214 146.905C311.314 147.897 308.113 149.919 305.102 151.397C297.367 155.195 289.934 155.759 247.37 155.777L211.096 155.794L208.06 157.828C205.446 159.58 204.987 160.432 204.757 163.956L204.489 168.048L199.051 168.662C188.86 169.812 181.109 174.094 177.986 180.298C175.078 186.077 176.199 198.174 180.414 206.502C184.313 214.204 185.215 214.649 189.207 210.83C195.688 204.631 203.279 202.284 211.66 203.888C217.455 204.997 227.073 209.275 225.126 209.878C224.389 210.106 217.678 213.319 210.214 217.019C198.267 222.939 195.912 223.796 190.558 224.169C185.857 224.496 183.411 224.186 179.786 222.803C174.537 220.8 173.761 221.582 176.967 225.647C182.011 232.044 191.338 233.697 203.028 230.267C207.335 229.004 211.166 227.97 211.542 227.97C211.918 227.97 212.282 230.21 212.351 232.949C212.42 235.687 212.69 238.141 212.952 238.401C213.213 238.661 215.096 237.449 217.137 235.707C219.178 233.965 222.313 231.837 224.103 230.979C228.208 229.014 236.111 228.384 240.818 229.648C251.431 232.498 258.812 246.412 260.696 267.113L261.309 273.86H335.016H408.722L409.299 267.413C411.719 240.406 422.317 226.874 439.241 229.188C444.346 229.886 448.236 231.73 452.771 235.601C454.744 237.285 456.595 238.663 456.885 238.663C457.176 238.663 457.413 236.257 457.413 233.316C457.413 230.139 457.798 227.97 458.362 227.97C458.884 227.97 462.971 229.021 467.445 230.305C476.368 232.865 481.754 232.82 487.071 230.143C491.086 228.122 494.937 224.401 494.937 222.543C494.937 221.119 494.626 221.13 490.46 222.709C481.386 226.148 474.377 224.599 456.301 215.161C451.021 212.404 445.794 210.118 444.687 210.08C441.147 209.961 452.656 205.016 459.182 203.852C467.229 202.419 473.497 204.267 479.824 209.94C485.035 214.613 485.616 214.409 489.618 206.502C494.02 197.805 494.959 186.02 491.75 179.762C488.719 173.853 480.976 169.843 470.144 168.573C465.506 168.029 465.454 167.99 465.454 164.969C465.454 160.98 464.211 158.793 461.005 157.139C458.808 156.006 452.772 155.79 422.838 155.769C374.079 155.737 368.041 154.976 358.967 147.733C357.153 146.285 355.445 145.101 355.17 145.101C354.009 145.101 354.809 154.1 356.518 160.248C358.864 168.692 362.501 173.244 369.714 176.766C372.689 178.218 375.145 179.694 375.171 180.044C375.347 182.375 365.924 183.623 358.346 182.273L354.427 181.575L354.96 184.849C355.851 190.325 359.27 194.413 365.756 197.758C368.992 199.427 371.64 200.993 371.641 201.238C371.642 201.483 369.85 202.813 367.658 204.194C359.597 209.273 349.487 222.376 344.156 234.653C340.434 243.221 336.925 254.69 336.237 260.528C335.922 263.205 335.407 265.395 335.095 265.395C334.781 265.395 334.056 262.488 333.484 258.935C329.884 236.616 315.436 211.79 301.147 203.371C299.629 202.477 298.386 201.504 298.386 201.21C298.386 200.915 300.797 199.525 303.744 198.12C306.691 196.716 309.888 194.731 310.848 193.712C312.959 191.471 315.361 185.965 315.361 183.367C315.361 181.621 315.072 181.535 311.564 182.224C304.367 183.639 294.812 182.337 294.812 179.942C294.812 179.536 296.526 178.551 298.62 177.753C303.724 175.809 308.77 171.53 310.923 167.32C314.199 160.916 316.82 145.101 314.606 145.101C314.19 145.101 313.114 145.912 312.214 146.905ZM243.441 175.426C236.306 178.617 222.163 184.323 221.94 184.099C221.579 183.739 217.979 175.358 217.979 174.878C217.979 174.673 224.111 174.533 231.604 174.567C240.424 174.605 244.598 174.909 243.441 175.426ZM452.053 175.541C452.053 176.111 451.045 178.292 449.813 180.389L447.573 184.201L436.635 179.7C430.619 177.225 425.53 175.043 425.325 174.853C425.12 174.662 431.05 174.506 438.502 174.506C448.2 174.506 452.053 174.8 452.053 175.541ZM236.734 282.994C236.729 283.362 236.733 329.813 236.741 386.22C236.757 499.987 236.489 494.722 242.606 501.475C246.616 505.902 253.494 508.826 260.863 509.238C288.976 510.807 295.627 511.48 304.497 513.653C313.713 515.911 323.843 520.299 330.812 525.056C334.965 527.89 335.322 527.898 338.873 525.239C342.608 522.44 353.072 517.296 358.691 515.494C367.841 512.56 382.218 510.462 398.448 509.691C417.342 508.794 421.989 507.477 427.426 501.475C433.562 494.701 433.291 500.055 433.291 385.527V282.325H335.016C280.965 282.325 236.737 282.626 236.734 282.994ZM308.351 297.579C308.922 299.481 309.92 301.038 310.568 301.038C312.633 301.038 314.68 305.173 314.044 308.06C313.403 310.971 314.308 314.27 319.821 329.106C321.823 334.497 325.644 344.923 328.311 352.274C340.652 386.295 351.942 417.181 355.669 427.124C356.587 429.574 359.372 437.193 361.857 444.054C369.93 466.346 370.298 467.196 372.042 467.531C373.743 467.857 373.738 466.814 372.009 460.762C371.493 458.951 371.746 458.757 374.615 458.757C376.364 458.757 377.987 458.445 378.223 458.065C378.689 457.312 372.467 440.72 369.749 435.468C368.827 433.686 368.072 431.338 368.072 430.25C368.072 429.162 366.906 426.803 365.481 425.009C364.056 423.214 361.975 419.868 360.858 417.573C359.345 414.469 358.253 413.332 356.588 413.134C354.164 412.845 354.186 412.894 342.645 380.788C335.114 359.84 327.96 340.315 325.58 334.22C323.012 327.645 322.934 326.879 324.837 326.879C325.853 326.879 326.085 326.423 325.632 325.319C321.702 315.759 327.98 305.249 338.821 303.24C341.493 302.746 343.182 303.108 347.086 305.013C359.735 311.185 359.639 326.764 346.91 333.869C345.628 334.585 345.639 335.028 347.03 338.66L348.562 342.661L345.815 346.577C340.856 353.644 338.825 367.577 342.865 366.801C344.033 366.578 344.544 365.181 345.016 360.918C346.797 344.844 358.607 333.312 374.202 332.419C387.074 331.682 393.793 335.656 395.774 345.175C396.788 350.048 396.731 350.372 393.735 356.579C392.04 360.092 390.399 364.304 390.09 365.938C389.345 369.88 386.242 374.105 384.093 374.105C383.143 374.105 381.597 373.338 380.657 372.4C379.226 370.973 379.079 370.135 379.753 367.276C381.222 361.042 378.865 352.36 376.157 354.029C374.583 354.999 372.539 360.197 372.539 363.228C372.539 364.628 373.576 368.751 374.842 372.39C376.803 378.022 377.072 380.001 376.652 385.689C376.382 389.365 375.358 394.578 374.379 397.273C372.382 402.768 372.022 412.583 373.464 422.223C375.489 435.758 376.096 438.802 378.447 447.221C381.302 457.438 382.165 457.972 388.468 453.418C392.329 450.629 393.651 447.751 392.738 444.125C391.884 440.73 392.95 439.152 396.087 439.167C400.029 439.186 401.864 440.436 399.714 441.636C398.396 442.372 398.294 442.796 399.179 443.859C400.074 444.935 399.945 445.259 398.467 445.644C396.953 446.039 396.661 446.849 396.661 450.654C396.661 454.003 396.997 455.193 397.943 455.193C399.928 455.193 404.083 453.44 405.825 451.867C407.248 450.582 407.27 450.253 406.049 448.396C404.262 445.676 404.349 445.159 406.481 445.834C409.346 446.741 410.353 445.52 408.75 443.08C407.105 440.576 407.311 440.51 411.4 442.213C416.303 444.257 416.829 451.836 412.358 456.026C411.178 457.131 409.978 458.973 409.689 460.118C409.4 461.265 407.859 463.086 406.264 464.164C404.667 465.243 402.469 467.166 401.378 468.438C399.809 470.267 399.165 470.521 398.295 469.654C396.752 468.114 395.772 468.292 395.739 470.118C395.724 470.975 395.1 472.479 394.354 473.46C393.013 475.223 392.981 475.219 391.317 473.027C389.398 470.499 389.518 470.426 387.321 475.464C386.412 477.547 385.487 479.251 385.263 479.251C385.04 479.251 384.067 478.249 383.1 477.024C382.134 475.799 381.026 474.796 380.637 474.796C380.249 474.796 379.721 477.303 379.465 480.365C379.209 483.429 378.048 488.285 376.886 491.159C374.721 496.51 368.187 504.88 368.095 502.419C367.97 499.114 366.818 498.738 361.301 500.201C358.392 500.973 350.987 501.853 344.848 502.157L333.686 502.711L337.146 499.456C340.467 496.331 340.588 496.019 340.163 491.61C339.882 488.691 340.158 486.176 340.922 484.708C344.684 477.475 344.256 468.503 339.9 463.341C336.997 459.898 330.241 458.132 325.699 459.627C318.634 461.952 315.736 469.905 320.295 474.452C321.535 475.689 323.24 476.568 324.082 476.406C326.325 475.976 326.511 473.334 324.338 472.767C323.003 472.419 322.508 471.562 322.508 469.597C322.508 461.873 334.052 461.247 338.117 468.75C339.711 471.692 339.774 472.492 338.791 477.185C337.44 483.622 335.566 486.264 330.531 488.83C321.797 493.281 309.875 490.536 304.148 482.754C295.23 470.637 300.646 453.245 314.878 448.301C321.216 446.099 332.01 446.352 339.364 448.875C342.492 449.949 345.166 450.706 345.306 450.559C345.632 450.216 346.037 444.494 345.866 442.631C345.795 441.848 344.833 440.772 343.727 440.24C341.752 439.291 341.76 439.273 344.173 439.214C346.804 439.149 347.5 437.648 345.29 436.803C343.137 435.979 343.745 434.515 345.96 435.189C349.402 436.235 350.953 438.265 352.982 444.38C354.359 448.527 356.012 451.356 358.52 453.856C360.485 455.816 362.249 456.973 362.437 456.426C362.626 455.879 360.32 448.661 357.312 440.387C354.304 432.112 350.995 422.849 349.957 419.801C347.785 413.42 349.791 414.123 329.128 412.502C322.696 411.997 316.823 411.35 316.078 411.065C315.102 410.692 314.041 411.935 312.288 415.512C309.664 420.86 304.622 425.672 297.712 429.426C292.366 432.33 291.142 434.863 290.556 444.236C290.138 450.91 290.313 452.155 292.116 455.355C293.781 458.31 293.925 459.097 292.916 459.734C291.484 460.639 287.544 460.779 285.505 459.998C283.936 459.398 283.59 456.498 284.985 455.638C285.491 455.326 285.895 450.758 285.918 445.116C285.96 434.208 287.201 429.131 290.364 426.922C295.136 423.587 296.259 411.942 292.905 400.57C291.078 394.378 291.058 393.892 292.446 389.134C295.224 379.6 304.184 373.214 314.785 373.214H318.72L319.273 367.645C320.78 352.476 320.864 349.049 319.875 343.199C318.826 336.991 318.78 336.917 315.388 335.903C308.284 333.78 307.847 332.909 307.668 320.522C307.579 314.462 307.219 308.795 306.866 307.93C306.513 307.065 306.451 305.498 306.726 304.448C307.001 303.398 306.645 301.15 305.934 299.452C305.222 297.754 304.64 295.363 304.64 294.136C304.64 292.261 304.851 292.083 305.976 293.015C306.711 293.623 307.779 295.677 308.351 297.579ZM332.999 307.747C331.171 308.985 329.034 311.236 328.251 312.746C325.463 318.123 327.257 327.77 331.044 327.77C333.008 327.77 333.615 325.377 332.539 321.88C331.045 317.024 332.635 312.778 336.562 311.142C338.477 310.344 340.926 310.02 342.631 310.34C350.913 311.889 351.426 324.08 343.351 327.445C340.294 328.719 340.242 328.819 341.762 330.494C343.781 332.719 345.271 332.677 348.615 330.302C352.409 327.609 354.974 321.502 354.209 316.986C352.568 307.3 341.057 302.285 332.999 307.747ZM306.008 334.929C306.876 335.886 309.119 337.343 310.991 338.167C312.864 338.991 314.632 340.279 314.92 341.028C315.892 343.552 316.504 355.975 315.867 360.215C315.239 364.386 315.213 364.413 312.394 363.806C310.832 363.469 307.544 362.162 305.087 360.902C302.279 359.462 298.345 358.39 294.495 358.016C288.438 357.426 288.318 357.363 283.59 352.256L278.81 347.092L280.483 344.782C284.234 339.601 290.898 334.251 298.858 330.03L303.298 327.674L303.864 330.432C304.174 331.948 305.139 333.973 306.008 334.929ZM286.325 370.443C288.29 371.348 290.833 373.101 291.976 374.339C293.799 376.314 293.908 376.82 292.871 378.477C292.151 379.626 291.165 380.151 290.347 379.82C287.301 378.586 282.681 378.478 281.184 379.607C278.022 381.992 277.859 385.723 280.563 393.784C281.971 397.975 282.877 402.266 282.62 403.511C280.926 411.707 276.551 416.77 269.213 419.024L267.289 419.615L269.415 414.459C270.585 411.623 271.551 407.446 271.562 405.177C271.581 401.636 271.019 400.327 267.595 395.928C262.743 389.696 261.385 385.916 262.156 380.784C262.816 376.399 265.217 372.91 269.271 370.444C272.944 368.21 281.473 368.209 286.325 370.443ZM395.401 393.203C401.097 399.132 403.958 404.522 403.958 409.326C403.958 411.564 404.524 414.479 405.217 415.804C407.609 420.376 406.319 422.212 402.207 420.091C397.886 417.862 397.148 416.391 399.282 414.263C402.541 411.013 401.77 406.792 396.986 401.69C394.707 399.261 392.449 397.273 391.966 397.273C391.485 397.273 389.719 398.473 388.043 399.941C384.652 402.911 377.982 406.563 377.261 405.843C377.004 405.589 377.911 401.751 379.276 397.317L381.755 389.254H386.681C391.342 389.254 391.812 389.467 395.401 393.203ZM328.601 417.354C329.216 417.873 325.246 424.555 323.265 426.335C322.111 427.372 319.208 429.344 316.813 430.718L312.457 433.215L313 438.39C313.478 442.956 313.333 443.675 311.763 444.513C309.642 445.645 308.796 444.008 307.82 436.893C307.293 433.05 307.465 432.17 309.016 430.77C310.012 429.872 311.287 427.681 311.85 425.902C312.413 424.124 313.898 421.152 315.151 419.299L317.43 415.929L322.873 416.521C325.866 416.846 328.444 417.222 328.601 417.354ZM46.9971 434.107L41.7421 436.816L44.0935 438.833C45.7803 440.281 46.4441 441.712 46.4441 443.899V446.948L43.486 445.501C41.3579 444.461 40.611 443.554 40.8263 442.272C41.5151 438.173 39.79 438.07 34.0864 441.868C29.4871 444.931 28.5759 445.958 28.5759 448.074C28.5759 451.96 32.2344 455.014 33.3663 452.074C34.2204 449.852 37.1955 450.561 40.6476 453.809C44.5134 457.445 44.4562 459.701 40.4698 460.841C36.3619 462.016 31.7966 460.866 28.5455 457.837C26.9838 456.383 25.3864 455.193 24.9951 455.193C23.8417 455.193 22.322 460.508 22.322 464.542C22.322 472.855 30.4851 481.925 37.9683 481.925C43.0536 481.925 45.4354 480.955 48.8107 477.511L51.5839 474.682L52.1726 477.811C52.5523 479.83 52.2745 482.101 51.3891 484.214C50.6351 486.016 50.0177 487.592 50.0177 487.718C50.0177 488.774 55.9116 490.011 58.7044 489.541L62.1333 488.962L65.9169 495.914C67.9985 499.737 71.6356 506.273 74.0005 510.439C79.9944 520.999 86.3813 532.29 93.1552 544.299L98.9347 554.547L95.7148 555.461C91.9366 556.533 88.4344 561.101 88.4344 564.954C88.4344 570.872 93.0453 576.808 98.4853 577.893C100.579 578.311 100.88 578.701 100.324 580.281C98.387 585.786 100.868 590.805 106.824 593.433C110.315 594.973 110.77 595.506 110.77 598.052C110.77 603.908 114.517 606.739 123.277 607.504L129.085 608.011L134.183 616.922C136.988 621.823 140.405 627.996 141.777 630.641C145.908 638.599 152.061 640.856 157.776 636.508C159.677 635.062 160.926 633.201 161.288 631.278C162.027 627.344 161.886 627.064 144.114 597.533L141.027 592.402L143.888 590.001C146.992 587.396 149.186 583.076 149.186 579.571C149.186 574.27 159.46 568.488 180.902 561.721C196.753 556.718 205.612 552.815 210.172 548.822L213.498 545.91L217.749 547.359C220.087 548.155 224.96 549.059 228.578 549.366L235.158 549.925L234.666 547.335C232.594 536.403 233.573 526.132 237.345 519.219C238.643 516.84 240.055 514.894 240.484 514.894C242.838 514.894 241.574 512.034 237.253 507.584C230.738 500.875 228.83 494.785 227.978 477.981L227.36 465.787L222.893 472.626C217.858 480.334 212.039 485.958 204.598 490.307C198.289 493.995 194.632 495.213 187.448 496.015L181.796 496.647L182.092 499.756C182.263 501.55 183.349 503.875 184.658 505.255L186.928 507.645L183.915 508.196C182.258 508.499 179.495 508.626 177.776 508.479L174.649 508.211L174.899 512.094C175.224 517.13 176.896 520.242 181.296 523.999L184.865 527.045L179.233 534.113C167.221 549.186 159.251 554.273 147.4 554.433C138.748 554.549 134.982 553.159 129.352 547.775C124.838 543.459 118.796 540.735 113.734 540.735C110.185 540.735 111.181 542.195 87.8912 502.865C83.828 496.004 79.2796 488.449 77.784 486.078L75.0636 481.766L77.3257 478.808C78.5703 477.181 79.6692 474.736 79.7674 473.377C79.9193 471.292 79.5262 470.814 77.2668 470.332C74.1255 469.661 70.375 467.793 69.5128 466.47C69.1555 465.923 70.7976 464.785 73.5001 463.708C79.6191 461.268 82.1805 457.525 82.1805 451.022C82.1805 445.283 79.0643 438.452 75.1923 435.702C72.1958 433.574 65.1003 431.774 64.0059 432.865C63.5922 433.278 63.6923 434.434 64.2292 435.435C66.3841 439.451 64.8662 445.675 60.8468 449.303C58.6606 451.276 57.1007 450.43 55.4059 446.348C53.7977 442.476 54.5169 438.767 56.9417 438.423C61.0567 437.84 58.1898 430.94 53.9675 431.266C53.0241 431.339 49.8864 432.617 46.9971 434.107ZM274.601 446.621C276.547 450.713 276.429 455.949 274.284 460.665C271.948 465.798 272.03 467.302 274.792 470.057C277 472.26 277.423 472.34 283.949 471.81C287.713 471.504 291.898 471.001 293.249 470.693C295.39 470.205 295.709 470.403 295.735 472.241C295.751 473.402 296.526 476.552 297.457 479.242C298.388 481.932 298.983 484.299 298.779 484.503C297.861 485.419 285.748 487.209 280.266 487.238C267.931 487.305 260.859 481.405 260.866 471.054C260.87 466.038 262.064 463.483 267.034 457.866C271.201 453.157 271.51 448.974 268.275 441.009C267.192 438.343 273.196 443.671 274.601 446.621ZM347.039 454.361C346.709 454.895 347.372 455.557 348.55 455.871L350.651 456.429L348.483 456.949C346.048 457.534 344.846 459.648 346.95 459.648C348.883 459.648 349.612 461.212 349.461 465.036C349.39 466.863 349.83 468.748 350.438 469.223C353.146 471.344 361.818 471.394 361.818 469.289C361.818 468.818 361.251 467.865 360.559 467.175C359.865 466.483 358.605 464.006 357.757 461.669C356.909 459.333 355.242 456.518 354.053 455.415C351.782 453.309 348.04 452.747 347.039 454.361ZM556.615 457.827C555.482 458.541 555.524 459.104 556.924 462.034C557.814 463.894 558.756 467.485 559.017 470.013L559.493 474.609L555.168 473.803C552.789 473.36 549.308 472.199 547.431 471.223C544.221 469.554 543.98 469.542 543.376 471.009C542.545 473.026 542.549 486.352 543.38 488.385C543.98 489.853 544.221 489.839 547.431 488.171C549.308 487.195 552.788 486.034 555.165 485.591L559.486 484.786L558.929 489.517C558.622 492.119 558.144 494.838 557.867 495.559C557.589 496.281 554.674 497.769 551.388 498.866C543.495 501.502 541.705 502.465 535.851 507.221C526.542 514.784 520.726 525.254 519.014 537.53C518.146 543.76 518.762 551.895 520.422 556.106C521.281 558.286 519.805 558.085 513.953 555.227C508.028 552.333 497.945 543.178 490.448 533.883L485.055 527.196L489.098 523.646C492.212 520.913 493.469 518.974 494.563 515.219C496.353 509.078 495.88 507.622 492.322 508.332C490.846 508.626 488.169 508.592 486.372 508.256L483.104 507.645L485.373 505.255C486.688 503.871 487.768 501.551 487.939 499.746C488.215 496.848 488.047 496.612 485.556 496.408C475.182 495.562 464.81 491.135 456.778 484.127C452.378 480.288 444.012 468.986 444.012 466.88C444.012 466.333 443.67 465.885 443.251 465.885C442.833 465.885 442.256 471.399 441.968 478.138C441.234 495.356 438.669 502.762 431.164 509.336C429.385 510.892 427.931 512.358 427.931 512.594C427.931 512.828 428.924 514.09 430.138 515.396C433.931 519.478 436.119 526.843 436.21 535.834C436.255 540.245 435.972 545.22 435.583 546.889L434.874 549.925L441.453 549.366C445.072 549.059 449.933 548.16 452.256 547.367L456.478 545.928L460.378 549.116C465.726 553.486 476.5 558.283 494.49 564.3C517.378 571.957 520.702 573.827 533.4 586.19C543.032 595.567 544.6 596.749 548.106 597.274C553.675 598.106 558.31 597.07 562.038 594.162C565.186 591.704 565.348 591.677 569.046 592.947C573.994 594.648 578.294 593.799 582.242 590.343C584.862 588.047 585.984 587.654 589.311 587.858C593.081 588.088 593.538 587.835 599.136 582.415C604.511 577.209 605.043 576.358 605.448 572.321C605.691 569.896 607.143 564.705 608.673 560.784C611.202 554.311 611.461 552.714 611.492 543.408C611.523 534.193 611.268 532.504 608.963 526.628C604.014 514.011 593.354 503.747 580.601 499.319C576.714 497.97 573.3 496.488 573.014 496.028C572.169 494.663 571.114 485.448 571.758 485.051C572.699 484.47 582.526 487.253 584.81 488.746C587.104 490.245 587.062 490.315 588.236 482.816C588.739 479.604 587.663 470.747 586.647 469.734C586.332 469.42 585.369 469.782 584.506 470.538C582.712 472.109 581.092 472.667 575.082 473.785L570.8 474.581L571.416 470.456C571.756 468.187 572.793 464.56 573.721 462.394C575.063 459.265 575.173 458.308 574.26 457.729C572.678 456.729 558.228 456.809 556.615 457.827ZM276.05 522.11C276.049 527.402 272.066 535.431 266.263 541.838C261.785 546.784 249.196 555.883 246.833 555.883C246.196 555.883 245.675 556.249 245.675 556.695C245.675 557.545 250.043 561.465 252.646 562.951C253.945 563.692 253.265 564.66 247.908 569.71C224.139 592.114 203.449 605.686 183.403 612.023L174.289 614.905L174.79 617.695C176.328 626.263 182.785 633.375 192.773 637.505C198.182 639.741 199.823 639.987 209.492 640.005C219.613 640.024 220.537 639.873 226.02 637.297C243.267 629.193 261.61 608.901 276.455 581.502C280.666 573.731 281.987 572.661 284.985 574.597C286.112 575.325 285.27 577.537 279.685 588.518C263.803 619.745 245.535 641.319 225.401 652.622C218.318 656.6 218.112 656.807 218.983 659.093C221.607 665.976 228.163 672.707 235.876 676.438C241.667 679.238 252.276 681.041 258.066 680.208C278.616 677.251 295.648 651.955 308.475 605.338C310.228 598.967 312.361 590.408 313.213 586.318C314.707 579.149 315.8 577.454 318.306 578.413C320.976 579.435 315.864 613.984 308.652 643.654C302.473 669.074 302.221 679.283 307.573 687.248C310.78 692.023 314.1 694.048 326.616 698.87L334.744 702L344.39 698.375C356.697 693.75 360.233 691.481 363.333 686.222C365.697 682.209 365.836 681.391 365.788 671.722C365.743 662.922 365.207 659.23 361.989 645.571C359.929 636.824 358.082 629.406 357.886 629.086C357.073 627.757 351.992 595.75 351.307 587.642C350.724 580.729 350.813 578.763 351.725 578.413C354.232 577.454 355.325 579.149 356.819 586.318C361.23 607.482 369.745 633.032 377.233 647.574C387.676 667.852 398.812 678.315 411.965 680.208C418.017 681.079 428.436 679.221 434.785 676.138C441.154 673.046 448.247 665.873 450.439 660.307L451.881 656.644L445.996 653.417C428.973 644.085 413.299 627.86 399.549 605.338C392.572 593.912 383.776 575.924 384.553 574.672C384.883 574.14 386.098 573.705 387.252 573.705C388.966 573.705 390.091 575.069 393.378 581.131C408.314 608.684 426.59 629.033 443.654 637.114C449.495 639.881 450.361 640.036 460.115 640.062C469.467 640.087 471.008 639.85 476.932 637.471C487.33 633.296 493.671 626.448 495.242 617.695L495.743 614.905L486.629 612.023C466.581 605.685 446.216 592.39 422.57 570.199C416.79 564.775 416.078 563.786 417.386 562.999C420.129 561.347 424.357 557.523 424.357 556.695C424.357 556.249 423.836 555.883 423.199 555.883C420.858 555.883 408.352 546.86 403.774 541.868C397.975 535.544 393.983 527.49 393.982 522.115L393.981 518.197L385.717 518.704C365.093 519.969 349.492 525.705 338.747 535.973C335.003 539.551 334.642 539.707 333.584 538.201C331.632 535.421 322.983 529.228 317.036 526.351C309.12 522.522 296.114 519.412 285.237 518.748L276.051 518.188L276.05 522.11Z" fill="#203538"/>
</svg>
