<svg width="9" height="11" viewBox="0 0 9 11" fill="none" xmlns="http://www.w3.org/2000/svg">
<path fill-rule="evenodd" clip-rule="evenodd" d="M4.19695 0.00237361C3.34897 0.0802329 2.64445 0.413938 2.03043 1.02855C1.51966 1.53984 1.19671 2.12734 1.06683 2.78152C1.00646 3.08558 1.00595 3.09561 1.00118 4.07485L0.996714 4.9918L0.803797 4.99775C0.587084 5.00442 0.511075 5.02154 0.380798 5.09303C0.271421 5.15306 0.137867 5.29302 0.0805121 5.40771C-0.00802264 5.58476 -0.00183823 5.37855 0.00166365 8.03955L0.00479514 10.4158L0.0308123 10.4888C0.112276 10.7175 0.30186 10.9055 0.521098 10.9751L0.599666 11H4.5H8.40033L8.4789 10.9751C8.59055 10.9397 8.6898 10.8775 8.7813 10.7857C8.87174 10.6949 8.92205 10.6163 8.96513 10.4982L8.9952 10.4158L8.99833 8.03955C9.00184 5.37826 9.00804 5.58495 8.91936 5.40731C8.85933 5.28703 8.71882 5.1431 8.60236 5.08257C8.47913 5.01853 8.41323 5.00484 8.19549 4.99805L8.00188 4.99201V4.16989C8.00188 3.68914 7.99691 3.28502 7.98991 3.19666C7.96657 2.90228 7.90722 2.61794 7.81064 2.33775C7.46238 1.32744 6.53389 0.43752 5.51404 0.136532C5.17571 0.0366744 4.95446 0.00539586 4.55612 0.00107034C4.38636 -0.000760981 4.22473 -0.000187991 4.19695 0.00237361ZM4.77722 1.51808C5.0717 1.55666 5.33019 1.6518 5.5775 1.8126C5.71336 1.90093 5.81354 1.98576 5.94823 2.12649C6.23266 2.42368 6.39171 2.73656 6.47252 3.1579C6.48684 3.23245 6.49057 3.39669 6.4945 4.12131L6.49924 4.99484H4.50068H2.50213V4.19834C2.50213 3.72389 2.50689 3.35479 2.5139 3.28548C2.53952 3.03242 2.59654 2.83519 2.70993 2.60738C2.93366 2.15791 3.35936 1.77713 3.82095 1.6136C4.11134 1.51072 4.4573 1.47616 4.77722 1.51808Z" fill="#2A9F17"/>
</svg>
