<svg width="48" height="38" viewBox="0 0 48 38" fill="none" xmlns="http://www.w3.org/2000/svg">
	<path fill-rule="evenodd" clip-rule="evenodd"
		d="M23.0825 0.451078C22.6301 0.93965 22.5879 1.06581 22.8092 1.26667C22.9997 1.43951 22.9926 1.49257 22.7403 1.78064C22.623 1.91462 22.4883 2.15362 22.441 2.3117C22.3675 2.55794 22.373 2.62649 22.4797 2.78964C22.5482 2.89444 22.5902 2.99426 22.5731 3.01141C22.5559 3.02857 21.8305 3.07467 20.961 3.1139C16.6395 3.30882 14.5976 3.64583 13.0453 4.42045C11.3575 5.2626 10.5122 6.58515 10.7444 8.02046C10.9317 9.17878 11.8263 10.145 12.9707 10.4251L13.2756 10.4998L13.1409 10.8413C11.9673 13.8162 8.88811 21.4445 8.62056 22.04C8.5132 22.2789 8.42166 22.5965 8.41711 22.7457C8.41256 22.895 8.37264 23.0172 8.32853 23.0172C8.28435 23.0172 8.18941 23.0823 8.11758 23.1619C7.98914 23.3041 7.99145 23.3067 8.25078 23.3067C8.39589 23.3067 8.51465 23.2741 8.51465 23.2343C8.51465 23.1945 8.57146 23.1618 8.64099 23.1616C8.736 23.1613 8.77108 23.094 8.78256 22.8901C8.79101 22.741 8.9754 22.2226 9.19248 21.7382C9.4095 21.2537 10.2263 19.2528 11.0075 17.2918C11.7888 15.3308 12.6439 13.2192 12.9078 12.5994L13.3878 11.4724L13.4096 16.5029C13.4216 19.2696 13.4105 21.802 13.3851 22.1305L13.3387 22.7276H12.098C10.6821 22.7276 9.76737 22.8223 9.33615 23.0135C9.08845 23.1234 9.03806 23.1803 9.03806 23.3499C9.03806 23.4621 9.00153 23.5662 8.95684 23.5811C8.84992 23.6168 8.85728 24.0247 8.96839 24.2235C9.15003 24.5482 9.65879 24.8149 10.665 25.1129C13.79 26.0383 17.6763 25.3559 18.6954 23.7027C18.7865 23.5549 18.9082 23.4514 18.9911 23.4514C19.1474 23.4514 19.2622 23.2463 19.1469 23.1727C18.925 23.031 18.0833 21.0892 17.1815 18.6381C16.8153 17.6429 16.0842 15.77 15.5567 14.4762C14.5454 11.9952 14.0207 10.6687 13.9861 10.5054C13.9725 10.4407 14.1137 10.3654 14.3993 10.2852C14.9846 10.1207 15.423 9.86437 15.6916 9.52946C15.8973 9.27294 15.9146 9.20816 15.9146 8.69708C15.9146 8.224 15.8891 8.10884 15.7406 7.91037C15.4799 7.562 15.1514 7.43411 14.6065 7.46885C13.9375 7.51163 13.4957 7.90075 13.3875 8.54262C13.3311 8.87782 13.2618 8.89396 12.9095 8.65394C12.2579 8.21003 12.2486 7.24526 12.8879 6.40492C13.342 5.80807 14.2628 5.33788 15.5394 5.05111C16.1847 4.90613 16.4673 4.88608 17.8278 4.88861C19.4506 4.89165 20.1959 4.97902 21.2334 5.28794L21.7151 5.4314L21.7634 5.91852C21.9267 7.5662 22.2585 8.97387 22.698 9.8829L23.0143 10.5373L22.916 13.3934C22.7296 18.8092 22.6718 19.962 22.4804 22.0762C22.3374 23.6568 22.1865 24.8566 21.9735 26.1088C21.8773 26.6747 21.7985 27.1517 21.7985 27.1689C21.7985 27.186 21.6832 27.1739 21.5423 27.1421C21.1266 27.048 20.8335 27.1767 20.4305 27.6302C20.2299 27.8557 20.0658 28.0627 20.0658 28.09C20.0658 28.1173 19.9765 28.2003 19.8673 28.2745C19.7047 28.3851 19.5314 28.4095 18.9107 28.4095C18.4111 28.4095 18.1574 28.436 18.1664 28.4871C18.174 28.5298 17.9628 28.6838 17.6972 28.8293C17.4315 28.9748 17.0679 29.1816 16.8892 29.2886C16.6047 29.4591 16.5813 29.464 16.7007 29.3278C16.7758 29.2421 17.1086 29.0331 17.4404 28.8632C17.7722 28.6933 18.0439 28.5317 18.044 28.5041C18.0445 28.4272 17.031 28.8629 16.7397 29.0649C16.4572 29.2608 16.2027 29.5733 16.0955 29.8561L16.0265 30.0381H23.93C28.4795 30.0381 31.8336 30.0109 31.8336 29.9739C31.8336 29.7916 31.3159 29.1732 30.9672 28.9391C30.441 28.5859 29.8941 28.4415 28.8964 28.3922C28.1001 28.3529 28.0685 28.345 27.9735 28.1634C27.6642 27.5712 27.0559 27.2192 26.3382 27.2168L25.8604 27.2153L25.8163 26.9076C25.2522 22.9775 24.9574 19.0632 24.8215 13.6998L24.7386 10.4263L25.039 9.82738C25.3947 9.11841 25.6312 8.22161 25.8387 6.79621C26.0643 5.24581 26.0118 5.37993 26.4419 5.25471C27.6047 4.91626 29.8118 4.75659 31.1462 4.91438C33.7022 5.21657 35.2574 6.27739 35.2615 7.72139C35.2625 8.06143 35.2272 8.21626 35.114 8.36833C34.9384 8.60415 34.677 8.80001 34.4506 8.86558C34.3107 8.90612 34.2882 8.88556 34.2882 8.71706C34.2882 7.89445 33.5821 7.26871 32.8163 7.41275C32.1927 7.53001 31.7982 8.03747 31.7983 8.72191C31.7983 9.45332 32.1208 9.82137 33.097 10.204C33.8409 10.4956 33.7999 10.408 33.5294 11.1272C33.3981 11.4763 32.9769 12.5111 32.5933 13.4267C31.7655 15.403 31.0917 17.0629 30.7132 18.0591C29.8817 20.2468 29.3166 21.6307 28.9268 22.4343C28.628 23.0502 28.5183 23.3447 28.5802 23.3654C28.6299 23.3821 28.7569 23.4964 28.8624 23.6194C29.4877 24.3491 29.7041 24.5366 30.2024 24.7801C32.2828 25.7972 35.968 25.7978 38.0197 24.7814C38.4238 24.5813 38.6502 24.4074 38.9315 24.0812C39.1373 23.8426 39.3982 23.5547 39.5112 23.4415L39.7167 23.2356L39.5369 23.0214C39.438 22.9035 39.2592 22.5205 39.1395 22.1702C39.0198 21.82 38.7538 21.1262 38.5485 20.6286C37.3932 17.8292 34.8453 11.5378 34.4544 10.52C34.435 10.4695 34.5885 10.3877 34.8395 10.3146C36.6178 9.79626 37.4665 8.38505 36.9564 6.79462C36.6145 5.72852 35.919 5.00109 34.6637 4.39671C33.1208 3.65394 30.9017 3.28783 27.1048 3.1498C26.4695 3.12671 25.7808 3.09038 25.5743 3.06917C25.2018 3.03081 25.1994 3.029 25.2722 2.83697C25.3771 2.56026 25.2947 2.23201 25.0162 1.81705C24.7799 1.46506 24.7773 1.45298 24.9106 1.33203C25.1458 1.11865 25.0824 0.861044 24.7043 0.494217C24.2826 0.0849752 24.1224 0 23.773 0C23.5311 0 23.4526 0.0512456 23.0825 0.451078ZM23.656 0.260861C23.632 0.284892 23.5697 0.287497 23.5177 0.266579C23.4601 0.24349 23.4772 0.226335 23.5613 0.222861C23.6374 0.219749 23.68 0.236831 23.656 0.260861ZM6.10753 1.63719C4.26771 3.46133 3.13613 5.37595 2.54067 7.67238C2.36228 8.36022 2.34358 8.55261 2.34394 9.69905C2.3443 10.87 2.35831 11.006 2.52897 11.4986L2.71358 12.0315L2.94034 11.6772C3.62107 10.6137 4.04218 9.56218 5.20105 6.03266C5.83636 4.09785 6.59405 1.98765 7.0488 0.886667C7.1428 0.659174 6.89315 0.858222 6.10753 1.63719ZM40.9301 0.823406C40.9301 0.841139 41.1451 1.40419 41.4078 2.07451C41.6705 2.74483 42.3002 4.54734 42.8073 6.08C43.9645 9.57839 44.3415 10.5311 44.9486 11.4919C45.0812 11.7017 45.1896 11.9052 45.1896 11.9442C45.1896 12.1461 45.3129 11.9652 45.4251 11.5984C45.6595 10.833 45.7132 10.3424 45.6725 9.33715C45.5907 7.30968 44.7442 5.15461 43.2438 3.15306C42.5513 2.22941 40.9301 0.596998 40.9301 0.823406ZM23.08 2.21283C22.8813 2.3209 22.8206 2.48708 22.9504 2.56757C23.0744 2.64437 22.9509 2.8086 22.7992 2.76879C22.5198 2.69554 22.8147 2.09594 23.1272 2.10194C23.2607 2.10448 23.2552 2.11751 23.08 2.21283ZM22.2973 6.04063C22.3 7.00329 22.5896 8.31078 23.0677 9.5181C23.1168 9.64194 23.109 9.64976 23.014 9.57246C22.813 9.40888 22.4395 8.4811 22.3002 7.7992C22.1534 7.08139 22.0372 5.59129 22.1127 5.39427C22.2164 5.12334 22.2956 5.40056 22.2973 6.04063ZM14.6795 7.80448C14.6997 7.83727 14.5709 7.93498 14.3932 8.02155C14.1451 8.14235 14.0601 8.22907 14.0269 8.39496C13.9706 8.67747 13.8571 8.60219 13.8571 8.28227C13.8571 8.07779 13.8999 8.00599 14.0917 7.88873C14.3343 7.74042 14.6152 7.70018 14.6795 7.80448ZM32.9163 7.87918C32.9162 7.9048 32.7947 7.99086 32.6464 8.07048C32.4981 8.1501 32.3308 8.31144 32.2746 8.42905L32.1725 8.64287L32.1098 8.47285C32.0753 8.37933 32.0653 8.24513 32.0876 8.17464C32.164 7.93339 32.9172 7.66486 32.9163 7.87918ZM47.1824 8.52605C47.0646 9.57007 46.6174 10.6735 45.9258 11.6268C45.7223 11.9073 45.5265 12.2154 45.4907 12.3113C45.4544 12.4083 45.4453 13.0911 45.47 13.8501L45.5145 15.2145L45.8539 14.9147C46.5227 14.3239 47.0695 13.3176 47.3622 12.1389C47.5596 11.3441 47.605 9.75659 47.4545 8.90626C47.3087 8.08206 47.2429 7.99014 47.1824 8.52605ZM0.565347 8.74C0.425506 9.52107 0.437924 11.2547 0.588378 11.9431C0.747567 12.6717 1.00834 13.3743 1.30405 13.8717C1.5459 14.2785 2.41498 15.2596 2.47764 15.1966C2.49562 15.1786 2.52103 14.5287 2.5341 13.7524L2.55792 12.341L2.19731 11.8142C1.33422 10.5539 1.01851 9.83933 0.849867 8.76483C0.799331 8.44266 0.737171 8.17905 0.711903 8.17905C0.686563 8.17905 0.620649 8.43152 0.565347 8.74ZM5.54224 9.74834C5.26184 10.1172 4.36489 11.0017 3.44296 11.8183C3.03362 12.1809 2.86959 12.3792 2.81451 12.5783C2.73588 12.8621 2.70766 15.2 2.78288 15.2C2.85616 15.2 3.52216 14.4687 3.90335 13.9695C4.40416 13.3138 5.13138 11.8045 5.52131 10.6115C5.70208 10.0584 5.84041 9.55943 5.82871 9.50268C5.81593 9.44116 5.70028 9.54039 5.54224 9.74834ZM42.1605 9.5181C42.1597 9.59772 42.3196 10.1425 42.5157 10.7288C42.8926 11.8554 43.4155 12.976 43.9061 13.7087C44.2549 14.2296 45.0989 15.2 45.2031 15.2C45.2502 15.2 45.267 14.7463 45.2508 13.9152C45.2286 12.7771 45.2088 12.6016 45.0775 12.3774C44.9959 12.2383 44.5375 11.7823 44.0587 11.3641C43.2368 10.6463 42.686 10.0838 42.3222 9.59041C42.1855 9.40518 42.1618 9.39454 42.1605 9.5181ZM14.7724 13.68C15.1903 14.6951 15.9538 16.5843 16.4691 17.8781C16.9843 19.1719 17.6511 20.8262 17.9509 21.5542C18.2508 22.2823 18.4838 22.8864 18.4687 22.8968C18.4537 22.9072 18.0516 22.893 17.5751 22.8653C17.0986 22.8376 16.1565 22.7936 15.4814 22.7676C14.8064 22.7415 14.1485 22.7041 14.0195 22.6845L13.7849 22.6487L13.7877 16.9882C13.7903 11.8333 13.8005 11.3503 13.9015 11.581C13.9625 11.7203 14.3544 12.6649 14.7724 13.68ZM33.9048 17.4885L33.9137 22.7086L32.4224 22.7496C30.8985 22.7915 30.3814 22.8644 30.1561 23.0688C29.9869 23.2223 29.9955 23.2979 30.1911 23.3768C30.3487 23.4403 30.3477 23.4424 30.1599 23.4469C30.036 23.4498 29.9507 23.5007 29.9229 23.5883C29.886 23.7049 29.8541 23.713 29.7067 23.6433C29.6116 23.5983 29.5485 23.5468 29.5664 23.5289C29.5843 23.5109 29.5088 23.4563 29.3987 23.4074C29.2136 23.3251 29.2107 23.318 29.3609 23.3125C29.4503 23.3094 29.5233 23.2751 29.5233 23.2365C29.5233 23.198 29.5721 23.1852 29.6316 23.2081C29.6912 23.231 29.7399 23.2168 29.7399 23.1765C29.7399 23.1361 29.798 23.1183 29.8691 23.1369C29.9437 23.1566 30.058 23.1042 30.1398 23.0129L30.2814 22.8549L29.8843 22.9086C29.6659 22.9381 29.4681 22.9925 29.4448 23.0293C29.4211 23.0667 29.3665 23.0531 29.3214 22.9986C29.2592 22.9235 29.4825 22.3 30.2883 20.299C32.0374 15.9561 33.468 12.3672 33.6483 11.8705L33.8189 11.4L33.8574 11.8343C33.8786 12.0731 33.8999 14.6176 33.9048 17.4885ZM34.8713 12.7078C35.1139 13.3022 35.9786 15.4497 36.7929 17.48C37.6071 19.5103 38.4343 21.5578 38.631 22.0301C38.8277 22.5023 38.9788 22.8966 38.9667 22.9062C38.9547 22.9158 38.2625 22.8815 37.4287 22.8299C36.5948 22.7784 35.6147 22.7343 35.2507 22.7319C34.8866 22.7296 34.5374 22.7079 34.4746 22.6837C34.3718 22.6442 34.3604 22.0846 34.3604 17.0983C34.3604 14.0505 34.3761 11.5726 34.3953 11.5919C34.4146 11.6111 34.6287 12.1133 34.8713 12.7078ZM0.019627 13.3971C0.122216 15.5034 0.778106 17.1644 1.95669 18.3023C2.31766 18.6509 2.9415 19.0745 3.00301 19.0129C3.02604 18.9898 2.97738 18.6029 2.89486 18.1531C2.81241 17.7033 2.72556 17.1724 2.70195 16.9733C2.62564 16.3304 2.59727 16.2795 1.91965 15.5696C1.55211 15.1845 1.14428 14.7133 1.01332 14.5225C0.731324 14.1116 0.247763 13.0899 0.178095 12.7579C0.151094 12.629 0.0936989 12.5017 0.0506708 12.4751C-0.00499141 12.4406 -0.0139436 12.7072 0.019627 13.3971ZM47.7962 12.8483C47.5277 13.7601 46.9868 14.6173 46.0775 15.572C45.712 15.9557 45.397 16.3466 45.3775 16.4405C45.277 16.9236 44.9753 18.9902 45.0013 19.0163C45.12 19.1353 46.2245 18.1888 46.6677 17.5884C47.2181 16.843 47.7039 15.5864 47.8884 14.4309C48.0024 13.7174 48.0392 12.6238 47.951 12.5692C47.9172 12.5483 47.8476 12.6739 47.7962 12.8483ZM4.88469 13.5173C4.65518 13.9053 4.15726 14.5974 3.77816 15.0552C2.96655 16.0354 2.88345 16.1779 2.88345 16.5897C2.88345 16.9034 3.12148 18.4614 3.22789 18.8446L3.28522 19.0511L3.59378 18.6102C4.04644 17.9632 4.57707 16.7951 4.82982 15.8891C5.0446 15.1194 5.37417 13.1479 5.3258 12.9225C5.31266 12.8616 5.1142 13.1292 4.88469 13.5173ZM42.6641 12.9967C42.6663 13.3507 42.8621 14.6162 43.0218 15.3086C43.3302 16.6463 43.6748 17.4914 44.3013 18.4466L44.7117 19.0724L44.8013 18.6798C44.9796 17.8984 45.1384 16.6015 45.0885 16.3344C45.0543 16.1516 44.871 15.8633 44.516 15.4337C43.6369 14.3699 42.8853 13.3078 42.8771 13.118C42.8758 13.0887 42.8271 13.0015 42.7688 12.9243C42.6679 12.7905 42.6629 12.794 42.6641 12.9967ZM5.20163 16.72C4.98454 17.317 4.64356 18.0025 4.08903 18.9567C3.4922 19.9837 3.48498 20.1223 3.95699 21.4882C4.1548 22.0604 4.34648 22.5586 4.38301 22.5952C4.5557 22.7684 5.18805 20.8885 5.37323 19.6514C5.48384 18.9126 5.5117 17.1635 5.42218 16.5752L5.37266 16.2495L5.20163 16.72ZM42.5607 16.716C42.4838 17.397 42.5228 19.0832 42.631 19.7605C42.7606 20.5722 43.0439 21.5375 43.3396 22.1751L43.579 22.6914L43.7052 22.4019C43.7747 22.2427 43.9612 21.7215 44.1198 21.2438C44.5129 20.0602 44.5014 19.9777 43.7667 18.7031C43.4478 18.1498 43.0649 17.3877 42.9157 17.0095C42.7666 16.6313 42.6368 16.3126 42.6272 16.3014C42.6177 16.2901 42.5877 16.4767 42.5607 16.716ZM0.175929 17.2009C0.226826 17.7434 0.48384 18.692 0.751538 19.3257C1.17207 20.3213 1.88767 21.3063 2.65474 21.9456C3.12314 22.336 4.18296 22.8604 4.18296 22.7016C4.18296 22.6874 4.05821 22.3372 3.90573 21.9235C3.75318 21.5099 3.55956 20.9426 3.47538 20.663C3.30557 20.0988 3.18508 19.9581 2.45028 19.4661C1.59152 18.891 0.821856 18.0394 0.328188 17.1181L0.1342 16.7562L0.175929 17.2009ZM47.7574 16.9239C47.6493 17.2611 46.8419 18.3768 46.4283 18.7607C46.1946 18.9776 45.7395 19.3405 45.4171 19.567C44.7648 20.0253 44.6443 20.1724 44.5067 20.6783C44.4545 20.8699 44.2794 21.3997 44.1175 21.8556C43.9555 22.3114 43.8374 22.6989 43.855 22.7165C43.9171 22.7788 44.5098 22.5079 44.9663 22.2086C46.3509 21.3006 47.4381 19.4774 47.7899 17.4728C47.8815 16.9505 47.8609 16.6014 47.7574 16.9239ZM5.99498 19.627C5.86365 20.5086 5.64389 21.2917 5.20098 22.4569C4.79705 23.5194 4.80441 23.6934 5.29346 24.6325C5.50708 25.0429 5.78128 25.5386 5.90271 25.7342L6.12341 26.0897L6.19734 25.8948C6.43789 25.2605 6.52922 24.4766 6.52402 23.0895C6.51976 21.93 6.49103 21.5489 6.3631 20.9543C6.21416 20.2618 6.00999 19.5259 5.99498 19.627ZM41.8086 20.1729C41.5266 21.2348 41.4718 21.721 41.4717 23.1619C41.4716 24.5434 41.5579 25.2452 41.8097 25.9106C41.8767 26.0878 41.8796 26.0863 42.0784 25.7658C42.5795 24.9583 43.096 23.8309 43.096 23.5447C43.096 23.3706 42.94 22.8394 42.7049 22.2132C42.4898 21.6402 42.242 20.8294 42.1543 20.4114C42.0666 19.9934 41.9866 19.6418 41.9767 19.6301C41.9666 19.6184 41.891 19.8626 41.8086 20.1729ZM0.936501 21.0404C0.935202 21.0878 1.01945 21.3647 1.1237 21.6557C1.79013 23.5164 3.06264 25.0649 4.5035 25.7686C4.92144 25.9728 5.82452 26.2451 5.88444 26.185C5.90011 26.1693 5.65537 25.6862 5.34053 25.1116C5.02576 24.5369 4.72117 23.9805 4.6637 23.8751C4.59172 23.7432 4.33774 23.5777 3.84769 23.3437C3.45632 23.1567 2.92496 22.8631 2.66687 22.6911C2.21644 22.3912 1.42678 21.6271 1.09627 21.1714C1.00963 21.052 0.937728 20.9931 0.936501 21.0404ZM46.7459 21.3564C46.1257 22.1716 45.2357 22.8398 44.0305 23.3949C43.5377 23.6219 43.1682 23.933 43.1682 24.1208C43.1682 24.1598 42.9231 24.6317 42.6237 25.1695C42.3242 25.7075 42.0932 26.1616 42.1103 26.1788C42.1566 26.2252 42.9683 26.0034 43.3457 25.8413C44.5575 25.3205 45.8651 23.9264 46.5563 22.4185C46.8491 21.7795 47.1002 21.0723 47.0516 21.0236C47.0351 21.0071 46.8976 21.1569 46.7459 21.3564ZM7.18366 23.5761C7.15536 24.0052 7.03559 24.8611 6.91755 25.4781C6.67469 26.7472 6.68537 26.9557 7.01725 27.4324C7.49165 28.1139 8.30694 29.1002 8.36571 29.0638C8.47963 28.9932 8.52584 27.7643 8.44476 26.9619C8.36167 26.1397 8.19403 25.331 7.94878 24.5691C7.82266 24.1776 7.30372 22.8672 7.25449 22.8161C7.24387 22.805 7.21196 23.147 7.18366 23.5761ZM40.5126 23.3368C39.8074 24.9881 39.5342 26.2386 39.528 27.8431C39.5254 28.487 39.5507 29.0407 39.584 29.0736C39.6539 29.1424 39.8627 28.9088 40.6186 27.9158C41.3659 26.9341 41.3671 26.9281 41.0744 25.4773C40.9404 24.8131 40.8039 23.7558 40.7673 23.0985L40.7496 22.7818L40.5126 23.3368ZM14.6512 23.0062C14.6512 23.04 13.8748 23.0644 12.9258 23.0605C11.9767 23.0565 11.2152 23.0289 11.2334 22.9991C11.2796 22.9235 14.6512 22.9305 14.6512 23.0062ZM36.057 23.0107C36.514 23.0417 35.9643 23.0585 34.5591 23.0565C33.3382 23.0548 32.3392 23.0289 32.3391 22.9991C32.3389 22.9336 35.0443 22.9421 36.057 23.0107ZM10.8774 23.07C10.7276 23.0856 10.5002 23.0854 10.3721 23.0694C10.2439 23.0534 10.3664 23.0406 10.6444 23.0409C10.9223 23.0413 11.0272 23.0543 10.8774 23.07ZM15.8244 23.0705C15.6159 23.0851 15.2748 23.0851 15.0663 23.0705C14.8579 23.0559 15.0284 23.0439 15.4454 23.0439C15.8623 23.0439 16.0328 23.0559 15.8244 23.0705ZM32.0305 23.07C31.8807 23.0856 31.6533 23.0854 31.5252 23.0694C31.3969 23.0534 31.5195 23.0406 31.7975 23.0409C32.0754 23.0413 32.1803 23.0543 32.0305 23.07ZM30.9131 23.1374C30.8635 23.1576 30.7823 23.1576 30.7326 23.1374C30.683 23.1174 30.7236 23.101 30.8228 23.101C30.9221 23.101 30.9628 23.1174 30.9131 23.1374ZM8.29806 23.4755C8.29806 23.6258 8.38354 23.6753 8.48996 23.5867C8.62987 23.4703 8.60901 23.3791 8.44245 23.3791C8.36304 23.3791 8.29806 23.4225 8.29806 23.4755ZM8.58525 23.583C8.44729 23.6949 8.43574 23.7379 8.50757 23.8725C8.64943 24.1383 8.80343 24.0698 8.80343 23.741C8.80343 23.5817 8.79079 23.4514 8.77534 23.4514C8.75989 23.4514 8.67434 23.5106 8.58525 23.583ZM16.2034 23.7444C15.2573 23.9385 12.8398 23.9644 11.1859 23.7982C11.0866 23.7882 12.11 23.7625 13.46 23.741C14.81 23.7195 16.0446 23.6981 16.2034 23.6936L16.4922 23.6852L16.2034 23.7444ZM31.3808 23.7123C31.3569 23.7363 31.2946 23.7389 31.2425 23.718C31.1849 23.6949 31.202 23.6778 31.2861 23.6743C31.3622 23.6712 31.4048 23.6883 31.3808 23.7123ZM36.9233 23.7418C36.2081 23.8935 34.2316 23.9713 33.0953 23.8925C32.4685 23.849 31.9037 23.8059 31.8404 23.7968C31.7771 23.7876 32.7956 23.7632 34.1037 23.7425C35.4118 23.7217 36.6464 23.6993 36.8471 23.6926L37.2121 23.6805L36.9233 23.7418ZM2.45028 25.0994C2.45028 25.1832 3.11289 26.2912 3.3473 26.5993C4.03185 27.4991 4.97234 28.3053 5.87802 28.7687C6.51788 29.096 7.48638 29.3455 7.95095 29.3026L8.21756 29.2781L7.85623 28.8438C7.65748 28.605 7.26929 28.1092 6.99357 27.7422L6.49225 27.0748L5.86105 26.8881C4.33883 26.4377 3.85916 26.1866 2.68492 25.2254C2.5559 25.1197 2.45028 25.0631 2.45028 25.0994ZM45.0405 25.4405C44.2268 26.1311 43.6275 26.4315 42.1225 26.9034C41.5312 27.0887 41.4526 27.1354 41.2328 27.4324C40.928 27.844 40.1233 28.8797 40.0277 28.9833C39.6962 29.3427 39.6949 29.3414 40.3243 29.289C40.8978 29.2412 41.6674 29.0241 42.1617 28.7706C43.0492 28.3155 44.2111 27.2634 44.8047 26.3773C45.1802 25.8168 45.5742 25.1158 45.5355 25.077C45.5187 25.0601 45.2959 25.2237 45.0405 25.4405ZM8.90573 25.8943C9.03597 26.5181 9.08953 27.2522 9.09076 28.4312C9.09184 29.4295 9.1174 29.8046 9.19436 29.9539C9.35016 30.2558 10.9795 31.7753 11.1475 31.7753C11.2263 31.7753 11.1273 30.9154 10.9561 30.112C10.7671 29.2256 10.5391 28.5927 10.0633 27.6342C9.70009 26.9026 8.97518 25.6952 8.89901 25.6952C8.87988 25.6952 8.88284 25.7849 8.90573 25.8943ZM38.7519 26.183C37.9517 27.3938 37.4262 28.5634 37.1017 29.8564C36.8983 30.6662 36.7539 31.7753 36.8518 31.7753C36.9394 31.7753 38.0526 30.8054 38.4565 30.3772C38.6618 30.1596 38.8461 29.9046 38.8662 29.8108C38.8863 29.7169 38.9174 28.9072 38.9354 28.0114C38.9534 27.1157 39.0045 26.2401 39.0492 26.0657C39.0938 25.8913 39.1179 25.7361 39.1028 25.721C39.0877 25.7059 38.9298 25.9138 38.7519 26.183ZM21.1427 27.4548C20.676 27.8012 20.3459 28.0015 20.4629 27.867C20.6173 27.6896 20.9975 27.4331 21.1066 27.4327C21.143 27.4325 21.1593 27.4425 21.1427 27.4548ZM11.0415 28.3219C11.0415 28.3472 11.1054 28.5305 11.1834 28.7291C11.3932 29.2626 11.5954 30.1161 11.7251 31.0153C11.8978 32.2122 11.9949 32.4525 12.4379 32.7779C12.92 33.1318 14.2639 33.9467 14.3657 33.9467C14.4127 33.9467 14.4259 33.8813 14.3983 33.7838C14.0676 32.6144 13.5871 31.5461 12.9705 30.6098C12.4191 29.7723 11.0415 28.1385 11.0415 28.3219ZM36.5863 28.6464C35.3154 29.9711 34.2984 31.5826 33.8303 33.0133C33.5903 33.7473 33.5492 33.9467 33.6383 33.9467C33.7279 33.9467 34.6239 33.4095 35.3595 32.9147C35.9791 32.4979 36.0458 32.3754 36.2055 31.3598C36.3665 30.3357 36.5911 29.3462 36.7841 28.8103C36.8768 28.553 36.9441 28.3339 36.9336 28.3234C36.9232 28.3129 36.7669 28.4582 36.5863 28.6464ZM4.61613 28.7805C4.61613 28.8958 5.16575 29.5505 5.6745 30.0411C6.58835 30.9225 7.41952 31.4557 8.44938 31.8213C8.88464 31.9757 9.15595 32.0176 9.9101 32.0466C10.4346 32.0668 10.8653 32.0532 10.9031 32.0153C10.9441 31.9742 10.8093 31.8098 10.5546 31.5903C10.3261 31.3934 9.9005 31.0044 9.60876 30.7257C9.31702 30.4471 9.00189 30.1782 8.9084 30.1281C8.81491 30.0782 8.40383 30.0032 7.99484 29.9617C6.80161 29.8404 5.94018 29.5534 4.96735 28.9533C4.77416 28.8341 4.61613 28.7564 4.61613 28.7805ZM43.064 28.9274C42.6672 29.1978 41.6883 29.6368 41.1828 29.7711C40.9446 29.8344 40.4106 29.9227 39.9962 29.9673C39.1554 30.0577 38.9845 30.125 38.6199 30.5092C38.4809 30.6556 38.0673 31.037 37.7009 31.3569C37.3343 31.6767 37.052 31.9668 37.0734 32.0016C37.1398 32.1093 38.6271 32.0738 39.0876 31.9536C40.1924 31.6651 41.2352 31.0707 42.153 30.2064C42.7628 29.6321 43.4385 28.8373 43.3728 28.7715C43.355 28.7537 43.216 28.8238 43.064 28.9274ZM13.8113 30.8189C14.1402 31.3413 14.4193 31.9613 14.7957 33.0057C15.2963 34.3945 15.3588 34.4902 15.9429 34.7615C16.508 35.0241 18.0693 35.6105 18.1059 35.5739C18.1588 35.5208 17.4386 34.2395 17.106 33.7951C16.5659 33.0735 15.8279 32.2752 15.1566 31.6863C14.5597 31.1628 13.7597 30.5448 13.6787 30.5448C13.6567 30.5448 13.7164 30.6681 13.8113 30.8189ZM33.7955 30.9028C32.0784 32.2233 30.8997 33.5447 30.1455 34.9948C30.0018 35.2711 29.8843 35.5222 29.8843 35.5527C29.8843 35.6811 32.2267 34.733 32.4687 34.5066C32.7014 34.289 32.8764 33.9318 33.1804 33.0541C33.4743 32.2059 33.8329 31.4021 34.1429 30.8969C34.2618 30.7032 34.335 30.5463 34.3056 30.5482C34.2761 30.5501 34.0466 30.7097 33.7955 30.9028ZM7.75559 32.4718C8.92608 33.595 10.6754 34.389 12.2194 34.4978C12.8994 34.5458 13.6932 34.4544 14.109 34.2803L14.3248 34.1899L13.6833 33.81C13.3304 33.6011 12.7947 33.2618 12.4928 33.0561L11.9439 32.6822L10.5722 32.6811C9.34308 32.6802 9.1405 32.6622 8.62294 32.5089C8.30528 32.4148 7.96416 32.2968 7.86489 32.2467C7.35585 31.9895 7.32322 32.0568 7.75559 32.4718ZM40.0207 32.2805C39.1551 32.6322 38.5143 32.7284 37.2074 32.7027L36.0476 32.68L35.5108 33.0474C35.2156 33.2495 34.6877 33.589 34.3377 33.8019C33.6202 34.2384 33.6218 34.2513 34.415 34.4198C36.0851 34.7746 38.2364 34.1317 39.8833 32.7855C40.4241 32.3434 40.7044 32.0625 40.5984 32.0685C40.5624 32.0706 40.3025 32.166 40.0207 32.2805ZM17.0555 32.7388C17.5226 33.2908 17.8959 33.8341 18.4093 34.7091C18.9241 35.5863 19.0901 35.7944 19.3892 35.9367C19.6121 36.0428 21.1874 36.3899 21.9621 36.5038C22.2881 36.5516 22.2841 36.5406 21.7263 35.8646C20.7942 34.7348 19.2554 33.5788 17.5288 32.7111L16.6646 32.2768L17.0555 32.7388ZM30.6161 32.6138C28.6463 33.6428 27.2362 34.7017 26.2386 35.9008C25.9805 36.2111 25.7692 36.4818 25.7692 36.5024C25.7692 36.5705 27.1359 36.3359 28.0415 36.1123C28.7399 35.9399 28.9441 35.7647 29.4686 34.8876C30.0442 33.9252 30.5245 33.2231 30.9174 32.7698C31.1162 32.5406 31.2655 32.3407 31.2494 32.3257C31.2331 32.3107 30.9482 32.4403 30.6161 32.6138ZM14.1819 34.9293C13.2254 35.1365 12.1159 35.1597 11.2962 34.9898C10.9911 34.9265 10.7271 34.8892 10.7095 34.9067C10.6001 35.0165 12.1793 35.8271 13.0605 36.1135C14.7152 36.6512 16.5012 36.6102 17.6882 36.0071L18.0679 35.8142L17.3522 35.5422C16.9586 35.3927 16.3519 35.1517 16.004 35.0066C15.6561 34.8616 15.2825 34.7461 15.1738 34.7501C15.065 34.7542 14.6187 34.8348 14.1819 34.9293ZM32.308 34.8634C32.1918 34.9265 31.6111 35.1661 31.0176 35.3957C29.7766 35.8761 29.7798 35.8594 30.8589 36.2401C31.4045 36.4325 31.5026 36.4437 32.6277 36.4409C33.9416 36.4376 34.5039 36.3314 35.5877 35.8819C36.1673 35.6416 37.3542 34.9698 37.2983 34.9137C37.2797 34.8951 36.9766 34.934 36.6246 35.0002C35.7875 35.1576 34.4218 35.1105 33.6023 34.8959C32.9167 34.7162 32.594 34.7082 32.308 34.8634ZM18.2609 36.4865C17.2169 36.9307 16.5107 37.0812 15.4344 37.0888C14.932 37.0924 14.5347 37.1175 14.5514 37.1448C14.6 37.2243 15.6558 37.6109 16.1673 37.7365C17.7834 38.1335 19.5447 38.0735 20.814 37.5783C21.352 37.3683 22.1595 36.8895 22.1595 36.7804C22.1595 36.7456 21.9727 36.6951 21.7443 36.6683C21.516 36.6414 20.8909 36.5229 20.3552 36.405C19.8196 36.287 19.2835 36.1914 19.164 36.1926C19.0445 36.1937 18.6382 36.3261 18.2609 36.4865ZM27.9351 36.3413C27.6373 36.4156 27.0444 36.5323 26.6175 36.6007C26.1906 36.6692 25.8414 36.7483 25.8414 36.7766C25.8414 36.8787 26.6349 37.3527 27.1526 37.5598C28.4426 38.0759 30.1303 38.1412 31.7975 37.7397C32.2981 37.6191 33.4941 37.1925 33.494 37.1345C33.4939 37.1129 33.0797 37.0928 32.5735 37.0898C31.5001 37.0835 31.0349 36.986 29.835 36.5156C28.9152 36.155 28.7452 36.1395 27.9351 36.3413Z"
		fill="white" />
</svg>