<svg width="50" height="60" viewBox="0 0 50 60" fill="none" xmlns="http://www.w3.org/2000/svg">
<path d="M0 0V40.866C0 45.588 1.83956 53.5187 14.1511 53.5187C21.635 53.5187 25 60 25 60C25 60 28.1138 53.5187 35.8489 53.5187C48.1604 53.5187 50 45.588 50 40.866V0H0ZM47.1734 40.7931C47.1734 47.2835 43.3597 50.5743 35.8489 50.5743C28.3381 50.5743 25.4397 54.7584 25.4128 54.7949L25.0449 55.4148L24.659 54.804C22.281 51.0757 18.0187 50.5743 14.1601 50.5743C6.64932 50.5743 2.83561 47.2835 2.83561 40.7931V2.80766H47.1734V40.7931Z" fill="#107E50"/>
<path d="M33.3094 25.907C32.1518 29.1613 31.2007 31.8504 31.1917 31.8778C31.1827 31.9234 31.434 31.9325 36.3065 31.9325H41.4304V31.8687C41.4304 31.8687 40.4612 29.1795 39.3037 25.9708C38.1461 22.762 36.9975 19.5715 36.7462 18.8878C36.504 18.2041 36.2886 17.6298 36.2796 17.6207C36.2796 17.6116 36.0732 18.1403 35.8399 18.7967C35.6066 19.453 34.467 22.6617 33.3094 25.9161V25.907Z" fill="#107E50"/>
<path d="M18.6917 31.9325V31.7957C18.6917 31.7046 18.6468 31.5223 18.5481 31.2488C18.4045 30.8386 17.1482 27.3381 14.878 20.9662C14.2229 19.143 13.6845 17.6298 13.6666 17.6025C13.6486 17.566 13.6396 17.566 13.6217 17.6116C13.523 17.8668 8.58759 31.8231 8.57861 31.8687V31.9325H13.6307H18.7007H18.6917Z" fill="#107E50"/>
<path d="M14.1511 49.6627C18.0635 49.6627 22.3797 50.1641 25.0359 53.783C26.0588 52.5524 29.1636 49.6627 35.8399 49.6627C42.8571 49.6627 46.267 46.7639 46.267 40.7931V3.71924H3.72394V40.7931C3.72394 46.7639 7.13385 49.6627 14.1511 49.6627ZM7.47484 31.9325C7.54662 31.9052 7.61841 31.8596 7.6543 31.814C7.68122 31.7685 7.79788 31.4768 7.91453 31.1577C8.02221 30.8478 9.28747 27.2835 10.7322 23.2452C12.7512 17.5661 13.3435 15.8888 13.3255 15.825C13.2986 15.7065 13.1909 15.6336 12.9307 15.515C12.482 15.3236 12.3295 15.2416 12.2846 15.1595C12.2308 15.0593 12.2667 14.959 12.3743 14.8861C12.4461 14.8405 12.473 14.8405 12.6166 14.8678C12.7064 14.8861 12.8679 14.9408 12.9666 14.9863C13.146 15.0593 13.173 15.0684 13.6396 15.0593C14.4921 15.0593 14.8869 14.9499 16.529 14.3026C18.8621 13.382 19.2749 13.2543 20.0287 13.1632C20.5491 13.1085 21.5003 13.1358 22.1015 13.2361C22.6938 13.3364 23.1694 13.5552 23.5373 13.9016C23.8155 14.1659 23.959 14.248 24.1385 14.248C24.318 14.248 24.3718 14.2206 24.4077 14.1386C24.4526 14.0292 24.4526 13.5096 24.4077 13.3911C24.3539 13.2543 24.0757 12.124 24.0757 12.0328C24.0757 11.9964 24.2641 11.3674 24.4974 10.6472C24.7308 9.92708 24.9192 9.32544 24.9192 9.31632C24.9192 9.30721 24.9371 9.30721 24.9641 9.31632C25 9.31632 25.1435 9.7083 25.4666 10.6655L25.9242 12.0055L25.6999 12.8441C25.5743 13.309 25.4666 13.7375 25.4666 13.8104C25.4666 14.3026 25.8973 14.3665 26.3729 13.938C26.6421 13.6919 26.7498 13.6281 27.0639 13.5005C27.7189 13.2452 28.2842 13.1541 29.2623 13.1541C30.402 13.1541 30.7071 13.227 32.8607 14.0839C34.0542 14.5579 34.8079 14.8314 35.1669 14.9134C35.7412 15.0593 36.5129 15.1231 36.7911 15.041C36.8539 15.0228 36.9885 14.9772 37.0782 14.9408C37.2936 14.8587 37.5089 14.8222 37.5807 14.8678C37.7153 14.9408 37.6705 15.2233 37.5179 15.3236C37.473 15.351 37.2577 15.4512 37.0333 15.5333C36.6295 15.6882 36.5219 15.7521 36.5219 15.825C36.5219 15.8614 36.7821 16.5907 38.4153 21.1577C38.8729 22.4248 39.9048 25.3327 40.7214 27.6026C41.538 29.8815 42.22 31.7776 42.2379 31.8232C42.2828 31.9234 42.3905 31.969 42.543 31.969C42.6956 31.969 42.6956 32.0146 42.543 32.2334C41.9508 33.1176 40.874 33.9471 39.6267 34.4667C38.2448 35.041 36.9077 35.2598 35.5258 35.1413C33.8388 34.9954 32.5287 34.4576 31.1827 33.3637C30.8327 33.0811 29.8366 32.0875 29.8366 32.0237C29.8366 31.9872 29.8905 31.969 30.0251 31.9417C30.1238 31.9234 30.2405 31.9052 30.2674 31.9052C30.3122 31.9052 30.3392 31.8687 30.3661 31.8049C30.384 31.7593 31.2903 29.2069 32.3761 26.144C33.4619 23.0811 34.7092 19.5442 35.1579 18.2954C35.5976 17.0465 35.9655 15.9799 35.9655 15.9344V15.8523L35.6245 15.8706C35.4361 15.8797 34.9156 15.907 34.458 15.9253C33.4888 15.9708 33.3453 15.9617 32.0082 15.7429C31.5057 15.6609 30.9494 15.588 30.7878 15.5606C30.4199 15.515 29.4149 15.5424 29.0739 15.6062C28.4906 15.7156 28.2035 16.0073 27.8266 16.8368C27.7279 17.0556 27.6382 17.2379 27.6202 17.2562C27.5933 17.2835 27.351 17.2926 26.5883 17.2926H25.5832L25.5653 17.6937C25.5114 18.6418 25.6461 19.5169 26.0319 20.6655C26.3011 21.4859 26.4178 22.0419 26.4447 22.7074C26.4896 23.6463 26.4267 24.1021 26.014 25.67C25.7358 26.7366 25.673 27.0556 25.6371 27.557C25.5832 28.35 25.664 29.0337 26.014 30.5196C26.1127 30.9207 26.2204 31.4221 26.2562 31.6408C26.4896 32.9444 26.4088 34.1659 25.9511 35.9891C25.8883 36.2443 25.8345 36.4813 25.8345 36.5087C25.8345 36.536 25.9063 36.6272 25.996 36.7001C26.3011 36.9736 26.5524 37.3747 26.6331 37.7302C26.687 37.9763 26.687 38.4321 26.6331 38.6418C26.6062 38.7329 26.5254 38.897 26.4537 39.0155C26.3011 39.2707 26.2383 39.4439 26.2383 39.6627C26.2383 39.8177 26.2383 39.8268 26.3819 39.9727C26.5613 40.1459 27.0369 40.3829 27.5394 40.5561L27.8984 40.6837L28.5804 40.711C29.379 40.7475 29.8456 40.711 30.6353 40.5834C31.3262 40.4649 31.5595 40.4376 32.1069 40.4102C32.9415 40.3646 33.4709 40.4467 33.9465 40.6655C34.4669 40.9116 34.6823 41.3583 34.6464 42.1331C34.6195 42.5889 34.5208 42.9171 34.3413 43.1176L34.2695 43.1996H15.7753L15.5958 43.0173C15.3445 42.7621 15.3266 42.7074 15.3266 42.1513C15.3266 41.0848 15.5599 40.7201 16.3855 40.5105C16.7534 40.4193 17.2918 40.3829 17.902 40.4102C18.3955 40.4376 18.6557 40.4649 19.4275 40.5834C20.271 40.711 21.0068 40.7293 21.6888 40.6563C22.7656 40.5378 23.5463 40.2006 23.6539 39.7903C23.6988 39.6171 23.6719 39.4804 23.5193 39.1705C23.3309 38.7876 23.304 38.6509 23.304 38.2589C23.304 37.639 23.4565 37.2197 23.8065 36.8642C23.9232 36.7457 24.0398 36.6363 24.0757 36.618L24.1475 36.5725L23.9411 35.6791C23.5822 34.093 23.5283 33.7375 23.5283 32.8077C23.5283 31.8505 23.6091 31.3127 23.9232 30.3646C24.2462 29.3437 24.3449 28.7967 24.3539 27.9672C24.3539 27.2744 24.309 27.0556 24.0039 26.1714C23.8334 25.6791 23.6809 25.0775 23.5911 24.5032C23.5373 24.1477 23.5283 23.9927 23.5283 23.382C23.5283 22.3701 23.6181 21.7411 23.9321 20.4284C24.2641 19.0428 24.4077 18.1495 24.4077 17.4932V17.3109H22.3079L22.2092 17.0374C22.0746 16.6454 21.8772 16.2717 21.6977 16.0711C21.4196 15.7612 21.0606 15.6336 20.3517 15.5789C19.8043 15.5333 19.1493 15.5606 18.584 15.6518C18.3327 15.6974 17.8302 15.7703 17.4712 15.8341C17.1123 15.8888 16.6816 15.9435 16.5021 15.9526C16.2239 15.9708 15.3535 15.9526 14.2947 15.8888L13.9357 15.8706V15.9799C13.9357 16.0529 14.2408 16.9371 14.7792 18.4321C18.5032 28.7967 19.5531 31.6955 19.589 31.7776C19.6428 31.887 19.6877 31.9143 19.903 31.9599C20.1094 32.0055 20.1094 32.0328 19.93 32.2881C19.6249 32.7165 19.23 33.1267 18.7814 33.5005C17.8392 34.2753 16.4124 34.8678 14.8869 35.1048C14.5639 35.1504 14.3664 35.1686 13.7114 35.1686C13.2268 35.1686 12.823 35.1595 12.6525 35.1322C10.9117 34.8952 9.73614 34.4303 8.80291 33.619C8.46191 33.3181 7.87864 32.7439 7.60046 32.4157C7.29537 32.0602 7.27742 31.9872 7.46586 31.9234L7.47484 31.9325Z" fill="#107E50"/>
</svg>
