<svg width="167" height="28" viewBox="0 0 167 28" fill="none" xmlns="http://www.w3.org/2000/svg">
<path d="M67.0486 19.6315V13.1137C67.0486 10.6153 65.4886 8.98584 62.8143 8.98584C61.4771 8.98584 60.0286 9.42036 59.0257 10.8325C58.2457 9.63762 57.1314 8.98584 55.46 8.98584C54.3457 8.98584 53.2314 9.31172 52.34 10.5066V9.2031H50V19.6315H52.34V13.8741C52.34 12.0275 53.3429 11.1584 54.9029 11.1584C56.4629 11.1584 57.2429 12.1361 57.2429 13.8741V19.6315H59.5829V13.8741C59.5829 12.0275 60.6971 11.1584 62.1457 11.1584C63.7057 11.1584 64.4857 12.1361 64.4857 13.8741V19.6315H67.0486ZM101.703 9.2031H97.9143V6.05286H95.5743V9.2031H93.4571V11.2671H95.5743V16.0467C95.5743 18.4366 96.5771 19.8487 99.2514 19.8487C100.254 19.8487 101.369 19.5229 102.149 19.0883L101.48 17.133C100.811 17.5675 100.031 17.6762 99.4743 17.6762C98.36 17.6762 97.9143 17.0244 97.9143 15.9381V11.2671H101.703V9.2031ZM121.537 8.98584C120.2 8.98584 119.309 9.63761 118.751 10.5066V9.2031H116.411V19.6315H118.751V13.7655C118.751 12.0275 119.531 11.0498 120.98 11.0498C121.426 11.0498 121.983 11.1584 122.429 11.2671L123.097 9.09447C122.651 8.98584 121.983 8.98584 121.537 8.98584ZM91.5629 10.0721C90.4486 9.31172 88.8886 8.98584 87.2171 8.98584C84.5429 8.98584 82.76 10.2894 82.76 12.3533C82.76 14.0914 84.0971 15.0691 86.4371 15.395L87.5514 15.5036C88.7771 15.7208 89.4457 16.0467 89.4457 16.5899C89.4457 17.3503 88.5543 17.8934 86.9943 17.8934C85.4343 17.8934 84.2086 17.3503 83.4286 16.8071L82.3143 18.5452C83.54 19.4142 85.2114 19.8487 86.8829 19.8487C90.0029 19.8487 91.7857 18.4366 91.7857 16.4812C91.7857 14.6346 90.3371 13.6569 88.1086 13.331L86.9943 13.2224C85.9914 13.1137 85.2114 12.8965 85.2114 12.2447C85.2114 11.4843 85.9914 11.0498 87.2171 11.0498C88.5543 11.0498 89.8914 11.5929 90.56 11.9188L91.5629 10.0721ZM153.74 8.98584C152.403 8.98584 151.511 9.63761 150.954 10.5066V9.2031H148.614V19.6315H150.954V13.7655C150.954 12.0275 151.734 11.0498 153.183 11.0498C153.629 11.0498 154.186 11.1584 154.631 11.2671L155.3 9.09447C154.854 8.98584 154.186 8.98584 153.74 8.98584ZM123.877 14.4173C123.877 17.5675 126.106 19.8487 129.56 19.8487C131.12 19.8487 132.234 19.5229 133.349 18.6538L132.234 16.8071C131.343 17.4589 130.451 17.7848 129.449 17.7848C127.554 17.7848 126.217 16.4812 126.217 14.4173C126.217 12.462 127.554 11.1584 129.449 11.0498C130.451 11.0498 131.343 11.3757 132.234 12.0275L133.349 10.1808C132.234 9.31173 131.12 8.98584 129.56 8.98584C126.106 8.98584 123.877 11.267 123.877 14.4173ZM145.494 14.4173V9.2031H143.154V10.5066C142.374 9.52898 141.26 8.98584 139.811 8.98584C136.803 8.98584 134.463 11.267 134.463 14.4173C134.463 17.5675 136.803 19.8487 139.811 19.8487C141.371 19.8487 142.486 19.3056 143.154 18.3279V19.6315H145.494V14.4173ZM136.914 14.4173C136.914 12.5706 138.14 11.0498 140.146 11.0498C142.04 11.0498 143.377 12.462 143.377 14.4173C143.377 16.264 142.04 17.7848 140.146 17.7848C138.14 17.6762 136.914 16.264 136.914 14.4173ZM108.946 8.98584C105.826 8.98584 103.597 11.1584 103.597 14.4173C103.597 17.6762 105.826 19.8487 109.057 19.8487C110.617 19.8487 112.177 19.4142 113.403 18.4366L112.289 16.8071C111.397 17.4589 110.283 17.8934 109.169 17.8934C107.72 17.8934 106.271 17.2416 105.937 15.395H113.849V14.5259C113.96 11.1584 111.954 8.98584 108.946 8.98584ZM108.946 10.9412C110.394 10.9412 111.397 11.8102 111.62 13.4396H106.049C106.271 12.0275 107.274 10.9412 108.946 10.9412ZM167 14.4173V5.0752H164.66V10.5066C163.88 9.52898 162.766 8.98584 161.317 8.98584C158.309 8.98584 155.969 11.267 155.969 14.4173C155.969 17.5675 158.309 19.8487 161.317 19.8487C162.877 19.8487 163.991 19.3056 164.66 18.3279V19.6315H167V14.4173ZM158.42 14.4173C158.42 12.5706 159.646 11.0498 161.651 11.0498C163.546 11.0498 164.883 12.462 164.883 14.4173C164.883 16.264 163.546 17.7848 161.651 17.7848C159.646 17.6762 158.42 16.264 158.42 14.4173ZM80.1971 14.4173V9.2031H77.8571V10.5066C77.0771 9.52898 75.9629 8.98584 74.5143 8.98584C71.5057 8.98584 69.1657 11.267 69.1657 14.4173C69.1657 17.5675 71.5057 19.8487 74.5143 19.8487C76.0743 19.8487 77.1886 19.3056 77.8571 18.3279V19.6315H80.1971V14.4173ZM71.5057 14.4173C71.5057 12.5706 72.7314 11.0498 74.7371 11.0498C76.6314 11.0498 77.9686 12.462 77.9686 14.4173C77.9686 16.264 76.6314 17.7848 74.7371 17.7848C72.7314 17.6762 71.5057 16.264 71.5057 14.4173Z" fill="black"/>
<path d="M29.2185 2.99463H16.7808V25.0057H29.2185V2.99463Z" fill="#FF5F00"/>
<path d="M17.5708 14C17.5708 9.52778 19.703 5.56111 22.9803 2.99444C20.5717 1.12778 17.5313 0 14.2146 0C6.35708 0 0 6.26111 0 14C0 21.7389 6.35708 28 14.2146 28C17.5313 28 20.5717 26.8722 22.9803 25.0056C19.703 22.4778 17.5708 18.4722 17.5708 14Z" fill="#EB001B"/>
<path d="M46.0003 14C46.0003 21.7389 39.6432 28 31.7857 28C28.4689 28 25.4286 26.8722 23.02 25.0056C26.3368 22.4389 28.4295 18.4722 28.4295 14C28.4295 9.52778 26.2973 5.56111 23.02 2.99444C25.4286 1.12778 28.4689 0 31.7857 0C39.6432 0 46.0003 6.3 46.0003 14Z" fill="#F79E1B"/>
</svg>
