<svg width="130" height="52" viewBox="0 0 130 52" fill="none" xmlns="http://www.w3.org/2000/svg">
<path fill-rule="evenodd" clip-rule="evenodd" d="M65.0799 21.6539C65.9598 21.5355 66.8467 21.4555 67.7337 21.3755C67.7302 22.3324 67.7337 23.2928 67.7337 24.2497C69.2061 24.2601 70.6785 24.2427 72.1509 24.2567C72.1579 24.7403 72.1544 25.2275 72.1544 25.7112C70.682 25.7112 69.2061 25.7077 67.7337 25.7147C67.7337 27.3466 67.7337 28.9786 67.7337 30.614C67.7442 31.2369 67.6986 31.898 67.9791 32.4722C68.214 32.9698 68.7328 33.2725 69.2692 33.3386C70.2122 33.45 71.1658 33.2934 72.0772 33.0568C72.2175 33.4952 72.3437 33.9371 72.4874 34.3756C71.2534 34.7931 69.9247 34.8593 68.6311 34.8245C67.6425 34.7479 66.5628 34.567 65.8441 33.8293C65.2341 33.2099 65.1114 32.3052 65.0869 31.477C65.0869 29.5562 65.0869 27.6354 65.0869 25.7147C64.3542 25.7147 63.625 25.7147 62.8958 25.7147C62.8958 25.2275 62.8923 24.7403 62.8958 24.2567C63.625 24.2532 64.3577 24.2567 65.0869 24.2567C65.0834 23.3867 65.0869 22.5203 65.0799 21.6539ZM5.47941 24.281C6.42595 23.9609 7.48468 23.9818 8.4207 24.3193C9.08678 24.5559 9.5916 25.1057 9.86855 25.7425C11.1061 24.9456 12.4803 24.3123 13.9457 24.0827C14.9588 24.0131 16.1052 24.0618 16.922 24.7438C17.5776 25.3702 17.6372 26.3306 17.6758 27.1796C17.6687 29.6571 17.6828 32.1381 17.6687 34.6192C16.8098 34.6261 15.9474 34.6261 15.0885 34.6192C15.0745 32.1068 15.085 29.598 15.0815 27.0856C15.0675 26.6507 14.9098 26.1635 14.5101 25.9339C14.0088 25.659 13.4058 25.6799 12.8554 25.7495C11.9054 25.9374 10.9553 26.2366 10.135 26.7655C10.1455 29.3857 10.1385 32.0059 10.135 34.6261C9.2831 34.6192 8.43121 34.6261 7.57933 34.6226C7.57582 32.1973 7.57582 29.7685 7.57582 27.3431C7.57232 26.8664 7.43209 26.3375 7.02543 26.0452C6.49607 25.6764 5.81596 25.6659 5.20246 25.739C4.25242 25.9095 3.32691 26.261 2.53462 26.8142C2.53462 29.417 2.53462 32.0198 2.53462 34.6226C1.68975 34.6226 0.844874 34.6226 0 34.6226C0 31.1673 0 27.7085 0 24.2532C0.844874 24.2532 1.68975 24.2497 2.53462 24.2532C2.54164 24.7264 2.53462 25.1962 2.54163 25.6694C3.46013 25.0953 4.44172 24.6116 5.47941 24.281ZM25.0798 24.1244C26.7976 23.9678 28.596 24.0409 30.2086 24.709C31.2709 25.1475 32.2279 25.9756 32.589 27.0891C32.873 27.8616 32.7573 28.6933 32.7783 29.4971C32.7573 30.2313 32.8554 30.9864 32.6241 31.6997C32.3191 32.7297 31.5093 33.5579 30.5487 34.0172C29.497 34.56 28.3015 34.7409 27.1306 34.821C25.6477 34.8697 24.1192 34.7688 22.7345 34.1946C21.7529 33.7875 20.8554 33.0672 20.4558 32.0651C20.0736 31.2299 20.1788 30.2974 20.1648 29.4101C20.1788 28.6585 20.0982 27.8825 20.3366 27.1552C20.582 26.3201 21.1639 25.6172 21.8861 25.1405C22.8361 24.5281 23.965 24.2462 25.0798 24.1244ZM26.3804 25.4919C25.3813 25.5163 24.291 25.659 23.5162 26.3445C22.9834 26.8038 22.7801 27.5276 22.7906 28.2061C22.7941 29.0378 22.7871 29.8729 22.7941 30.7045C22.8081 31.3378 22.9834 31.999 23.4496 32.4548C24.1192 33.1577 25.1394 33.356 26.0719 33.4013C27.1447 33.4361 28.3156 33.3456 29.2025 32.6845C29.8195 32.2286 30.107 31.4527 30.1035 30.708C30.1035 29.765 30.1175 28.8255 30.0965 27.8825C30.0824 27.2074 29.7704 26.5254 29.199 26.1427C28.3822 25.5789 27.3445 25.5059 26.3804 25.4919ZM37.9562 25.3006C39.66 24.5246 41.518 23.9539 43.4111 24.0688C44.3997 24.114 45.476 24.2949 46.2227 24.9944C46.8747 25.5894 47.0886 26.4976 47.1412 27.3431C47.1447 29.7685 47.1377 32.1973 47.1412 34.6226C46.2683 34.6226 45.3918 34.6226 44.5189 34.6226C44.5189 32.3678 44.5189 30.1164 44.5189 27.8616C44.4979 27.2909 44.4278 26.6646 44.0141 26.2297C43.5899 25.7877 42.9484 25.6625 42.3594 25.6137C40.8204 25.4398 39.2533 25.9026 37.9527 26.7168C37.9562 29.3509 37.9562 31.985 37.9492 34.6192C37.0693 34.6296 36.1894 34.6226 35.3094 34.6261C35.3059 31.1708 35.2989 27.712 35.3129 24.2567C36.1894 24.2601 37.0658 24.2427 37.9457 24.2671C37.9597 24.6081 37.9562 24.9561 37.9562 25.3006ZM51.1938 25.2623C52.3857 24.3089 53.9808 24.0827 55.4637 24.0583C56.9747 24.0479 58.5733 24.208 59.8809 25.0292C60.8555 25.6346 61.455 26.7377 61.4865 27.8721C61.4935 28.5854 61.4935 29.2987 61.483 30.0121C58.4716 30.019 55.4637 30.0121 52.4523 30.0155C52.4558 30.795 52.3506 31.6754 52.8765 32.3295C53.4339 33.0185 54.384 33.1646 55.2183 33.2342C57.1429 33.3978 59.0571 33.0011 60.9186 32.5661C61.0238 33.0846 61.1184 33.6031 61.2131 34.125C58.7275 34.7723 56.1018 35.068 53.5531 34.647C52.4453 34.4487 51.2954 34.0555 50.5382 33.1855C49.9878 32.5522 49.7319 31.7067 49.7389 30.8785C49.7424 30.0782 49.7389 29.2744 49.7389 28.474C49.7669 27.2701 50.2262 26.0278 51.1938 25.2623ZM53.1394 26.2366C52.4698 26.8734 52.4243 27.8616 52.4558 28.7246C54.6329 28.7246 56.8134 28.7246 58.9905 28.7246C59.0045 27.9277 59.05 27.03 58.4821 26.3897C57.8301 25.6903 56.8029 25.5267 55.8879 25.5267C54.9414 25.5093 53.8686 25.5615 53.1394 26.2366ZM74.4331 24.6986C76.5014 24.1697 78.6539 23.9748 80.7854 24.0896C81.7705 24.1871 82.8047 24.3437 83.639 24.9213C84.2525 25.3388 84.6382 26.0278 84.7644 26.7481C84.8801 27.2248 84.8415 27.719 84.845 28.2061C84.845 30.3461 84.845 32.4826 84.845 34.6226C83.9721 34.6226 83.0957 34.6226 82.2227 34.6226C82.2227 34.3756 82.2227 34.1285 82.2227 33.878C80.4383 34.8279 78.3104 35.0541 76.3332 34.6888C75.3516 34.5078 74.3349 33.9824 73.9388 33.0185C73.6092 32.1869 73.5496 31.1743 74.0334 30.3879C74.384 29.7963 75.015 29.4414 75.646 29.2117C76.6522 28.8707 77.7249 28.7872 78.7801 28.8116C79.9265 28.8116 81.0729 28.8116 82.2192 28.8116C82.1702 27.9938 82.3805 27.0996 81.9528 26.3514C81.5076 25.6416 80.5926 25.5094 79.8213 25.4746C78.1246 25.4537 76.4348 25.6938 74.7836 26.0696C74.6644 25.6137 74.5523 25.1544 74.4331 24.6986ZM76.7644 30.8611C76.1228 31.4561 76.3717 32.6323 77.129 33.0185C77.9002 33.4256 78.8047 33.3943 79.6531 33.363C80.533 33.2447 81.3919 32.9802 82.2227 32.6636C82.2122 31.8354 82.2227 31.0107 82.2192 30.186C81.0133 30.186 79.8073 30.1826 78.6013 30.1895C77.9458 30.2313 77.2552 30.4053 76.7644 30.8611ZM110.927 26.0452C111.818 24.8273 113.308 24.0409 114.829 24.0514C115.166 24.0479 115.506 24.0514 115.846 24.0514C115.951 24.6499 116.063 25.2449 116.158 25.8434C115.366 25.8643 114.559 25.7703 113.785 25.9791C112.799 26.2366 111.895 26.8038 111.271 27.6041C111.096 27.8581 110.92 28.1435 110.924 28.4601C110.917 30.5131 110.934 32.5627 110.913 34.6157C110.033 34.6192 109.154 34.6192 108.277 34.6122C108.281 31.1569 108.27 27.7016 108.284 24.2462C109.161 24.2462 110.04 24.2288 110.917 24.2567C110.938 24.8587 110.924 25.4537 110.927 26.0452ZM118.167 24.2532C119.043 24.2567 119.92 24.2358 120.799 24.2636C120.824 26.6124 120.796 28.9647 120.81 31.3135C120.849 31.9607 121.15 32.6357 121.743 32.9594C122.507 33.3874 123.425 33.3282 124.27 33.2516C125.36 33.0881 126.468 32.7784 127.383 32.1486C127.366 29.5179 127.376 26.8873 127.376 24.2567C128.249 24.2532 129.126 24.2567 129.998 24.2532C130.002 27.712 129.998 31.1673 129.998 34.6226C129.126 34.6226 128.249 34.6261 127.376 34.6226C127.38 34.2608 127.355 33.8989 127.397 33.5405C126.808 33.8571 126.174 34.0763 125.539 34.2747C124.232 34.6679 122.861 34.8975 121.494 34.8175C120.705 34.741 119.888 34.553 119.257 34.0485C118.517 33.4917 118.167 32.5487 118.163 31.6475C118.163 29.1839 118.149 26.7168 118.167 24.2532Z" fill="url(#paint0_linear_166_391)"/>
<path d="M99.8563 0H93.2866V49.0392H99.8563V0Z" fill="url(#paint1_linear_166_391)"/>
<path fill-rule="evenodd" clip-rule="evenodd" d="M93.4619 23.9121H99.5864C99.1026 24.5071 99.0535 25.1056 99.5864 25.7007H93.4619C93.8651 25.123 93.9352 24.528 93.4619 23.9121Z" fill="url(#paint2_linear_166_391)"/>
<path fill-rule="evenodd" clip-rule="evenodd" d="M93.4619 20.4604H99.5864C99.1026 21.0242 99.0535 21.5879 99.5864 22.1516H93.4619C93.8651 21.6053 93.9352 21.0416 93.4619 20.4604Z" fill="url(#paint3_linear_166_391)"/>
<path fill-rule="evenodd" clip-rule="evenodd" d="M93.4619 27.4097H99.5864C99.1026 28.0012 99.0535 28.5928 99.5864 29.1843H93.4619C93.8651 28.6102 93.9352 28.0221 93.4619 27.4097Z" fill="url(#paint4_linear_166_391)"/>
<path fill-rule="evenodd" clip-rule="evenodd" d="M93.4619 30.8545H99.5864C99.1026 31.4217 99.0535 31.9889 99.5864 32.5561H93.4619C93.8651 32.0063 93.9352 31.4426 93.4619 30.8545Z" fill="url(#paint5_linear_166_391)"/>
<path fill-rule="evenodd" clip-rule="evenodd" d="M93.4619 34.1494H99.5864C99.1026 34.6888 99.0535 35.2281 99.5864 35.7675H93.4619C93.8651 35.2455 93.9352 34.7062 93.4619 34.1494Z" fill="url(#paint6_linear_166_391)"/>
<path fill-rule="evenodd" clip-rule="evenodd" d="M93.4619 37.2427H99.5864C99.1026 37.7507 99.0535 38.2622 99.5864 38.7703H93.4619C93.8651 38.2761 93.9352 37.7681 93.4619 37.2427Z" fill="url(#paint7_linear_166_391)"/>
<path fill-rule="evenodd" clip-rule="evenodd" d="M93.4619 40.1523H99.5864C99.1026 40.6012 99.0535 41.0466 99.5864 41.4955H93.4619C93.8651 41.0605 93.9352 40.6151 93.4619 40.1523Z" fill="url(#paint8_linear_166_391)"/>
<path fill-rule="evenodd" clip-rule="evenodd" d="M93.4619 42.6987H99.5864C99.1026 43.1024 99.0535 43.506 99.5864 43.9131H93.4619C93.8651 43.5165 93.9352 43.1163 93.4619 42.6987Z" fill="url(#paint9_linear_166_391)"/>
<path fill-rule="evenodd" clip-rule="evenodd" d="M93.4619 44.9819H99.5864C99.1026 45.2777 99.0535 45.5735 99.5864 45.8692H93.4619C93.8651 45.5804 93.9352 45.2881 93.4619 44.9819Z" fill="url(#paint10_linear_166_391)"/>
<path fill-rule="evenodd" clip-rule="evenodd" d="M93.4619 46.7808H99.5864C99.1026 47.0104 99.0535 47.2401 99.5864 47.4732H93.4619C93.8651 47.2505 93.9352 47.0209 93.4619 46.7808Z" fill="url(#paint11_linear_166_391)"/>
<path fill-rule="evenodd" clip-rule="evenodd" d="M93.4619 48.1133H99.5864C99.1026 48.3012 99.0535 48.4891 99.5864 48.6735H93.4619C93.8651 48.4926 93.9352 48.3047 93.4619 48.1133Z" fill="url(#paint12_linear_166_391)"/>
<path fill-rule="evenodd" clip-rule="evenodd" d="M93.4619 13.8213H99.5864C99.1026 14.3432 99.0535 14.8652 99.5864 15.3871H93.4619C93.8651 14.8791 93.9352 14.3606 93.4619 13.8213Z" fill="url(#paint13_linear_166_391)"/>
<path fill-rule="evenodd" clip-rule="evenodd" d="M93.4619 17.0439H99.5864C99.1026 17.5903 99.0535 18.14 99.5864 18.6898H93.4619C93.8651 18.154 93.9352 17.6077 93.4619 17.0439Z" fill="url(#paint14_linear_166_391)"/>
<path fill-rule="evenodd" clip-rule="evenodd" d="M93.4619 10.7808H99.5864C99.1026 11.2714 99.0535 11.762 99.5864 12.2562H93.4619C93.8651 11.776 93.9352 11.2888 93.4619 10.7808Z" fill="url(#paint15_linear_166_391)"/>
<path fill-rule="evenodd" clip-rule="evenodd" d="M93.4619 8.02734H99.5864C99.1026 8.46926 99.0535 8.91467 99.5864 9.35659H93.4619C93.8651 8.9251 93.9352 8.48318 93.4619 8.02734Z" fill="url(#paint16_linear_166_391)"/>
<path fill-rule="evenodd" clip-rule="evenodd" d="M93.4619 0.0800781H99.5864C99.1026 0.139675 99.0535 0.202785 99.5864 0.262381H93.4619C93.8651 0.20629 93.9352 0.143181 93.4619 0.0800781Z" fill="url(#paint17_linear_166_391)"/>
<path fill-rule="evenodd" clip-rule="evenodd" d="M93.4619 0.681641H99.5864C99.1026 0.879983 99.0535 1.0818 99.5864 1.28015H93.4619C93.8651 1.08528 93.9352 0.886942 93.4619 0.681641Z" fill="url(#paint18_linear_166_391)"/>
<path fill-rule="evenodd" clip-rule="evenodd" d="M93.4619 1.90723H99.5864C99.1026 2.17168 99.0535 2.43614 99.5864 2.70408H93.4619C93.8651 2.44658 93.9352 2.18212 93.4619 1.90723Z" fill="url(#paint19_linear_166_391)"/>
<path fill-rule="evenodd" clip-rule="evenodd" d="M93.4619 3.53906H99.5864C99.1026 3.88355 99.0535 4.22805 99.5864 4.56906H93.4619C93.8651 4.23501 93.9352 3.89399 93.4619 3.53906Z" fill="url(#paint20_linear_166_391)"/>
<path fill-rule="evenodd" clip-rule="evenodd" d="M93.4619 5.58838H99.5864C99.1026 5.99898 99.0535 6.4061 99.5864 6.81322H93.4619C93.8651 6.41654 93.9352 6.00942 93.4619 5.58838Z" fill="url(#paint21_linear_166_391)"/>
<path d="M96.5715 49.0391H86.689V50.9703H96.5715V49.0391Z" fill="url(#paint22_linear_166_391)"/>
<path d="M106.458 49.0391H96.5752V50.939H106.458V49.0391Z" fill="url(#paint23_linear_166_391)"/>
<path d="M99.8563 49.0391H93.2866V52.0003H99.8563V49.0391Z" fill="url(#paint24_linear_166_391)"/>
<defs>
<linearGradient id="paint0_linear_166_391" x1="64.9963" y1="21.3763" x2="64.9963" y2="34.8547" gradientUnits="userSpaceOnUse">
<stop stop-color="#1B8ACB"/>
<stop offset="1" stop-color="#23BCE9"/>
</linearGradient>
<linearGradient id="paint1_linear_166_391" x1="96.5736" y1="0.981584" x2="96.5736" y2="48.0588" gradientUnits="userSpaceOnUse">
<stop stop-color="#DC9E1E"/>
<stop offset="0.28" stop-color="#F8E923"/>
<stop offset="0.59" stop-color="#F8E723"/>
<stop offset="1" stop-color="#B5871D"/>
</linearGradient>
<linearGradient id="paint2_linear_166_391" x1="96.5254" y1="23.9496" x2="96.5254" y2="25.6656" gradientUnits="userSpaceOnUse">
<stop stop-color="#DAA525"/>
<stop offset="0.75" stop-color="#F2E620"/>
<stop offset="1" stop-color="#F2E626"/>
</linearGradient>
<linearGradient id="paint3_linear_166_391" x1="96.5254" y1="20.4956" x2="96.5254" y2="22.1184" gradientUnits="userSpaceOnUse">
<stop stop-color="#DAA525"/>
<stop offset="0.75" stop-color="#F2E620"/>
<stop offset="1" stop-color="#F2E626"/>
</linearGradient>
<linearGradient id="paint4_linear_166_391" x1="96.5254" y1="27.4467" x2="96.5254" y2="29.1503" gradientUnits="userSpaceOnUse">
<stop stop-color="#DAA525"/>
<stop offset="0.75" stop-color="#F2E620"/>
<stop offset="1" stop-color="#F2E626"/>
</linearGradient>
<linearGradient id="paint5_linear_166_391" x1="96.5254" y1="30.8902" x2="96.5254" y2="32.5247" gradientUnits="userSpaceOnUse">
<stop stop-color="#DAA525"/>
<stop offset="0.75" stop-color="#F2E620"/>
<stop offset="1" stop-color="#F2E626"/>
</linearGradient>
<linearGradient id="paint6_linear_166_391" x1="96.5254" y1="34.1831" x2="96.5254" y2="35.7363" gradientUnits="userSpaceOnUse">
<stop stop-color="#DAA525"/>
<stop offset="0.75" stop-color="#F2E620"/>
<stop offset="1" stop-color="#F2E626"/>
</linearGradient>
<linearGradient id="paint7_linear_166_391" x1="96.5254" y1="37.2735" x2="96.5254" y2="38.739" gradientUnits="userSpaceOnUse">
<stop stop-color="#DAA525"/>
<stop offset="0.75" stop-color="#F2E620"/>
<stop offset="1" stop-color="#F2E626"/>
</linearGradient>
<linearGradient id="paint8_linear_166_391" x1="96.5254" y1="40.1804" x2="96.5254" y2="41.4706" gradientUnits="userSpaceOnUse">
<stop stop-color="#DAA525"/>
<stop offset="0.75" stop-color="#F2E620"/>
<stop offset="1" stop-color="#F2E626"/>
</linearGradient>
<linearGradient id="paint9_linear_166_391" x1="96.5254" y1="42.7216" x2="96.5254" y2="43.8866" gradientUnits="userSpaceOnUse">
<stop stop-color="#DAA525"/>
<stop offset="0.75" stop-color="#F2E620"/>
<stop offset="1" stop-color="#F2E626"/>
</linearGradient>
<linearGradient id="paint10_linear_166_391" x1="96.5254" y1="44.9991" x2="96.5254" y2="45.851" gradientUnits="userSpaceOnUse">
<stop stop-color="#DAA525"/>
<stop offset="0.75" stop-color="#F2E620"/>
<stop offset="1" stop-color="#F2E626"/>
</linearGradient>
<linearGradient id="paint11_linear_166_391" x1="96.5254" y1="46.7958" x2="96.5254" y2="47.4598" gradientUnits="userSpaceOnUse">
<stop stop-color="#DAA525"/>
<stop offset="0.75" stop-color="#F2E620"/>
<stop offset="1" stop-color="#F2E626"/>
</linearGradient>
<linearGradient id="paint12_linear_166_391" x1="96.5254" y1="48.124" x2="96.5254" y2="48.6626" gradientUnits="userSpaceOnUse">
<stop stop-color="#DAA525"/>
<stop offset="0.75" stop-color="#F2E620"/>
<stop offset="1" stop-color="#F2E626"/>
</linearGradient>
<linearGradient id="paint13_linear_166_391" x1="96.5254" y1="13.8519" x2="96.5254" y2="15.355" gradientUnits="userSpaceOnUse">
<stop stop-color="#DAA525"/>
<stop offset="0.75" stop-color="#F2E620"/>
<stop offset="1" stop-color="#F2E626"/>
</linearGradient>
<linearGradient id="paint14_linear_166_391" x1="96.5254" y1="17.077" x2="96.5254" y2="18.6552" gradientUnits="userSpaceOnUse">
<stop stop-color="#DAA525"/>
<stop offset="0.75" stop-color="#F2E620"/>
<stop offset="1" stop-color="#F2E626"/>
</linearGradient>
<linearGradient id="paint15_linear_166_391" x1="96.5254" y1="10.8104" x2="96.5254" y2="12.226" gradientUnits="userSpaceOnUse">
<stop stop-color="#DAA525"/>
<stop offset="0.75" stop-color="#F2E620"/>
<stop offset="1" stop-color="#F2E626"/>
</linearGradient>
<linearGradient id="paint16_linear_166_391" x1="96.5254" y1="8.0533" x2="96.5254" y2="9.33097" gradientUnits="userSpaceOnUse">
<stop stop-color="#DAA525"/>
<stop offset="0.75" stop-color="#F2E620"/>
<stop offset="1" stop-color="#F2E626"/>
</linearGradient>
<linearGradient id="paint17_linear_166_391" x1="96.5254" y1="0.0839345" x2="96.5254" y2="0.260629" gradientUnits="userSpaceOnUse">
<stop stop-color="#DAA525"/>
<stop offset="0.75" stop-color="#F2E620"/>
<stop offset="1" stop-color="#F2E626"/>
</linearGradient>
<linearGradient id="paint18_linear_166_391" x1="96.5254" y1="0.692149" x2="96.5254" y2="1.26828" gradientUnits="userSpaceOnUse">
<stop stop-color="#DAA525"/>
<stop offset="0.75" stop-color="#F2E620"/>
<stop offset="1" stop-color="#F2E626"/>
</linearGradient>
<linearGradient id="paint19_linear_166_391" x1="96.5254" y1="1.92334" x2="96.5254" y2="2.68724" gradientUnits="userSpaceOnUse">
<stop stop-color="#DAA525"/>
<stop offset="0.75" stop-color="#F2E620"/>
<stop offset="1" stop-color="#F2E626"/>
</linearGradient>
<linearGradient id="paint20_linear_166_391" x1="96.5254" y1="3.55897" x2="96.5254" y2="4.54856" gradientUnits="userSpaceOnUse">
<stop stop-color="#DAA525"/>
<stop offset="0.75" stop-color="#F2E620"/>
<stop offset="1" stop-color="#F2E626"/>
</linearGradient>
<linearGradient id="paint21_linear_166_391" x1="96.5254" y1="5.61134" x2="96.5254" y2="6.78883" gradientUnits="userSpaceOnUse">
<stop stop-color="#DAA525"/>
<stop offset="0.75" stop-color="#F2E620"/>
<stop offset="1" stop-color="#F2E626"/>
</linearGradient>
<linearGradient id="paint22_linear_166_391" x1="91.9899" y1="48.8432" x2="91.2831" y2="51.1692" gradientUnits="userSpaceOnUse">
<stop stop-color="#DBD5D7"/>
<stop offset="0.8" stop-color="white"/>
<stop offset="1" stop-color="white"/>
</linearGradient>
<linearGradient id="paint23_linear_166_391" x1="101.131" y1="48.7779" x2="101.891" y2="51.2043" gradientUnits="userSpaceOnUse">
<stop stop-color="#DBD5D7"/>
<stop offset="0.8" stop-color="white"/>
<stop offset="1" stop-color="white"/>
</linearGradient>
<linearGradient id="paint24_linear_166_391" x1="96.5736" y1="49.0987" x2="96.5736" y2="51.9417" gradientUnits="userSpaceOnUse">
<stop stop-color="#D9B881"/>
<stop offset="1" stop-color="white"/>
</linearGradient>
</defs>
</svg>
