<svg width="120" height="52" viewBox="0 0 120 52" fill="none" xmlns="http://www.w3.org/2000/svg">
<path d="M48.4919 50.1954C48.2634 49.5671 47.8493 49.1387 47.5494 48.5818C46.8212 47.6251 45.9644 46.7969 45.1076 45.9687C44.8078 45.8687 44.6793 45.5832 44.3937 45.4689C44.208 45.2262 43.9082 45.0977 43.6654 44.912C43.1799 44.5408 42.6516 44.2266 42.109 43.9125C41.0808 43.2556 39.81 42.8415 38.5534 42.4131C37.1968 42.0847 35.7689 41.8419 34.2838 41.642C32.813 41.4278 31.3423 41.2279 30.2285 40.6425C29.5859 40.4568 29.1147 40.0998 28.5578 39.8143C28.0437 39.4716 27.4868 39.186 27.0584 38.7576C26.5301 38.4434 26.2017 37.9151 25.7876 37.4867C25.6448 37.2011 25.402 37.0298 25.2878 36.7156C25.145 36.6585 25.1022 36.4871 25.0165 36.3872C24.9165 36.273 24.9165 36.0445 24.7452 36.0016C24.6595 36.5871 24.688 37.2868 24.7452 37.8865C24.8166 38.1436 24.8451 38.4577 24.9165 38.7147C24.9594 38.9432 25.1735 39.3145 25.0879 39.4858C20.6327 39.2574 17.377 37.8437 14.5496 35.9874C13.1503 35.0592 11.9508 33.9311 10.837 32.7174C10.3515 32.0462 9.82315 31.4037 9.39477 30.6611C8.95211 29.9329 8.58084 29.1047 8.18102 28.3336C7.52417 26.6629 6.91015 24.9494 6.68168 22.8503C6.38181 20.894 6.45321 18.3951 6.89587 16.5816C7.05294 15.5821 7.38137 14.7396 7.66696 13.8685C7.85259 13.4687 8.0525 13.0689 8.22386 12.6548C8.46661 12.3121 8.59512 11.8408 8.89499 11.541C9.70892 10.0131 10.9227 8.87072 12.165 7.77121C13.5072 6.78593 15.0351 5.98628 16.8772 5.50078C18.6478 5.10095 21.0611 5.02955 22.9745 5.44366C26.8585 6.24331 29.7858 7.9854 32.2419 10.213C34.7265 12.3977 36.6399 15.168 37.9536 18.5379C39.3102 21.7365 39.7814 26.72 38.5677 30.347C38.0679 30.0614 37.5681 29.7901 37.0683 29.5188C36.4686 29.3474 35.8831 29.1475 35.1834 29.0761C34.3409 29.0618 33.5127 29.0761 32.9701 29.3474C34.0696 29.2332 34.955 29.5331 35.6404 29.7901C36.0402 29.9472 36.2687 30.0471 36.5828 30.2328C37.1968 30.5897 37.7394 30.9182 38.1964 31.4037C39.4958 32.546 40.424 34.0596 40.8666 36.0588C40.8666 36.1159 40.938 36.1016 40.9238 36.0016C40.9809 35.9874 41.0094 35.9445 41.038 35.8874C41.1094 35.8017 41.1951 35.7161 41.2665 35.6161C41.4093 35.4448 41.5521 35.2734 41.652 35.0592C41.9519 34.7022 42.1946 34.3024 42.4231 33.8883C42.9514 33.1172 43.3513 32.2319 43.8082 31.3894C44.5936 29.5902 45.2362 27.6482 45.636 25.4491C46.4356 20.5656 45.4789 15.939 43.8082 12.5263C42.0947 9.08491 39.6957 6.32898 36.5971 4.25847C33.4699 2.20223 29.8144 0.688606 24.788 0.545812C24.7594 0.445856 24.7166 0.560091 24.6166 0.545812C21.9607 0.460135 19.8188 0.831401 17.6911 1.37402C16.7058 1.70245 15.6777 1.98803 14.8067 2.4307C13.8071 2.75912 13.0075 3.30174 12.0936 3.70157C11.7652 4.01571 11.2654 4.17279 10.9227 4.47266C10.48 4.68685 10.1516 5.02955 9.70892 5.24375C8.99495 5.87204 8.23814 6.42894 7.53844 7.07151C6.85303 7.69981 6.2533 8.41378 5.59644 9.07063C5.49649 9.29911 5.32513 9.45618 5.15378 9.62753C5.03954 9.84172 4.89675 10.0274 4.71112 10.1844C4.63972 10.4415 4.41125 10.5414 4.32557 10.7984C4.13994 10.9412 4.0971 11.2268 3.88291 11.3553C3.69728 11.8123 3.36885 12.1407 3.15466 12.5691C2.89763 12.9832 2.69772 13.4401 2.44069 13.84C2.04086 14.7681 1.61248 15.6677 1.28405 16.6673C0.941346 17.6383 0.655757 18.6664 0.455845 19.7802C0.241653 20.8226 0.0417412 22.1792 0.0703001 23.2787C-0.0724943 23.6785 0.0417412 24.421 0.0703001 24.8922C0.0703001 24.9779 0.0131823 25.0065 0.0131823 25.0636C0.0131823 25.5919 0.155977 26.2345 0.184536 26.5629C0.298771 27.7767 0.512963 28.9048 0.855669 29.8901C1.06986 30.9896 1.5268 31.8463 1.85523 32.8316C2.35501 33.6598 2.69772 34.6451 3.29745 35.3876C3.74012 36.2587 4.36841 36.9441 4.96815 37.6581C5.61072 38.3435 6.2533 39.0432 7.02438 39.6001C8.43805 40.8281 10.0945 41.8134 11.908 42.6559C15.2922 44.298 20.3471 45.369 24.888 45.0977C26.0446 44.9406 27.2155 44.7978 28.2722 44.5408C29.2432 44.1838 30.3713 43.9696 31.5422 43.8268C34.2124 43.6554 36.5257 43.8982 38.5819 44.4979C40.6667 45.0548 42.4659 45.8973 44.0224 46.9968C44.8506 47.4823 45.536 48.1106 46.2357 48.7104C46.9497 49.3244 47.5209 50.0812 48.1777 50.7666C48.2634 51.0236 48.4347 51.2093 48.5633 51.4377C48.7346 51.6234 48.6489 52.0517 49.063 51.9946C49.3201 51.7376 49.0202 51.3663 49.0059 51.0522C48.7489 50.7809 48.6918 50.4239 48.4919 50.1954Z" fill="#FCB316"/>
<path d="M38.1248 35.002C38.0677 35.002 38.0534 35.0448 38.0106 35.0591C37.9106 35.2733 37.9534 35.616 38.0106 35.8302C38.3104 36.4442 38.4104 37.2439 39.0672 37.5009C39.3814 37.4009 39.3528 36.944 39.3385 36.5013C39.1957 35.9587 38.9958 35.4732 38.6674 35.1162C38.4389 35.0305 38.2819 34.8878 38.1248 35.002ZM34.2408 36.5584C34.2408 36.5299 34.1979 36.5013 34.1837 36.5584C33.641 36.487 33.4554 36.7869 33.1841 37.0011C32.7129 38.2434 33.4697 39.4572 34.7977 39.4429C35.326 39.3144 35.6544 38.9717 35.7401 38.3862C35.6687 37.3438 35.2261 36.6727 34.2408 36.5584Z" fill="#FCB316"/>
<path d="M66.2555 32.6035C66.4697 33.5031 66.9267 34.1457 67.4407 34.7454C67.9548 35.3452 68.5545 35.8449 69.2828 36.2162C69.9682 36.6446 70.7107 37.0016 71.5675 37.2443C71.9816 37.3871 72.3814 37.5585 72.8955 37.6156C73.2525 37.8155 73.6808 37.9155 73.7094 38.4295C73.6951 39.0435 73.281 39.272 72.7527 39.3863C72.2243 39.272 71.5675 39.2863 71.1248 39.0864C70.011 38.9579 69.1114 38.6009 68.169 38.2725C66.3698 37.5728 64.8561 36.5589 63.5996 35.3166C63.3425 34.8882 62.9855 34.5455 62.7142 34.1314C62.4429 33.7173 62.2573 33.2175 61.9717 32.8034C59.7727 32.5178 58.2733 31.5183 56.9596 30.3616C55.7459 28.9765 54.7749 27.3201 54.375 25.1211C53.9038 23.0077 54.0466 20.366 54.6035 18.3241C55.8173 14.3687 58.359 11.7413 63.1569 11.3843C64.4849 11.4271 65.6415 11.5842 66.6982 11.984C67.7692 12.3696 68.783 13.0835 69.5826 13.8261C69.654 13.8832 69.6826 13.8975 69.7254 13.9689C69.8968 14.2116 70.3109 14.5543 70.5394 14.8542C70.5822 14.9113 70.5679 15.0113 70.6108 15.0827C70.6964 15.2112 70.825 15.2683 70.9106 15.3825C70.9535 15.4539 70.9392 15.5396 70.982 15.5967C71.0391 15.6824 71.1105 15.8109 71.1962 15.968C71.2248 16.0251 71.3247 16.0679 71.339 16.1108C71.4675 16.3535 71.5246 16.6534 71.6389 16.9247C71.7531 17.2103 71.9102 17.453 72.0101 17.7386C72.2957 18.5811 72.4814 19.5807 72.5956 20.6088C72.8812 23.5789 72.2957 26.2349 71.1962 28.2055C70.6822 29.2336 69.9682 30.0761 69.1257 30.79C68.3546 31.604 67.2979 32.0895 66.2555 32.6035ZM62.7142 14.0117C62.0717 14.0545 61.6861 14.3544 61.1578 14.5258C60.8151 14.8399 60.3867 15.0827 60.1297 15.4825C59.7013 15.7252 59.587 16.2678 59.2443 16.582C58.9587 17.296 58.6874 18.0956 58.5018 19.0238C58.3304 19.9377 58.2162 20.9658 58.2019 21.9796C58.1877 24.5214 58.7303 27.0488 59.7441 28.5482C60.3438 29.2764 61.0721 29.8761 61.9574 30.3188C62.4715 30.3616 62.8713 30.533 63.4282 30.5473C63.7424 30.433 64.2564 30.5473 64.4563 30.3188C64.9133 30.3474 65.0132 30.0475 65.413 30.0189C65.6272 29.8047 65.8557 29.6334 66.1556 29.5049C66.4269 29.205 66.6839 28.9051 66.9695 28.6196C67.1123 28.4054 67.198 28.1055 67.4122 27.9484C68.6973 25.4924 68.8401 20.9943 67.9976 18.1385C67.6835 17.0961 67.2408 16.2536 66.741 15.5539C66.1984 14.997 65.5558 14.5258 64.8276 14.1545C64.2421 14.026 63.6852 13.8689 62.9141 13.9403C62.8713 13.9403 62.8285 13.9546 62.8427 14.0117C62.8142 14.0117 62.7714 14.0117 62.7142 14.0117ZM78.2931 11.9412C79.4497 11.984 80.8063 11.8412 81.8344 12.0126C82.0629 12.3696 81.9772 12.7979 81.9772 13.1978C82.0629 18.6097 81.9772 24.4214 81.9772 29.9475C81.9772 30.3902 81.9915 30.8471 81.9772 31.2755C81.9629 31.6468 82.0629 32.0466 81.8344 32.3893C81.3203 32.5178 80.5778 32.4607 79.9209 32.4607C79.2213 32.4607 78.5359 32.5607 78.0789 32.3179C77.9504 25.7779 77.9504 18.7239 78.0789 12.1696C78.1075 12.0554 78.1789 11.984 78.2931 11.9412ZM87.1464 11.9412H90.6163C90.9304 12.3696 91.0303 13.0121 91.1303 13.6404C92.1727 17.6101 93.2008 21.5941 94.1576 25.6637C94.386 25.6923 94.3146 25.421 94.386 25.2924C94.486 25.1925 94.4289 24.9497 94.5288 24.8498C94.5717 24.5214 94.7716 24.35 94.7573 23.9645C95.0143 23.4647 95.1 22.7793 95.3427 22.2652C95.6426 21.0657 96.0424 19.9519 96.3851 18.7953C96.7136 17.5958 97.1562 16.5106 97.4133 15.254C97.8988 14.2402 98.013 12.8551 98.5985 11.9412H100.069C100.598 12.9407 100.797 14.2687 101.254 15.3397C101.554 16.5392 101.968 17.6244 102.283 18.8096C103.011 21.1086 103.768 23.379 104.424 25.7494C104.724 25.3067 104.724 24.5642 104.939 24.0501C105.067 23.4647 105.181 22.8649 105.381 22.3509C105.952 20.0091 106.495 17.653 107.152 15.4111C107.395 14.2402 107.637 13.0407 108.037 12.0126C108.894 11.8841 110.208 11.8841 111.064 12.0126C111.136 12.8836 110.736 13.8261 110.479 14.5972C110.336 15.5396 109.993 16.2678 109.808 17.1817C109.279 18.8524 108.88 20.6231 108.337 22.2795C107.923 24.0501 107.366 25.678 106.938 27.4486C106.652 28.2626 106.452 29.1622 106.195 30.0332C105.91 30.8329 105.81 31.8182 105.381 32.475H103.311C102.782 31.5468 102.597 30.2903 102.125 29.305C101.097 26.0493 99.955 22.9221 98.9554 19.6378C98.6127 19.9948 98.6127 20.723 98.37 21.18C98.2129 21.7369 98.0558 22.2938 97.8559 22.8078C97.5703 23.9359 97.142 24.8926 96.8992 26.0493C96.4851 27.0631 96.1852 28.1912 95.8711 29.305C95.4427 30.276 95.2856 31.5183 94.7573 32.4036C94.2147 32.575 93.3579 32.4322 92.6868 32.475C92.1727 31.8895 92.1156 30.8329 91.8014 30.0332C91.5587 29.205 91.3873 28.2911 91.0732 27.52C90.6734 25.7208 90.0736 24.1358 89.6738 22.3509C89.1455 20.6945 88.6885 18.9667 88.203 17.2531C87.9317 16.4392 87.7318 15.5682 87.4605 14.7399C87.332 13.8546 86.7322 13.055 86.9464 12.084C86.975 12.0126 87.0607 11.9697 87.1464 11.9412ZM116.291 11.9412C117.447 11.984 118.79 11.8412 119.832 12.0126C120.089 12.7837 119.975 13.6119 119.975 14.4401V29.9333C119.975 30.7757 120.075 31.5897 119.832 32.375C119.032 32.4607 117.861 32.5036 116.876 32.4464C116.591 32.4322 116.248 32.5178 116.062 32.3036C115.805 31.5326 115.919 30.7186 115.919 29.8619V14.5258C115.919 13.5976 115.834 12.698 116.062 12.084C116.119 12.0126 116.205 11.9697 116.291 11.9412Z" fill="#0269B3"/>
</svg>
