<svg display="none" xmlns="http://www.w3.org/2000/svg">

	<symbol id="plus" viewBox="0 0 11 11">
		<path d="M5.5 9.66663L5.5 1.33329" stroke-width="2" stroke-linecap="square" />
		<path d="M9.6665 5.5L1.33317 5.5" stroke-width="2" stroke-linecap="square" />
	</symbol>

	<symbol id="phone" viewBox="0 0 20 13">
		<path fill-rule="evenodd" clip-rule="evenodd"
			d="M9.67456 0.00353311C9.63598 0.00557389 9.45787 0.0140936 9.27876 0.0224648C6.38213 0.15779 4.20625 0.580856 2.78645 1.2848C2.22878 1.56128 1.57688 1.99891 1.11907 2.4041C0.46285 2.98491 0.0998139 3.56188 0.0157859 4.15755C-0.0103463 4.34277 -0.00619803 4.40296 0.0446136 4.57638C0.229674 5.20798 0.535756 5.59285 0.940404 5.70276C1.03785 5.72923 1.20227 5.74644 1.27739 5.73803C1.31811 5.73348 1.94546 5.52463 3.1966 5.09911C4.2189 4.75143 5.07629 4.45804 5.10192 4.44713C5.22489 4.39481 5.3639 4.27941 5.40868 4.1925C5.48066 4.05279 5.47822 3.89215 5.40111 3.69446C5.37182 3.61938 5.35742 3.59953 5.22868 3.45694C4.9221 3.1174 4.77682 2.88829 4.76274 2.72221C4.75525 2.63392 4.78024 2.57798 4.84657 2.53454C4.94741 2.46851 4.51356 2.47337 10.0353 2.47637C14.837 2.47898 15.0374 2.4798 15.0888 2.49709C15.1194 2.50737 15.1612 2.53226 15.1864 2.55517C15.2586 2.62095 15.2683 2.69598 15.2217 2.82826C15.1629 2.99527 15.0127 3.20558 14.746 3.49452C14.6696 3.57727 14.6437 3.61339 14.6191 3.67111C14.4701 4.02075 14.5561 4.27625 14.875 4.43121C15.0015 4.49273 18.6416 5.72892 18.723 5.73803C18.7983 5.74646 18.9629 5.72919 19.0593 5.70278C19.29 5.63958 19.503 5.47815 19.6596 5.24794C19.8222 5.00878 20.0005 4.53712 20 4.34729C19.9994 4.1126 19.92 3.79909 19.7953 3.5391C19.466 2.85267 18.723 2.15479 17.6252 1.50092C16.2813 0.700469 14.1804 0.220787 11.2577 0.0470235C10.6736 0.0123005 9.90688 -0.0087611 9.67456 0.00353311ZM6.64124 3.65551L6.63849 4.37127L6.60624 4.43856C6.51734 4.62413 6.33543 4.77281 5.9972 4.93637C5.66697 5.09604 5.25706 5.2345 4.73645 5.36219C4.53203 5.41233 4.48349 5.43007 4.28378 5.52751C3.49133 5.91419 2.96276 6.5116 2.69684 7.32109C2.60102 7.61278 2.54483 7.89649 2.50802 8.27451C2.49212 8.4377 2.49063 8.64564 2.49042 10.7264L2.49019 13H10.0002H17.5102L17.5131 10.9493C17.5159 8.96501 17.5105 8.43971 17.4848 8.19525C17.4319 7.69253 17.3159 7.27102 17.1247 6.88757C16.8282 6.29302 16.3847 5.85821 15.7517 5.54171C15.5292 5.43044 15.4861 5.41434 15.2707 5.36189C14.7421 5.23313 14.2863 5.07853 13.9732 4.92177C13.6525 4.76127 13.4797 4.61719 13.3944 4.43915L13.3619 4.37127L13.3592 3.65551L13.3564 2.93975H12.7204H12.0844V3.26667V3.59359H10.0052H7.92606V3.26667V2.93975H7.28503H6.64401L6.64124 3.65551ZM10.2568 4.87185C11.1659 4.94364 11.9419 5.3195 12.5586 5.98666C13.079 6.54974 13.3659 7.15872 13.4638 7.90796C13.4896 8.10553 13.4896 8.61206 13.4638 8.80947C13.417 9.16689 13.3354 9.46684 13.202 9.77167C12.8682 10.5344 12.1607 11.2339 11.3892 11.5639C11.0791 11.6966 10.7459 11.7842 10.386 11.8276C10.213 11.8485 9.66049 11.8457 9.48919 11.8231C8.64159 11.7111 7.96268 11.36 7.35147 10.7173C6.95548 10.301 6.68098 9.81428 6.53807 9.27508C6.38973 8.71547 6.38609 8.05148 6.52823 7.48146C6.6752 6.89203 6.9679 6.38291 7.43 5.91296C8.04338 5.28915 8.77767 4.94216 9.6311 4.87282C9.78184 4.86057 10.1076 4.86007 10.2568 4.87185ZM9.93258 5.09461C9.84488 5.11346 9.77554 5.153 9.6985 5.22813C9.59381 5.33023 9.54931 5.43691 9.54931 5.58575C9.54931 5.73439 9.59493 5.83746 9.70783 5.94394C9.81046 6.04072 9.93628 6.08695 10.0703 6.07712C10.2247 6.06581 10.3352 6.00697 10.4282 5.88666C10.5019 5.79117 10.5235 5.73173 10.529 5.60842C10.536 5.45062 10.4955 5.34153 10.3892 5.23208C10.2666 5.1059 10.1057 5.05744 9.93258 5.09461ZM8.27788 5.63022C8.08852 5.68057 7.94317 5.8471 7.91399 6.04716C7.89891 6.15052 7.91196 6.22599 7.96254 6.32784C8.08253 6.56947 8.37135 6.66951 8.61096 6.55242C8.69474 6.51149 8.79705 6.42384 8.83419 6.3612C8.92234 6.21247 8.92009 6.00298 8.82865 5.84643C8.78658 5.77439 8.70736 5.69227 8.6509 5.66216C8.56637 5.61707 8.38554 5.60159 8.27788 5.63022ZM11.5486 5.62559C11.4598 5.63837 11.3941 5.67482 11.3203 5.75216C11.1998 5.87843 11.1596 6.00209 11.1808 6.18113C11.1991 6.33532 11.2319 6.39027 11.3621 6.48576C11.499 6.58608 11.5959 6.61327 11.7517 6.59511C11.9039 6.57739 11.9578 6.54574 12.0537 6.41779C12.1563 6.28096 12.1856 6.17676 12.165 6.02127C12.1493 5.90264 12.1213 5.84636 12.039 5.7676C11.9035 5.63793 11.7572 5.59556 11.5486 5.62559ZM9.74971 6.38893C9.20312 6.43984 8.70708 6.71828 8.36725 7.16496C8.09213 7.52657 7.95951 7.95877 7.97963 8.42806C8.00212 8.95249 8.18839 9.37244 8.56192 9.7408C8.97086 10.1441 9.43636 10.325 10.0202 10.3074C10.3266 10.2982 10.5473 10.2485 10.7968 10.1326C11.3456 9.87753 11.7769 9.34137 11.893 8.76984C11.9566 8.45679 11.9439 8.08276 11.8596 7.78676C11.7144 7.27649 11.3292 6.82169 10.8352 6.57705C10.5208 6.42138 10.1295 6.35357 9.74971 6.38893ZM7.28705 6.99602C7.06365 7.0495 6.894 7.25779 6.894 7.47858C6.894 7.54995 6.93188 7.67078 6.97894 7.74945C7.07245 7.90583 7.26495 7.99223 7.45788 7.96444C7.66532 7.93455 7.82969 7.79372 7.88226 7.60085C7.91499 7.48079 7.89108 7.31769 7.82587 7.21607C7.71506 7.04341 7.48372 6.94893 7.28705 6.99602ZM12.5545 6.99984C12.3422 7.05464 12.1849 7.25469 12.1831 7.47231C12.1816 7.64601 12.2599 7.79749 12.3956 7.88359C12.565 7.99104 12.7853 7.99157 12.9522 7.88494C13.0545 7.81958 13.1257 7.71533 13.1618 7.5783C13.2267 7.3319 13.0495 7.05862 12.7848 6.99694C12.7025 6.97774 12.6369 6.97857 12.5545 6.99984ZM7.33891 8.68599C7.23628 8.70009 7.12543 8.74918 7.05694 8.81085C6.9733 8.88618 6.894 9.06313 6.894 9.17445C6.894 9.34801 7.01015 9.52924 7.17304 9.60981C7.26665 9.6561 7.33788 9.66985 7.45522 9.66427C7.53595 9.66042 7.56058 9.65496 7.61558 9.62871C7.69877 9.58901 7.76374 9.53314 7.81503 9.4572C7.9381 9.27497 7.92152 9.00009 7.77791 8.84211C7.67638 8.7304 7.49225 8.66493 7.33891 8.68599ZM12.6128 8.68591C12.4401 8.70695 12.2738 8.8337 12.215 8.98903C12.1436 9.17776 12.1913 9.38977 12.3348 9.52112C12.448 9.62474 12.6134 9.67913 12.7496 9.65756C12.9847 9.62035 13.1759 9.40664 13.1764 9.18057C13.1767 9.06387 13.1106 8.90118 13.0311 8.82272C12.9286 8.72167 12.7633 8.66757 12.6128 8.68591ZM8.31183 10.0629C8.09213 10.1065 7.92584 10.2842 7.90889 10.4936C7.90229 10.575 7.92891 10.7157 7.96237 10.7764C8.02433 10.889 8.16556 10.9937 8.29601 11.0238C8.35613 11.0377 8.5142 11.0322 8.58844 11.0136C8.65369 10.9973 8.71865 10.9453 8.78878 10.8531C8.8948 10.7138 8.92131 10.6333 8.90642 10.4959C8.87489 10.2049 8.60108 10.0055 8.31183 10.0629ZM11.5483 10.0667C11.4132 10.1 11.2806 10.2045 11.2245 10.3222C11.1277 10.5251 11.1669 10.7364 11.3326 10.9049C11.4103 10.9839 11.4587 11.0103 11.5504 11.0234C11.7607 11.0535 11.9074 11.0098 12.034 10.8795C12.1901 10.7188 12.2174 10.4966 12.1048 10.3038C12.0628 10.2319 11.9745 10.1407 11.9166 10.1096C11.8164 10.0557 11.665 10.0381 11.5483 10.0667ZM9.94117 10.5786C9.80279 10.6055 9.65932 10.7218 9.59202 10.8616C9.55735 10.9336 9.55431 10.9473 9.55085 11.0455C9.54495 11.2134 9.58789 11.323 9.70201 11.4311C9.92363 11.6412 10.2872 11.6001 10.4532 11.3461C10.5145 11.2524 10.5347 11.1719 10.5293 11.0428C10.525 10.9403 10.5227 10.9308 10.4829 10.8514C10.3776 10.6412 10.1664 10.5349 9.94117 10.5786Z" />
	</symbol>

	<symbol id="mail" viewBox="0 0 16 10">
		<path fill-rule="evenodd" clip-rule="evenodd"
			d="M0.82532 0.0376042C0.63229 0.0817453 0.323489 0.224253 0.241967 0.306804L0.179571 0.369984L0.345183 0.504474C0.436282 0.578428 0.734163 0.821782 1.00717 1.04524C2.08146 1.92462 3.60678 3.1717 4.18815 3.64598C4.52451 3.92036 4.86613 4.20066 4.9473 4.26889C5.46864 4.70699 7.49824 6.36118 7.58295 6.41703C7.70757 6.49919 7.93552 6.5084 8.07888 6.43703C8.15529 6.39901 8.41828 6.20208 8.91991 5.80732C9.80976 5.10704 10.5433 4.52784 11.65 3.65166C12.9744 2.60305 13.1769 2.44238 14.2048 1.62481C14.4778 1.40766 14.9278 1.05026 15.2048 0.830572C15.4819 0.610886 15.7085 0.416798 15.7085 0.399273C15.7085 0.352818 15.5061 0.177301 15.3873 0.120734C15.121 -0.00606842 15.4057 -0.00146764 7.98556 0.000681552C2.43569 0.00227967 0.946202 0.00996789 0.82532 0.0376042ZM15.5041 1.61425C15.2392 1.82485 14.7727 2.19509 14.4676 2.43698C13.4879 3.21366 11.2945 4.955 10.9858 5.20125C10.8212 5.33249 10.6866 5.44777 10.6865 5.45747C10.6864 5.4761 10.8902 5.63078 12.4967 6.83113C13.0507 7.2451 13.8062 7.81056 14.1756 8.08772C16.1146 9.54258 15.9206 9.40663 15.955 9.33458C15.9848 9.27211 16.0129 3.97572 15.9937 2.02682L15.9859 1.23134L15.5041 1.61425ZM8.02401e-07 5.21255C0.000146794 9.06309 0.00703772 9.38767 0.0881798 9.36108C0.102604 9.35635 0.420369 9.12335 0.79437 8.84327C1.16834 8.56321 1.75026 8.1277 2.08751 7.8755C2.42475 7.62327 3.00944 7.18528 3.38683 6.90216C3.76422 6.61908 4.333 6.19368 4.65083 5.95685C5.19899 5.54834 5.22597 5.52387 5.17639 5.48001C5.14763 5.45458 4.72338 5.10627 4.23358 4.70603C3.74378 4.30575 3.23719 3.89176 3.10781 3.78601C2.97843 3.68028 2.23338 3.06992 1.45215 2.42962C0.67092 1.78933 0.0245568 1.26548 0.0157681 1.26548C0.00700865 1.26548 -8.67925e-05 3.04165 8.02401e-07 5.21255ZM9.0805 6.69978C8.09628 7.47564 8.07024 7.49314 7.87487 7.50981C7.68322 7.5262 7.6266 7.49421 7.1613 7.10686C6.45473 6.51865 6.00525 6.15626 5.98224 6.15626C5.96922 6.15626 5.62789 6.40424 5.2237 6.70733C4.81953 7.01042 4.05363 7.58481 3.52176 7.98376C2.98985 8.38268 2.42329 8.80624 2.2627 8.92497C1.4292 9.5412 0.889323 9.95101 0.880651 9.97413C0.874578 9.99022 3.56365 10 7.98556 10C12.5203 10 15.0967 9.99041 15.0905 9.97355C15.0851 9.95897 14.5486 9.54837 13.8982 9.06105C12.7465 8.1981 12.4604 7.9839 11.431 7.21361C11.158 7.00932 10.7112 6.67493 10.4382 6.47051C10.1652 6.26609 9.92871 6.09165 9.91265 6.08283C9.89659 6.07404 9.52213 6.35164 9.0805 6.69978Z" />
	</symbol>

	<symbol id="user" viewBox="0 0 13 15">
		<path fill-rule="evenodd" clip-rule="evenodd"
			d="M6.10484 0.0110473C5.03127 0.139684 4.05774 0.767626 3.46573 1.71334C2.84894 2.69868 2.71667 3.98723 3.1196 5.08554C3.88058 7.15981 6.17951 8.10615 8.09309 7.13286C8.80368 6.77144 9.37344 6.18634 9.72835 5.45358C10.1019 4.68246 10.2116 3.81804 10.0421 2.98201C9.98375 2.69445 9.93641 2.53786 9.8255 2.26578C9.65332 1.8434 9.42463 1.49096 9.08584 1.12586C8.55729 0.55628 7.88745 0.190058 7.10019 0.0402367C6.91394 0.00479264 6.3059 -0.0130476 6.10484 0.0110473ZM5.86182 8.25519C4.05178 8.4495 2.41361 9.40555 1.31509 10.9087C0.510791 12.0093 0.039955 13.3988 0.00542696 14.7737L0 14.9901L6.5 14.995L13 15L13 14.7885C12.9999 14.0414 12.8019 13.0998 12.48 12.3161C12.1217 11.4438 11.5515 10.6146 10.8729 9.97894C9.83411 9.00595 8.572 8.41703 7.19491 8.26274C6.9178 8.23168 6.12267 8.22718 5.86182 8.25519Z" />
	</symbol>

	<symbol id="location" viewBox="0 0 15 17">
		<path fill-rule="evenodd" clip-rule="evenodd"
			d="M6.91392 0.0248028C6.49713 0.0704615 6.03006 0.178554 5.64834 0.317681C5.34011 0.430041 5.10851 0.536729 4.81575 0.701253C4.37655 0.948074 4.02348 1.2196 3.63441 1.60978C3.07764 2.16814 2.68701 2.76141 2.40593 3.47552C1.68132 5.3166 1.99675 7.41633 3.22812 8.94867C3.3191 9.0619 4.13052 9.89012 5.37271 11.1377C7.54682 13.3212 7.40015 13.1861 7.56502 13.1563C7.62266 13.1458 7.84759 12.9257 9.62795 11.1377C10.8467 9.91368 11.6835 9.05977 11.7731 8.94867C13.0788 7.33011 13.3477 5.05804 12.4585 3.15793C12.2845 2.78605 12.0445 2.39918 11.7776 2.06026C11.6018 1.8371 11.1531 1.38468 10.9334 1.20905C10.0923 0.53692 9.11781 0.134162 8.0658 0.0239528C7.75772 -0.00833101 7.21272 -0.00791467 6.91392 0.0248028ZM7.97475 3.04133C8.44302 3.14682 8.82581 3.35734 9.15681 3.69136C9.35697 3.89336 9.47783 4.05936 9.59476 4.29282C9.75251 4.60778 9.82872 4.91275 9.8414 5.27967C9.85557 5.68996 9.78547 6.02079 9.60601 6.39061C9.37287 6.87103 9.0044 7.24145 8.52748 7.47488C7.96759 7.7489 7.34001 7.79047 6.7519 7.59244C6.15489 7.39142 5.67346 6.9651 5.39466 6.39061C5.21519 6.02079 5.1451 5.68996 5.15926 5.27967C5.18083 4.65556 5.40723 4.12975 5.84319 3.69136C6.1911 3.34153 6.63622 3.10597 7.0863 3.03351C7.15746 3.02206 7.22733 3.00988 7.24156 3.00645C7.30927 2.99011 7.86468 3.01654 7.97475 3.04133ZM3.81324 12.3398C1.67984 12.7543 0.31927 13.4373 0.0480777 14.2299C-0.329849 15.3345 1.54961 16.3893 4.65385 16.8147C6.06777 17.0085 7.70264 17.0523 9.1996 16.9365C11.7168 16.7418 13.7521 16.1309 14.5969 15.3166C15.3856 14.5562 15.0021 13.7047 13.5765 13.0513C13.136 12.8494 12.6183 12.6735 12.0157 12.5211C11.7328 12.4495 11.0545 12.309 10.8842 12.2866L10.7919 12.2745L9.23669 13.8368C7.59523 15.4858 7.64881 15.4365 7.50033 15.4365C7.35187 15.4365 7.40528 15.4857 5.76644 13.8393C4.38186 12.4483 4.20809 12.2795 4.16206 12.2807C4.13366 12.2815 3.97669 12.308 3.81324 12.3398Z" />
	</symbol>

	<symbol id="calendar" viewBox="0 0 15 17">
		<path
			d="M14.251 1.84937H12.7511V3.69875C12.7511 4.31115 12.2483 4.80906 11.6258 4.80906C11.0052 4.80906 10.5005 4.31115 10.5005 3.69875V1.84937H4.50123V3.69875C4.50123 4.31115 3.99836 4.80906 3.37592 4.80906C2.75524 4.80906 2.25061 4.31115 2.25061 3.69875V1.84937H0.750791C0.337592 1.84937 0 2.18073 0 2.59016V6.82672V7.0297V16.0944C0 16.594 0.41144 17 0.919587 17H14.0822C14.5886 17 15 16.594 15 16.0944V7.0297V6.82672V2.59016C15.0018 2.18073 14.6659 1.84937 14.251 1.84937ZM14.6255 16.0961C14.6255 16.3911 14.3811 16.6322 14.0822 16.6322H0.919587C0.620677 16.6322 0.376275 16.3911 0.376275 16.0961V7.0297H14.6272V16.0961H14.6255Z" />
		<path
			d="M3.37628 4.43953C3.78948 4.43953 4.12707 4.10817 4.12707 3.69875V0.74079C4.12707 0.333095 3.79124 0 3.37628 0C2.96308 0 2.62549 0.33136 2.62549 0.74079V3.70048C2.62549 4.10817 2.96132 4.43953 3.37628 4.43953Z" />
		<path
			d="M11.6255 4.43953C12.0405 4.43953 12.3763 4.10817 12.3763 3.69875V0.74079C12.3763 0.333095 12.0405 0 11.6255 0C11.2123 0 10.8765 0.33136 10.8765 0.74079V3.70048C10.8765 4.10817 11.2123 4.43953 11.6255 4.43953Z" />
		<path d="M1.50146 8.14001H3.00129V9.25033H1.50146V8.14001Z" />
		<path d="M1.50146 9.99112H3.00129V11.1014H1.50146V9.99112Z" />
		<path d="M1.50146 11.8405H3.00129V12.9508H1.50146V11.8405Z" />
		<path d="M1.50146 13.6899H3.00129V14.8002H1.50146V13.6899Z" />
		<path d="M4.12451 8.14001H5.62433V9.25033H4.12451V8.14001Z" />
		<path d="M4.12451 9.99112H5.62433V11.1014H4.12451V9.99112Z" />
		<path d="M4.12451 11.8405H5.62433V12.9508H4.12451V11.8405Z" />
		<path d="M4.12451 13.6899H5.62433V14.8002H4.12451V13.6899Z" />
		<path d="M6.75 8.14001H8.24982V9.25033H6.75V8.14001Z" />
		<path d="M6.75 9.99112H8.24982V11.1014H6.75V9.99112Z" />
		<path d="M6.75 11.8405H8.24982V12.9508H6.75V11.8405Z" />
		<path d="M6.75 13.6899H8.24982V14.8002H6.75V13.6899Z" />
		<path d="M9.375 8.14001H10.8766V9.25033H9.37676V8.14001H9.375Z" />
		<path d="M9.375 9.99112H10.8766V11.1014H9.37676V9.99112H9.375Z" />
		<path d="M9.375 11.8405H10.8766V12.9508H9.37676V11.8405H9.375Z" />
		<path d="M9.375 13.6899H10.8766V14.8002H9.37676V13.6899H9.375Z" />
		<path d="M12.0005 8.14001H13.5003V9.25033H12.0005V8.14001Z" />
		<path d="M12.0005 9.99112H13.5003V11.1014H12.0005V9.99112Z" />
		<path d="M12.0005 11.8405H13.5003V12.9508H12.0005V11.8405Z" />
		<path d="M12.0005 13.6899H13.5003V14.8002H12.0005V13.6899Z" />
	</symbol>

	<symbol id="company" viewBox="0 0 18 13">
		<path fill-rule="evenodd" clip-rule="evenodd"
			d="M2.34 0.000259272C2.28 0.000259745 2.19162 -0.000324641 2.12562 0.000259745C2.02236 0.00128242 2.0094 0.197617 2.00562 0.511943C2.00172 0.834379 2.01582 0.877112 2.12562 0.877331C2.24334 0.87755 2.2497 0.915681 2.24412 1.58955C2.23212 3.04197 2.23788 2.99551 2.06934 2.99551C1.95714 2.99551 1.7505 3.20238 1.25934 3.80635L0.6 4.61718V7.9701V11.323H0.3H0V12.1611V12.9991L6.975 12.9829L13.95 12.9666L13.966 10.9395L13.9819 8.91242L14.896 8.9114C15.42 8.91215 15.84 8.9114 15.93 8.9114H16.08V10.8684C16.08 12.7198 16.0896 12.919 16.1811 12.9617C16.2368 12.9877 16.6688 13.0044 17.1411 12.999L18 12.989V12.1561V11.323H17.7H17.4V7.95688V4.59067L16.77 3.82366L16.14 3.05665V2.63027C16.14 2.01608 16.1216 1.98584 15.7145 1.92974C15.5195 1.90286 15.36 1.85654 15.36 1.82674C15.36 1.79694 15.1716 1.74997 14.9414 1.72235C14.7112 1.69474 14.5093 1.64551 14.4927 1.61293C14.4762 1.58042 14.2936 1.53053 14.0869 1.50204C13.8803 1.47355 13.6757 1.41446 13.6324 1.3707C13.5297 1.2669 12.4827 1.26514 12.4297 1.36865C12.4079 1.41139 12.2074 1.47004 11.9842 1.49904C11.761 1.52804 11.5649 1.57823 11.5486 1.61052C11.5321 1.64273 11.3431 1.69204 11.1286 1.72009C10.9139 1.74807 10.7252 1.79672 10.7093 1.8282C10.6933 1.85968 10.5182 1.90833 10.3201 1.93631L9.96 1.98715V2.49338V2.99953L9.105 2.97922L8.25 2.95899L8.23326 1.94829C8.21736 0.985516 8.22234 0.935769 8.33826 0.898807C8.4432 0.865424 8.46 0.800704 8.46 0.430276V0.000532658H7.26642C5.93016 0.000532658 6 -0.0300015 6 0.554385C6 0.849938 6.01266 0.877112 6.15 0.877112H6.3V1.93631V2.99551H5.28H4.26V1.93631C4.26 0.925835 4.26552 0.877112 4.38 0.877112C4.48362 0.877112 4.5 0.828389 4.5 0.520782C4.5 0.183519 4.53 0.000259331 4.32 0.000259331C4.23 0.00232338 4.11 0.000260706 3.99 0.000259751C3.9 0.000259195 3.84 0.000259338 3.66 0.000259745C3.33 0.000260438 2.97 0.000260295 2.64 0.000259596C2.52 0.00025949 2.4 0.000258536 2.34 0.000259272ZM13.29 2.45254C13.7759 2.73327 13.5858 3.65601 13.0431 3.65061C12.7435 3.64761 12.6031 3.51386 12.5599 3.18989C12.5079 2.7996 12.5749 2.59053 12.7942 2.4589C13.0376 2.3128 13.0479 2.31266 13.29 2.45254ZM3.06 6.72097V7.45146H2.43H1.8V6.72097V5.99049H2.43H3.06V6.72097ZM4.68 6.72097V7.45146H4.05H3.42V6.72097V5.99049H4.05H4.68V6.72097ZM7.06716 6.73923L7.08432 7.45146H6.45216H5.82V6.7697C5.82 6.39467 5.8389 6.06485 5.862 6.03673C5.88516 6.00861 6.16188 5.99487 6.477 6.00627L7.05 6.02701L7.06716 6.73923ZM8.64 6.72097V7.45146H8.04H7.44V6.7697C7.44 6.39467 7.458 6.06595 7.48002 6.03921C7.50198 6.0124 7.77198 5.99049 8.08002 5.99049H8.64V6.72097ZM11.0509 6.69088C11.0614 7.07606 11.0588 7.40478 11.045 7.42136C11.0312 7.43787 10.7545 7.45146 10.43 7.45146H9.84V6.72097V5.99049H10.4359H11.0318L11.0509 6.69088ZM12.66 6.72097V7.45146H12.06H11.46V6.72097V5.99049H12.06H12.66V6.72097ZM3.06 8.65675V9.42376H2.43H1.8V8.69583V7.96791L2.415 7.94424C2.75328 7.93124 3.03672 7.91363 3.045 7.90516C3.05328 7.89668 3.06 8.2349 3.06 8.65675ZM4.68 8.69328V9.42376H4.05H3.42V8.69328V7.96279H4.05H4.68V8.69328ZM7.08 8.69583V9.42887L6.465 9.40805L5.85 9.38723L5.8413 8.7298C5.83656 8.36821 5.8449 8.04768 5.85984 8.01758C5.87484 7.98748 6.15546 7.96279 6.48354 7.96279H7.08V8.69583ZM8.64 8.69328V9.42376H8.04H7.44V8.69328V7.96279H8.04H8.64V8.69328ZM11.04 8.69328V9.42376H10.44H9.84V8.69328V7.96279H10.44H11.04V8.69328ZM12.66 8.69328V9.42376H12.06H11.46V8.69328V7.96279H12.06H12.66V8.69328ZM14.1 10.921C14.1 11.9802 14.1 12.8568 14.1 12.9298C14.13 13.0029 15.7891 13.0223 15.9428 12.9505C16.0031 12.9223 16.02 12.4846 16.02 10.95V8.98547H15.0353L14.1 8.9852V10.921ZM4.68 10.0447C4.68 10.139 4.48002 10.1542 3.24 10.1542C1.99998 10.1542 1.8 10.139 1.8 10.0447C1.8 9.95029 1.99998 9.9351 3.24 9.9351C4.48002 9.9351 4.68 9.95029 4.68 10.0447ZM8.64 10.046C8.64 10.1426 8.46012 10.1544 7.24998 10.1373C6.20298 10.1225 5.85378 10.0952 5.83494 10.0264C5.81544 9.95511 6.1197 9.9351 7.22502 9.9351C8.4504 9.9351 8.64 9.94993 8.64 10.046ZM12.66 10.0331C12.66 10.1486 11.2603 10.1976 10.3725 10.113C9.4002 10.0205 9.8211 9.9351 11.25 9.9351C12.3889 9.9351 12.66 9.95394 12.66 10.0331Z" />
	</symbol>

	<symbol id="address" viewBox="0 0 14 17">
		<path fill-rule="evenodd" clip-rule="evenodd"
			d="M6.30949 0.0164245C5.64424 0.0955303 4.98318 0.36599 4.42717 0.78652C3.75013 1.29863 3.24596 2.06312 3.03418 2.89882C2.9301 3.30947 2.89928 3.88648 2.96192 4.25124C3.18543 5.55265 4.42914 8.01527 6.42642 11.1112C6.74181 11.6001 6.7581 11.6212 6.79197 11.5852C6.86209 11.5108 7.69792 10.1949 8.06618 9.57923C8.21853 9.32454 8.65397 8.57462 9.00566 7.96125C9.17253 7.6702 9.62022 6.78942 9.81756 6.36389C10.1964 5.54707 10.4425 4.86774 10.5642 4.30277C10.619 4.04876 10.6139 3.45462 10.5541 3.12793C10.4332 2.46687 10.1091 1.81436 9.63476 1.27682C9.04695 0.610686 8.18652 0.150892 7.29775 0.0279256C7.07001 -0.00356832 6.53054 -0.00985474 6.30949 0.0164245ZM7.2771 1.39391C7.98198 1.58298 8.52186 2.13173 8.71594 2.85638C8.77437 3.07457 8.77973 3.52443 8.7266 3.75068C8.4369 4.98409 7.13826 5.65544 5.98637 5.16724C5.74797 5.06621 5.58433 4.9526 5.36466 4.7356C5.1342 4.50795 5.0193 4.34146 4.91344 4.08173C4.79855 3.79986 4.77811 3.68217 4.77995 3.31343C4.78145 3.00472 4.78682 2.95624 4.83806 2.78785C5.06182 2.05234 5.622 1.53357 6.37208 1.3672C6.57978 1.32113 7.05842 1.33527 7.2771 1.39391ZM9.65326 8.52324C9.27641 9.22111 8.69653 10.1961 8.17931 11.0014C7.91559 11.412 7.0565 12.693 6.97577 12.796C6.92544 12.8602 6.76508 12.9433 6.74346 12.9164C6.7397 12.9117 6.57071 12.6631 6.36791 12.3639C5.67292 11.3386 5.09548 10.4348 4.61104 9.61404L4.40652 9.26755L3.41524 9.27565C2.3191 9.28462 2.33017 9.28334 2.1765 9.41834C2.03978 9.53844 1.99592 9.63381 1.84657 10.1357C1.70331 10.6172 0.620912 14.1998 0.221282 15.5153C0.00377914 16.2312 -0.00679462 16.2746 0.00206493 16.4132C0.017058 16.6481 0.135206 16.8256 0.354217 16.9425L0.441408 16.989L2.638 16.9945L4.83459 17L5.09379 16.8955C5.23637 16.838 5.60471 16.6856 5.91236 16.5568C7.87241 15.736 8.56118 15.4512 8.58848 15.4503C8.60552 15.4498 8.88896 15.5237 9.21836 15.6145C9.54775 15.7053 10.1565 15.8728 10.571 15.9865C10.9856 16.1003 11.7477 16.3104 12.2645 16.4534C13.3314 16.7486 13.404 16.7602 13.6078 16.6665C13.7515 16.6003 13.8612 16.5051 13.9316 16.3851C14.0085 16.2541 14.0233 15.9981 13.9619 15.8595C13.9387 15.8072 13.867 15.5901 13.8026 15.377C13.7382 15.164 13.622 14.781 13.5444 14.5259C13.4668 14.2709 13.2252 13.4732 13.0076 12.7534C12.1022 9.75919 11.9952 9.41119 11.9569 9.33721C11.8796 9.18772 11.7774 9.11659 11.3558 8.91889C10.6779 8.60102 9.8449 8.21887 9.8307 8.21922C9.8233 8.21939 9.74346 8.3562 9.65326 8.52324ZM10.7362 8.96003C11.1281 9.14118 11.4901 9.31133 11.5408 9.33816C11.7023 9.4238 11.581 9.06768 12.6265 12.5266C12.8954 13.4165 13.2112 14.46 13.3281 14.8454C13.4451 15.2308 13.5567 15.6018 13.5763 15.6698C13.5958 15.7379 13.6349 15.8489 13.6631 15.9166C13.7508 16.1268 13.699 16.2915 13.5176 16.3792C13.3592 16.4557 13.6062 16.5152 10.4058 15.6285C9.68457 15.4287 8.97737 15.2331 8.8343 15.194L8.57413 15.1228L6.69685 15.9115L4.81956 16.7003L2.71672 16.7059C1.32396 16.7096 0.58725 16.7043 0.535022 16.6903C0.430711 16.6622 0.316011 16.5353 0.297796 16.4278C0.283031 16.3405 0.24055 16.4874 1.16409 13.4335C1.55271 12.1485 1.98997 10.7061 2.16964 10.1164C2.2912 9.71751 2.33663 9.64372 2.48617 9.60227C2.54011 9.58733 2.85722 9.57942 3.40556 9.57936L4.24259 9.57923L4.35454 9.76989C4.41613 9.87473 4.59939 10.1769 4.76177 10.4413L5.05705 10.922V11.7243C5.05705 12.1656 5.06285 12.5266 5.06994 12.5266C5.07702 12.5266 5.26765 12.4557 5.49358 12.3689C5.71951 12.2822 5.90755 12.2149 5.91143 12.2195C5.91866 12.228 6.2534 12.7236 6.27969 12.7648C6.28921 12.7797 6.08108 12.8687 5.67598 13.0229L5.05773 13.2583L5.0574 14.5541C5.05707 15.7784 5.05903 15.8493 5.09319 15.8395C5.11306 15.8339 5.62187 15.6234 6.22387 15.3717C6.82586 15.1201 7.52054 14.8304 7.76758 14.728L8.21675 14.5417V13.2971C8.21675 12.6126 8.21421 12.0526 8.21111 12.0526C8.20801 12.0526 8.13136 12.0813 8.04074 12.1165C7.6833 12.2553 7.67851 12.3055 8.08092 11.6954C8.27664 11.3987 8.53363 11.0016 8.65203 10.8128L8.86728 10.4697L8.8776 10.8842L8.88793 11.2987L10.3218 11.6548C11.1104 11.8506 11.7574 12.0086 11.7596 12.0059C11.7618 12.0033 11.6184 11.524 11.441 10.941L11.1183 9.88104L10.38 9.54067C9.97394 9.35348 9.64171 9.1931 9.64171 9.18428C9.64171 9.16884 9.86413 8.75311 9.92441 8.65585C9.9431 8.6257 9.96652 8.6125 9.98879 8.61957C10.008 8.6257 10.3444 8.7789 10.7362 8.96003ZM2.82667 10.2668C2.82667 10.2736 2.13127 12.574 2.09434 12.6893L2.07857 12.7386L3.08765 12.7247C3.64266 12.7171 4.15949 12.7053 4.23615 12.6985L4.37555 12.6862V11.4728V10.2594H3.60111C3.17517 10.2594 2.82667 10.2627 2.82667 10.2668ZM8.8776 13.2539V14.5171L9.45069 14.6747C9.76589 14.7613 10.6537 15.0057 11.4237 15.2176C12.1937 15.4296 12.8293 15.5974 12.8362 15.5905C12.8431 15.5836 12.6581 14.945 12.4251 14.1714L12.0014 12.765L10.455 12.3785C9.60446 12.1659 8.90162 11.9917 8.89309 11.9914C8.88456 11.991 8.8776 12.5592 8.8776 13.2539ZM3.04351 13.3948C2.60054 13.4039 2.15572 13.414 2.05502 13.4173L1.87195 13.4232L1.49225 14.6805C1.28342 15.372 1.10691 15.9587 1.10001 15.9842L1.08745 16.0305H2.73151H4.37555V14.7011V13.3717L4.11224 13.375C3.96743 13.3768 3.48649 13.3857 3.04351 13.3948Z" />
	</symbol>

	<symbol id="document" viewBox="0 0 12 15">
		<path fill-rule="evenodd" clip-rule="evenodd"
			d="M0.673301 0.0480268C0.443469 0.117199 0.181083 0.366501 0.085538 0.606439C0.000415134 0.820198 0 0.852307 0 7.48631C0 13.3857 0.00734969 14.171 0.0639045 14.3221C0.163768 14.5889 0.313044 14.7716 0.528509 14.8906L0.726658 15H6.00012H11.2736L11.4604 14.902C11.6654 14.7944 11.8888 14.5171 11.9573 14.2851C11.9852 14.191 11.9999 12.4629 12 9.26224C12.0002 5.00297 11.9922 4.35728 11.9369 4.18245C11.8735 3.98169 11.6243 3.69333 10.7991 2.86599C10.649 2.71551 10.2552 2.31219 9.92408 1.9698C8.24346 0.23194 8.19069 0.180831 7.98112 0.0872751L7.78563 0L4.29767 0.00347216C1.98033 0.005774 0.763946 0.0207167 0.673301 0.0480268ZM8.59139 2.45763C8.87466 2.74688 9.19231 3.07144 9.29728 3.17881C9.40221 3.28618 9.71912 3.60656 10.0015 3.89082L10.5148 4.40761H9.198H7.88113L7.73995 4.27496L7.59877 4.14231L7.59956 2.80217L7.60035 1.46202L7.83832 1.69685C7.9692 1.82599 8.30807 2.16834 8.59139 2.45763ZM5.18186 4.69046L5.16966 4.97331H3.61253H2.05541L2.0432 4.69046L2.03099 4.40761H3.61253H5.19407L5.18186 4.69046ZM9.95705 7.18738L9.94484 7.47023H6.00012H2.05541L2.0432 7.18738L2.03099 6.90452H6.00012H9.96926L9.95705 7.18738ZM7.29955 9.6843L7.28735 9.96715H4.67138H2.05541L2.0432 9.6843L2.03099 9.40144H4.67138H7.31176L7.29955 9.6843ZM8.63685 12.1912V12.484L5.34613 12.4741L2.05541 12.4641L2.0432 12.1812L2.03099 11.8984H5.33392H8.63685V12.1912Z" />
	</symbol>

	<symbol id="type-document" viewBox="0 0 15 17">
		<path fill-rule="evenodd" clip-rule="evenodd"
			d="M0 6.8946V13.7892H2.53675H5.0735L5.07535 15.3928L5.07721 16.9964L10.0386 16.9982L15 17V10.1054V3.2108H12.4633H9.9265L9.92465 1.60719L9.92279 0.00359023L4.9614 0.00179162L0 0V6.8946ZM9.42094 2.09813L9.4228 3.70173L11.9577 3.70353L14.4926 3.70534V10.1054V16.5055H10.0368H5.58091L5.57906 14.9019L5.57721 13.2983L3.04228 13.2965L0.507353 13.2947V6.8946V0.494526H4.96322H9.41909L9.42094 2.09813ZM1.0034 0.99083C1.00149 0.995761 1.00076 3.6573 1.0018 6.90536L1.00368 12.8109L3.28493 12.8127L5.56618 12.8145V11.9546V11.0946L3.90625 11.0927L2.24632 11.0908L2.20414 11.0716C2.15212 11.0478 2.09296 10.9914 2.07238 10.9459C2.04855 10.8932 2.04554 10.8114 2.06551 10.7593C2.09568 10.6807 2.16446 10.6219 2.24892 10.6025C2.28279 10.5947 2.59197 10.5929 3.92831 10.5929L5.56618 10.5927V9.85462V9.11648L3.8989 9.11463L2.23162 9.11277L2.19853 9.09578C2.14023 9.06584 2.10719 9.03429 2.0805 8.98303C2.05715 8.93818 2.05515 8.92924 2.05515 8.86947C2.05515 8.81323 2.05783 8.79926 2.07533 8.76454C2.10073 8.71412 2.14343 8.67261 2.19718 8.64606L2.23897 8.62542L3.90257 8.62355L5.56618 8.62169V7.88366V7.14563L3.90257 7.14375L2.23897 7.14186L2.19602 7.12065C2.06618 7.05653 2.01575 6.91139 2.07948 6.78522C2.10669 6.73134 2.14336 6.69779 2.20618 6.66928L2.24632 6.65107L3.90625 6.651L5.56618 6.65093V5.91273V5.17454L3.92831 5.17442C2.59197 5.17434 2.28279 5.17256 2.24892 5.16479C2.17064 5.14683 2.1097 5.09866 2.07211 5.02501C2.04833 4.97842 2.0482 4.87205 2.07187 4.82142C2.09329 4.77556 2.15249 4.71931 2.20414 4.69571L2.24632 4.67644L3.9058 4.67457L5.56528 4.6727L5.56757 4.2768L5.56985 3.88091L5.59057 3.83978C5.61702 3.78728 5.66894 3.73667 5.72057 3.71306L5.76103 3.69457L7.34377 3.69266L8.92651 3.69076L8.92465 2.33811L8.9228 0.985461L4.96485 0.983663C1.80233 0.982229 1.0062 0.98367 1.0034 0.99083ZM7.70293 2.71643C7.76358 2.7364 7.81636 2.78274 7.84658 2.84257C7.89869 2.94574 7.86802 3.07628 7.7755 3.14505C7.75786 3.15816 7.72668 3.17508 7.7062 3.18267C7.66969 3.19619 7.61566 3.19646 4.96446 3.19646C2.47093 3.19646 2.25715 3.19554 2.22374 3.18464C2.12202 3.15145 2.05823 3.06757 2.05284 2.95995C2.05071 2.91745 2.05346 2.89806 2.06592 2.86732C2.09457 2.79664 2.15262 2.74049 2.22227 2.71606C2.26006 2.7028 2.32875 2.70245 4.95997 2.7022C7.6494 2.70194 7.65907 2.70199 7.70293 2.71643ZM6.07693 4.19445C6.07502 4.19938 6.0743 6.86092 6.07533 10.109L6.07721 16.0145H10.0368H13.9963V10.1018V4.18909L10.0384 4.18729C6.87586 4.18585 6.07973 4.18729 6.07693 4.19445ZM12.7959 5.92842C12.8479 5.95219 12.907 6.00863 12.9276 6.05413C12.9515 6.10681 12.9545 6.18861 12.9345 6.24067C12.9043 6.31931 12.8355 6.37813 12.7511 6.39751C12.6958 6.41019 7.39195 6.41202 7.3294 6.39938C7.25149 6.38362 7.18391 6.33037 7.14838 6.25675C7.13244 6.22371 7.12941 6.2074 7.12966 6.156C7.1299 6.10492 7.1332 6.08797 7.14942 6.05455C7.17188 6.00828 7.2218 5.95653 7.26238 5.93748C7.33121 5.90514 7.21226 5.90641 10.0551 5.90781L12.7537 5.90915L12.7959 5.92842ZM12.8015 7.90422C12.8598 7.93416 12.8928 7.96571 12.9195 8.01697C12.9429 8.06182 12.9449 8.07077 12.9449 8.13053C12.9449 8.18679 12.9422 8.20073 12.9246 8.23548C12.8992 8.28592 12.8566 8.32739 12.8028 8.35394L12.761 8.37458H10.0368H7.3125L7.27206 8.35415C7.21602 8.32585 7.1739 8.28377 7.14988 8.23208C7.13259 8.1949 7.12953 8.17891 7.12972 8.12677C7.12991 8.07347 7.13277 8.05987 7.15117 8.02444C7.18489 7.95953 7.24321 7.90992 7.30882 7.89032C7.31893 7.88731 8.55147 7.88537 10.0478 7.88603L12.7684 7.88723L12.8015 7.90422ZM12.804 9.87935C12.9338 9.94347 12.9843 10.0886 12.9205 10.2148C12.8931 10.269 12.856 10.3028 12.7929 10.331L12.7522 10.3491L10.0287 10.3473L7.30515 10.3455L7.26838 10.3265C7.21986 10.3015 7.17729 10.2586 7.15117 10.2083C7.13279 10.1729 7.12991 10.1592 7.12966 10.1059C7.12941 10.0537 7.13239 10.038 7.14963 10.0015C7.18307 9.93048 7.24568 9.87984 7.32166 9.86231C7.33754 9.85864 8.49799 9.8564 10.0551 9.85703L12.761 9.85814L12.804 9.87935ZM12.7511 11.8352C12.8294 11.8532 12.8903 11.9013 12.9279 11.975C12.9517 12.0216 12.9518 12.1279 12.9281 12.1786C12.9067 12.2244 12.8475 12.2807 12.7959 12.3043L12.7537 12.3236H10.0368H7.31985L7.27739 12.3039C7.22317 12.2787 7.17574 12.2324 7.15011 12.1796C7.13313 12.1446 7.1299 12.1283 7.12966 12.0767C7.12941 12.0255 7.13249 12.0088 7.14821 11.976C7.18146 11.9064 7.2509 11.8504 7.32246 11.8354C7.38643 11.822 12.6926 11.8218 12.7511 11.8352ZM12.7743 13.8141C12.9074 13.8535 12.9828 14.0054 12.9333 14.1346C12.9128 14.1881 12.8501 14.2541 12.7968 14.2782L12.761 14.2945L10.0516 14.2963C7.35399 14.2981 7.34203 14.2981 7.29776 14.2837C7.23643 14.2638 7.18388 14.2177 7.15313 14.1569C7.13155 14.1141 7.12921 14.1033 7.12959 14.0478C7.12995 13.9957 7.1331 13.9801 7.15027 13.9461C7.18167 13.8837 7.22741 13.8422 7.29185 13.8177C7.32621 13.8046 7.40337 13.8042 10.0331 13.804C12.3816 13.8037 12.7436 13.8051 12.7743 13.8141Z" />
	</symbol>

	<symbol id="name" viewBox="0 0 18 15">
		<path fill-rule="evenodd" clip-rule="evenodd"
			d="M1.69278 0.103314C0.823751 0.384158 0.201478 1.09352 0.0557761 1.96939C0.00891229 2.2513 -0.0087037 4.22246 0.004004 7.77542L0.0231664 13.1546L0.175121 13.504C0.375822 13.9654 0.618142 14.2567 1.05397 14.5605C1.71732 15.0229 1.29985 14.9998 8.99923 14.9998C16.6986 14.9998 16.2811 15.0229 16.9445 14.5605C17.3803 14.2567 17.6226 13.9654 17.8233 13.504L17.9753 13.1546L17.9953 7.74415C18.0092 4.00805 17.9924 2.21002 17.9413 1.93405C17.7975 1.15795 17.302 0.541093 16.5444 0.19501L16.1599 0.0193735L9.10009 0.0051748C2.45982 -0.00814809 2.01962 -0.00233104 1.69278 0.103314ZM15.4777 2.26813L15.6556 2.42156V4.14109V5.86068L15.4934 6.03619L15.3312 6.2117L9.12275 6.2284C4.54731 6.24066 2.86498 6.22603 2.72674 6.17286C2.34975 6.02775 2.34282 5.99084 2.34282 4.13083V2.42181L2.50789 2.26832L2.67289 2.11476H8.98639H15.2998L15.4777 2.26813ZM3.62032 4.14759V4.992H8.99923H14.3782V4.14759V3.30319H8.99923H3.62032V4.14759ZM15.4529 7.66596L15.6557 7.83797L15.6575 9.80826C15.6585 10.8919 15.6584 11.8572 15.6575 11.9534C15.6564 12.0539 15.5855 12.1935 15.4906 12.2818L15.3256 12.4353H13.0088H10.6921L10.5155 12.2401L10.3389 12.0449L10.3583 9.92029L10.3776 7.79575L10.5662 7.64482L10.7549 7.49395H13.0025H15.2501L15.4529 7.66596ZM8.66077 8.02456C9.03332 8.20376 9.08207 8.75112 8.7473 8.99613C8.58398 9.11559 8.46807 9.12022 5.63755 9.12022H2.69736L2.52006 8.95534C2.25508 8.70878 2.26866 8.31372 2.54971 8.09374L2.75653 7.9318H5.61227C8.00434 7.9318 8.49933 7.94687 8.66077 8.02456ZM11.6663 8.7241C11.6416 8.74699 11.6215 9.32401 11.6215 10.0064V11.2469H12.9998H14.3782V9.96463V8.68238H13.0447C12.3112 8.68238 11.6909 8.70115 11.6663 8.7241ZM8.76424 11.0226C8.97637 11.2199 9.03467 11.4541 8.93012 11.6889C8.76586 12.0579 8.7469 12.06 5.61227 12.06H2.75653L2.54971 11.8981C2.3757 11.7618 2.34282 11.6919 2.34282 11.4574C2.34282 11.2448 2.38202 11.1422 2.50789 11.0251L2.67289 10.8716H5.63741H8.60193L8.76424 11.0226Z" />
	</symbol>

	<symbol id="snils" viewBox="0 0 22 15">
		<path fill-rule="evenodd" clip-rule="evenodd"
			d="M1.65784 0.0306846C1.57779 0.0432573 1.43018 0.0890664 1.32977 0.132448C0.745761 0.384834 0.298374 0.884502 0.0776331 1.53093L0 1.7583V7.48444C0 13.0009 0.002007 13.2168 0.054509 13.3817C0.267106 14.0492 0.71871 14.5739 1.3179 14.8497L1.54161 14.9527L4.26124 14.9726C5.75704 14.9836 9.97424 14.9942 13.6328 14.9963L20.2847 15L20.4973 14.9188C20.8939 14.7674 21.0989 14.6308 21.3792 14.3311C21.5698 14.1273 21.6755 13.9829 21.7665 13.8019C22.0086 13.3202 21.9873 13.8855 21.9978 7.6556C22.004 3.9413 21.9972 2.01999 21.977 1.85732C21.9214 1.40863 21.7319 1.01966 21.3916 0.65555C21.1431 0.38972 20.9482 0.255218 20.5926 0.104191L20.3474 0L11.0754 0.00389004C5.9758 0.00600622 1.73789 0.0180809 1.65784 0.0306846ZM20.0264 4.34129V5.16598H10.9949H1.96337V4.34129V3.5166H10.9949H20.0264V4.34129ZM20.0264 7.51556V8.34025H10.9949H1.96337V7.51556V6.69087H10.9949H20.0264V7.51556ZM20.0264 10.6898V11.5145H10.9949H1.96337V10.6898V9.86515H10.9949H20.0264V10.6898Z" />
	</symbol>

	<symbol id="passport" viewBox="0 0 22 22">
		<path fill-rule="evenodd" clip-rule="evenodd"
			d="M6.00722 2.65933C2.41363 4.25128 -0.000638117 5.32658 1.26516e-07 5.33493C0.00092448 5.34672 7.37445 21.988 7.38404 22C7.38588 22.0023 8.47029 21.5207 9.79384 20.9299L12.2003 19.8557L17.0982 19.2113C19.792 18.8569 21.9978 18.5652 22 18.563C22.0049 18.5581 19.2584 2.0767 19.2508 2.06509C19.2469 2.05924 13.6832 2.7717 13.3068 2.82623C13.278 2.83041 13.2707 2.81465 12.6563 1.41639C12.3145 0.638665 12.0305 0.00127735 12.0252 1.03763e-06C12.0199 -0.00128628 9.31178 1.19541 6.00722 2.65933ZM11.2538 3.6728C11.4641 4.15197 11.6325 4.54765 11.6278 4.55208C11.6232 4.55653 11.2207 4.73595 10.7335 4.9508C10.2463 5.16565 8.43412 5.96547 6.70643 6.72819C4.97872 7.4909 3.56395 8.11374 3.56249 8.11227C3.56103 8.1108 3.38701 7.72606 3.17579 7.25729L2.79177 6.40497L2.83139 6.38507C2.93196 6.33457 10.84 2.80357 10.8547 2.80264C10.8664 2.80189 10.9833 3.05677 11.2538 3.6728ZM19.2484 10.483C19.8857 14.2599 20.4051 17.352 20.4026 17.3544C20.3966 17.3605 16.8169 17.8656 16.8073 17.8618C16.8031 17.8602 17.3904 17.5921 18.1124 17.2662C19.3634 16.7015 19.4248 16.6724 19.4149 16.65C19.4092 16.6371 18.1622 13.8241 16.6438 10.399C14.4217 5.38668 13.8865 4.17059 13.9011 4.16721C13.9429 4.1575 18.0056 3.61836 18.0458 3.61718L18.0898 3.6159L19.2484 10.483ZM12.1802 7.43923C12.6348 8.92468 12.8765 10.2731 12.8254 11.0386C12.7894 11.5783 12.6895 11.8065 12.3351 12.1594C12.1066 12.3869 11.7912 12.6326 11.435 12.8607C11.3396 12.9217 11.2629 12.973 11.2645 12.9746C11.2662 12.9762 11.3145 12.9855 11.3719 12.9953C11.5252 13.0215 11.7055 13.0708 11.8119 13.1157C12.0427 13.2131 12.1193 13.3338 12.1057 13.5787C12.09 13.8634 11.9362 14.2172 11.6345 14.6625C11.575 14.7503 11.5035 14.8511 11.4754 14.8866L11.4244 14.9512L11.3568 14.9439C10.8058 14.8844 10.2974 14.7399 10.0422 14.5703C9.95367 14.5114 9.84412 14.4001 9.80794 14.3322C9.77178 14.2644 9.77174 14.118 9.80784 14.0134C9.84761 13.8981 9.92241 13.7527 10.0103 13.62C10.0553 13.5519 10.0888 13.4962 10.0846 13.4962C10.0804 13.4962 9.98223 13.5232 9.86645 13.5561C9.12807 13.7661 8.48678 13.826 8.15671 13.7159C7.52743 13.5059 6.62758 12.5064 5.63104 10.9106C5.47532 10.6612 5.19775 10.1924 5.20282 10.1873C5.20554 10.1846 9.16701 10.3438 9.32499 10.353L9.40752 10.3578L10.739 8.72557L12.0705 7.09336L12.0849 7.13426C12.0929 7.15676 12.1357 7.29399 12.1802 7.43923ZM8.74905 7.2858C9.12936 7.31942 9.44388 7.35036 9.44796 7.35456C9.45204 7.35877 9.58473 7.6489 9.74283 7.99929C9.90092 8.34969 10.035 8.64519 10.0408 8.65598C10.0493 8.67195 9.97465 8.78308 9.63714 9.2567C9.40939 9.57632 9.21465 9.84674 9.20439 9.85762C9.18647 9.87664 9.15743 9.87409 8.459 9.79204L7.73225 9.70667L7.43284 9.04388C7.23237 8.60013 7.13644 8.37595 7.14254 8.36552C7.14755 8.35696 7.33927 8.09675 7.56857 7.78731C7.97128 7.24384 7.98671 7.22468 8.02153 7.22468C8.04135 7.22468 8.36873 7.25218 8.74905 7.2858ZM13.2301 15.8588C13.3276 16.0541 13.3517 16.1109 13.34 16.1182C13.3318 16.1232 13.1598 16.2008 12.9579 16.2904L12.5908 16.4534L12.5523 16.4108C12.5312 16.3873 12.4832 16.3531 12.4458 16.3347C12.2234 16.2252 11.9504 16.3006 11.8387 16.5023C11.8089 16.556 11.8063 16.5699 11.8048 16.6815L11.8031 16.8025L11.426 16.9706C11.2185 17.0631 11.0453 17.1349 11.0409 17.1302C11.0292 17.1175 10.8288 16.6319 10.8338 16.6282C10.8474 16.6182 13.0849 15.6092 13.094 15.609C13.1002 15.6089 13.1614 15.7213 13.2301 15.8588ZM13.5103 16.5019C13.5687 16.6421 13.6153 16.7576 13.6138 16.7585C13.6123 16.7594 13.1036 16.9896 12.4832 17.27C11.8628 17.5504 11.3526 17.7812 11.3493 17.7828C11.346 17.7845 11.2859 17.6709 11.2157 17.5304L11.0882 17.275L11.4638 17.1076C11.6704 17.0154 11.8436 16.9401 11.8488 16.9401C11.8539 16.9401 11.8803 16.9648 11.9074 16.9949C11.9407 17.0319 11.984 17.0632 12.0406 17.0912C12.1179 17.1294 12.1319 17.1326 12.2186 17.1326C12.2985 17.1325 12.3218 17.128 12.3735 17.1027C12.5431 17.0195 12.6392 16.8671 12.6422 16.6762L12.6437 16.5828L13.0173 16.4157C13.2229 16.3238 13.394 16.2482 13.3976 16.2477C13.4011 16.2473 13.4519 16.3616 13.5103 16.5019ZM12.3259 16.4177C12.3905 16.4447 12.457 16.5065 12.4876 16.568C12.5585 16.7102 12.4942 16.8867 12.3444 16.9615C12.2106 17.0283 12.0286 16.9597 11.9521 16.8135C11.9178 16.7481 11.9202 16.6437 11.9577 16.5708C11.9891 16.5096 12.059 16.4403 12.113 16.4169C12.1595 16.3966 12.2765 16.3971 12.3259 16.4177Z" />
	</symbol>

	<symbol id="inn" viewBox="0 0 13 17">
		<path
			d="M0 16.0034C0.0847787 16.5843 0.48883 17 0.98668 17H12.0981C12.5959 17 13 16.5843 13 16.0721V0.927948C13 0.41572 12.5959 0 12.0981 0H0.98668C0.48883 0 0.0847787 0.41572 0 0.859279V16.0034ZM11.0844 13.9229L9.95157 15.0884L9.62148 15.4281C9.44471 15.6081 9.15969 15.6081 8.98474 15.4281L8.65284 15.0884L8.32815 14.7729C8.15138 14.591 8.15138 14.2978 8.32815 14.1159L8.33898 14.1048C8.51577 13.9229 8.80077 13.9229 8.97752 14.1048L9.30221 14.4203L10.435 13.2548C10.6118 13.0729 10.8968 13.0729 11.0735 13.2548L11.0844 13.2659C11.2611 13.4478 11.2611 13.741 11.0844 13.9229ZM11.3621 11.1743C11.3621 11.4305 11.1601 11.6383 10.9112 11.6383H9.63771C9.38879 11.6383 9.18676 11.4305 9.18676 11.1743V11.1576C9.18676 10.9015 9.38879 10.6937 9.63771 10.6937H10.9112C11.1601 10.6937 11.3622 10.9015 11.3622 11.1576V11.1743H11.3621ZM11.3621 8.72271C11.3621 8.97882 11.1601 9.18668 10.9112 9.18668H9.63771C9.38879 9.18668 9.18676 8.97882 9.18676 8.72271V8.706C9.18676 8.44989 9.38879 8.24203 9.63771 8.24203H10.9112C11.1601 8.24203 11.3622 8.44989 11.3622 8.706V8.72271H11.3621ZM10.9112 5.79039C11.1601 5.79039 11.3621 5.99825 11.3621 6.25437V6.27107C11.3621 6.52718 11.1601 6.73504 10.9112 6.73504H9.63771C9.38879 6.73504 9.18676 6.52718 9.18676 6.27107V6.25437C9.18676 5.99825 9.38879 5.79039 9.63771 5.79039H10.9112ZM3.69779 2.8952C3.69779 2.63908 3.89982 2.43122 4.14874 2.43122H8.93604C9.18496 2.43122 9.38698 2.63908 9.38698 2.8952V2.9119C9.38698 3.16801 9.18496 3.37587 8.93604 3.37587H4.14874C3.89982 3.37587 3.69779 3.16801 3.69779 2.9119V2.8952ZM1.72263 6.25437C1.72263 5.99825 1.92466 5.79039 2.17358 5.79039H6.96087C7.2098 5.79039 7.41182 5.99825 7.41182 6.25437V6.27107C7.41182 6.52718 7.2098 6.73504 6.96087 6.73504H2.17358C1.92466 6.73504 1.72263 6.52718 1.72263 6.27107V6.25437ZM1.72263 8.706C1.72263 8.44989 1.92466 8.24203 2.17358 8.24203H6.96087C7.2098 8.24203 7.41182 8.44989 7.41182 8.706V8.72271C7.41182 8.97882 7.2098 9.18668 6.96087 9.18668H2.17358C1.92466 9.18668 1.72263 8.97882 1.72263 8.72271V8.706ZM1.72263 11.1576C1.72263 10.9015 1.92466 10.6937 2.17358 10.6937H6.96087C7.2098 10.6937 7.41182 10.9015 7.41182 11.1576V11.1743C7.41182 11.4305 7.2098 11.6383 6.96087 11.6383H2.17358C1.92466 11.6383 1.72263 11.4305 1.72263 11.1743V11.1576Z" />
	</symbol>

	<symbol id="vu" viewBox="0 0 22 15">
		<path fill-rule="evenodd" clip-rule="evenodd"
			d="M0.661073 0.221081C-0.00843175 0.639591 5.09885e-06 0.546515 5.09885e-06 7.5C5.09885e-06 14.4535 -0.00843175 14.3604 0.661073 14.7789C1.00901 14.9965 1.17263 15 11 15C20.8274 15 20.991 14.9965 21.3389 14.7789C22.0084 14.3604 22 14.4535 22 7.5C22 0.546515 22.0084 0.639591 21.3389 0.221081C20.991 0.00350412 20.8274 0 11 0C1.17263 0 1.00901 0.00350412 0.661073 0.221081ZM8.09216 3.02516C8.34313 3.1743 8.67954 3.49941 8.83973 3.74765C9.09316 4.14031 9.13107 4.30785 9.13107 5.03624C9.13107 5.76464 9.09316 5.93218 8.83973 6.32484C7.91135 7.76324 5.78429 7.73696 4.94968 6.27677C4.51844 5.52232 4.48768 4.7649 4.85666 3.99161C5.46124 2.72459 6.87586 2.30202 8.09216 3.02516ZM19.2233 3.50324V4.16024H15.8058H12.3883V3.50324V2.84624H15.8058H19.2233V3.50324ZM19.2233 6.35025V7.00725H15.8058H12.3883V6.35025V5.69325H15.8058H19.2233V6.35025ZM8.22437 8.26508C9.64786 8.77469 10.6753 10.0694 10.9423 11.6898L11.0188 12.1538H6.90448H2.79016L2.84644 11.7431C3.04732 10.2793 3.84221 9.1183 5.07762 8.48441C6.07019 7.97512 7.1955 7.89672 8.22437 8.26508ZM15.0583 11.4968V12.1538H13.7233H12.3883V11.4968V10.8398H13.7233H15.0583V11.4968ZM19.2233 11.4968V12.1538H17.8883H16.5534V11.4968V10.8398H17.8883H19.2233V11.4968Z" />
	</symbol>

	<symbol id="sts" viewBox="0 0 14 19">
		<path fill-rule="evenodd" clip-rule="evenodd"
			d="M0.0954664 0.12211L0 0.244219V9.5V18.7558L0.0954664 18.8779L0.190887 19H6.99995H13.809L13.9044 18.8779L13.9999 18.7558L14 10.8724L14 2.98902L12.7329 3.00334C10.9641 3.02332 11.0526 3.10923 11.0526 1.37157C11.0526 0.747024 11.0727 0.184346 11.0975 0.118866L11.1424 0H5.66665H0.190887L0.0954664 0.12211ZM11.4243 0.12211C11.3338 0.237917 11.3289 0.301451 11.3289 1.35322C11.3289 2.44099 11.3481 2.60643 11.4854 2.6987C11.5133 2.71742 12.0438 2.73271 12.6644 2.73271C13.2849 2.73271 13.8155 2.71742 13.8433 2.6987C13.9902 2.59999 14.0434 2.30007 13.9463 2.11762C13.9169 2.06224 13.4396 1.56314 12.8857 1.00848C11.9193 0.0407339 11.8713 0 11.6992 0C11.5602 0 11.4983 0.0275269 11.4243 0.12211ZM9.58676 3.13523C9.69728 3.23589 9.69383 3.40628 9.57888 3.52195C9.48835 3.61306 9.42539 3.61463 5.91772 3.61463C2.41006 3.61463 2.3471 3.61306 2.25656 3.52195C2.14456 3.40925 2.13821 3.25725 2.24068 3.1433C2.31325 3.06257 2.48752 3.05854 5.90971 3.05854C9.18827 3.05854 9.5099 3.06526 9.58676 3.13523ZM11.0065 6.20976C11.0993 6.30318 11.1259 6.46774 11.0634 6.56195C10.9614 6.71562 10.852 6.71951 6.61776 6.71951C2.42774 6.71951 2.40656 6.71905 2.28581 6.62345C2.13996 6.50806 2.12803 6.3391 2.25656 6.20976C2.34733 6.11842 2.41006 6.11707 6.63154 6.11707C10.853 6.11707 10.9157 6.11842 11.0065 6.20976ZM11.7433 9.31464C11.8632 9.43526 11.8601 9.56594 11.7346 9.68356C11.6346 9.77735 11.5997 9.77805 6.99995 9.77805C2.4002 9.77805 2.36529 9.77735 2.26527 9.68356C2.20982 9.63161 2.16446 9.54898 2.16446 9.5C2.16446 9.45102 2.20982 9.36839 2.26527 9.31644C2.36529 9.22265 2.40011 9.22195 7.00866 9.22195C11.5899 9.22195 11.6524 9.22316 11.7433 9.31464ZM11.7141 12.3766C11.8599 12.4919 11.8719 12.6609 11.7433 12.7902C11.6524 12.8817 11.5899 12.8829 6.99995 12.8829C2.41006 12.8829 2.34747 12.8817 2.25656 12.7902C2.12803 12.6609 2.13996 12.4919 2.28581 12.3766C2.40669 12.2808 2.42327 12.2805 6.99995 12.2805C11.5766 12.2805 11.5932 12.2808 11.7141 12.3766ZM11.7433 15.4781C11.8553 15.5908 11.8617 15.7428 11.7592 15.8567C11.6863 15.9378 11.4786 15.9415 7.00797 15.9415C2.72238 15.9415 2.32587 15.9351 2.24869 15.8648C2.13816 15.7641 2.14162 15.5937 2.25656 15.4781C2.34747 15.3866 2.41006 15.3854 6.99995 15.3854C11.5899 15.3854 11.6524 15.3866 11.7433 15.4781Z" />
	</symbol>

	<symbol id="search" viewBox="0 0 23 23">
		<path fill-rule="evenodd" clip-rule="evenodd"
			d="M7.52325 0.0556897C7.01884 0.122166 6.74768 0.179299 6.22135 0.330055C3.90873 0.9924 1.97438 2.60741 0.886972 4.78374C0.28697 5.98459 -0.000453708 7.22656 5.37557e-07 8.61645C0.000284441 9.50807 0.104165 10.2364 0.340288 11.0025C0.373987 11.1119 0.414812 11.246 0.430995 11.3007C0.489706 11.4988 0.69 11.9749 0.843166 12.2804C1.28872 13.169 1.71518 13.7608 2.41017 14.4549C2.86152 14.9056 3.20084 15.1872 3.66216 15.4939C5.02112 16.3972 6.57254 16.865 8.21251 16.866C9.62604 16.8669 10.838 16.5833 12.0967 15.9571C12.5556 15.7288 12.8447 15.553 13.291 15.231C13.473 15.0997 13.6289 14.9922 13.6373 14.9922C13.6457 14.9922 13.8115 15.1521 14.0058 15.3475L14.3589 15.7028L14.3725 15.9935C14.3888 16.3417 14.4654 16.599 14.6224 16.8323C14.6865 16.9276 15.9148 18.1752 17.6074 19.8644C20.7121 22.9628 20.5872 22.8489 20.9986 22.955C21.0945 22.9798 21.287 23 21.4264 23C21.8554 23 22.1874 22.8666 22.5019 22.5678C22.9262 22.1646 23.0901 21.5997 22.9523 21.0149C22.8543 20.5991 22.9737 20.7306 19.861 17.6103C18.1196 15.8646 16.9261 14.6897 16.8254 14.6218C16.5918 14.4646 16.3419 14.3905 15.991 14.3744L15.7003 14.3611L15.3451 14.0079C15.1498 13.8136 14.9899 13.6477 14.9899 13.6393C14.9899 13.6309 15.0973 13.475 15.2287 13.2929C15.5511 12.8459 15.7267 12.5568 15.9543 12.0984C16.5815 10.8351 16.8642 9.62685 16.8633 8.2134C16.8623 6.5645 16.3863 4.9993 15.468 3.6254C14.9527 2.85441 14.1342 2.01972 13.3575 1.47315C12.8128 1.08983 11.8096 0.581533 11.2992 0.430238C11.2445 0.414052 11.1104 0.373218 11.0011 0.339511C10.5738 0.207781 10.1974 0.128299 9.65253 0.0548663C9.10746 -0.0186235 8.08413 -0.018226 7.52325 0.0556897ZM9.48219 1.60017C11.4417 1.87061 13.1115 2.90123 14.1801 4.49978C14.929 5.62001 15.3014 6.8521 15.3085 8.2339C15.3127 9.05015 15.2097 9.70443 14.9573 10.463C14.6067 11.5167 14.047 12.4142 13.2301 13.2327C12.4185 14.0459 11.5165 14.6085 10.4617 14.9596C9.70408 15.2117 9.05133 15.3146 8.23301 15.3106C7.32491 15.3063 6.56695 15.1636 5.76353 14.8457C3.68249 14.0224 2.16732 12.2329 1.70399 10.0513C1.58168 9.47533 1.54711 9.15226 1.5475 8.58885C1.54787 8.07462 1.57561 7.78986 1.67892 7.24002C1.75149 6.85378 1.79197 6.70756 1.95013 6.26035C2.31004 5.24279 2.84216 4.40377 3.62292 3.62284C4.49167 2.75391 5.37793 2.22185 6.61212 1.82825C6.95581 1.71864 7.48773 1.6234 8.17623 1.5482C8.36991 1.52705 9.18837 1.55962 9.48219 1.60017ZM8.2472 2.99045C7.91455 3.1466 7.86192 3.60043 8.15249 3.80736C8.22898 3.86185 8.29575 3.87523 8.57965 3.89297C9.79036 3.96865 10.7821 4.37486 11.6098 5.13409C12.4857 5.93745 12.9889 6.99607 13.0565 8.1771C13.0806 8.5993 13.1128 8.69832 13.2598 8.80307C13.3901 8.89582 13.5247 8.91751 13.6813 8.87097C13.8335 8.82576 13.917 8.74884 13.9815 8.59462C14.0204 8.50156 14.0222 8.43125 13.9958 8.05656C13.9562 7.4963 13.8357 6.9432 13.6536 6.48585C13.313 5.63055 12.7597 4.8612 12.0695 4.28317C11.0998 3.47109 9.95846 3.02158 8.72984 2.96785C8.41874 2.95425 8.31386 2.95916 8.2472 2.99045Z" />
	</symbol>

	<symbol id="info" viewBox="0 0 10 65">
		<path
			d="M5.84071 47.2226H4.15929L0.265487 10.0141C0.0884956 8.39105 0 7.18139 0 6.38516C0 4.45583 0.486726 2.90931 1.46018 1.74558C2.46313 0.581861 3.65782 0 5.04425 0C6.43068 0 7.59587 0.581861 8.53982 1.74558C9.51327 2.90931 10 4.63958 10 6.9364C10 7.67138 9.941 8.69729 9.82301 10.0141L5.84071 47.2226ZM4.95575 54.8481C6.31268 54.8481 7.46313 55.3534 8.40708 56.364C9.38053 57.3439 9.86726 58.523 9.86726 59.9011C9.86726 61.3098 9.38053 62.5194 8.40708 63.53C7.46313 64.51 6.31268 65 4.95575 65C3.59882 65 2.43363 64.51 1.46018 63.53C0.516224 62.5194 0.0442478 61.3098 0.0442478 59.9011C0.0442478 58.523 0.516224 57.3439 1.46018 56.364C2.43363 55.3534 3.59882 54.8481 4.95575 54.8481Z" />
	</symbol>

	<symbol id="burger" viewBox="0 0 40 22">
		<rect width="40" height="4" />
		<rect y="9" width="40" height="4" />
		<rect y="18" width="40" height="4" />
	</symbol>

	<symbol id="close" viewBox="0 0 22 22">
		<path d="M18.9973 18.9994L3.00004 3.00014" stroke-width="3" stroke-linecap="square" />
		<path d="M19.0005 2.99954L3.00321 18.9988" stroke-width="3" stroke-linecap="square" />
	</symbol>

	<symbol id="adv-icon1" viewBox="0 0 24 23">
		<path fill-rule="evenodd" clip-rule="evenodd"
			d="M12.2088 0.0895637C11.2444 0.41586 10.7352 1.40583 11.04 2.36209C11.141 2.67935 11.3928 3.04151 11.6406 3.22613C11.8547 3.38559 12.2785 3.57832 12.4164 3.57888L12.5237 3.57934V4.48567V5.39195L12.132 5.4055C11.7663 5.41812 11.7357 5.42702 11.6708 5.54029C11.604 5.65677 11.6205 5.69668 12.0867 6.54786C12.3536 7.03531 12.6054 7.46113 12.6461 7.4941C12.698 7.53625 12.7564 7.54133 12.8416 7.5112C12.935 7.47813 13.0791 7.26082 13.4676 6.5664C13.9553 5.69505 13.97 5.6604 13.902 5.54178C13.8367 5.4279 13.8049 5.41803 13.4637 5.40541L13.0959 5.39181V4.4914V3.59098L13.2508 3.56113C13.5517 3.50319 13.8992 3.29673 14.1612 3.02027C15.0135 2.12102 14.7319 0.722688 13.5876 0.171813C13.1842 -0.0223532 12.6361 -0.0550481 12.2088 0.0895637ZM1.81134 2.68871C1.2992 2.87431 0.954187 3.19255 0.711255 3.70341C0.600685 3.936 0.582089 4.03572 0.582614 4.39438C0.58352 4.98047 0.705963 5.27132 1.12379 5.6794C1.53427 6.0804 1.83851 6.20392 2.41549 6.20392C2.95118 6.20392 3.27345 6.08273 3.65466 5.73799C3.94503 5.47541 4.22734 5.016 4.22734 4.8061C4.22734 4.70005 4.2386 4.69716 4.64455 4.69823L5.06175 4.69935L5.8378 5.54275L6.61379 6.38611L6.35036 6.65591C6.06556 6.94756 6.04253 7.0116 6.17032 7.15705C6.23845 7.23459 6.40238 7.274 7.06432 7.37213C8.01202 7.51255 8.05822 7.51455 8.13932 7.41912C8.1902 7.35923 8.17299 7.20083 8.0401 6.50478C7.9517 6.04175 7.85 5.63422 7.81415 5.5992C7.68317 5.47126 7.50708 5.5252 7.25176 5.77148L7.00706 6.00751L6.14014 5.07441L5.27317 4.14135L4.77071 4.12812L4.26825 4.11494L4.18744 3.88147C4.00182 3.34526 3.68532 2.99111 3.18014 2.75438C2.82173 2.58643 2.17862 2.55555 1.81134 2.68871ZM8.10795 7.90977C8.05259 7.93162 7.96138 8.00651 7.90531 8.07614L7.80337 8.20272V12.2476V16.2925L7.9425 16.4446L8.08163 16.5967H11.9992H15.9168L16.056 16.4446L16.1951 16.2925V13.2892V10.286H15.0031H13.8111V9.07505V7.86413L11.0099 7.86707C9.46922 7.8687 8.16336 7.88793 8.10795 7.90977ZM14.3356 8.86547V9.82023H15.2653C16.1906 9.82023 16.1951 9.81972 16.1951 9.7181C16.1951 9.64768 15.9237 9.35077 15.3222 8.76333C14.8422 8.29438 14.4238 7.91071 14.3925 7.91071C14.3503 7.91071 14.3356 8.1569 14.3356 8.86547ZM1.43805 10.4437C0.692374 10.6208 0.156828 11.1925 0.0231327 11.9541C-0.0853877 12.5721 0.194162 13.2391 0.730375 13.6414C1.11225 13.928 1.45392 14.0289 1.95481 14.0031C2.77062 13.9611 3.4461 13.4318 3.65265 12.6729L3.70653 12.4749H4.58681H5.46703V12.8208C5.46703 13.1391 5.47709 13.1745 5.59267 13.2633C5.66176 13.3164 5.73509 13.3598 5.75559 13.3598C5.7761 13.3598 6.13832 13.1368 6.56049 12.8643C7.33563 12.3639 7.46098 12.2372 7.33167 12.0851C7.23464 11.9709 5.82316 11.0777 5.73967 11.0777C5.69461 11.0777 5.61484 11.1196 5.56239 11.1709C5.48401 11.2474 5.46703 11.3261 5.46703 11.6133V11.9626H4.58681H3.70653L3.65218 11.7655C3.47195 11.1117 2.96687 10.6215 2.2982 10.4514C1.96711 10.3672 1.76761 10.3654 1.43805 10.4437ZM21.7758 10.43C21.1031 10.5588 20.5317 11.093 20.346 11.7665L20.2914 11.9647L19.4233 11.952L18.5553 11.9393L18.5411 11.5912C18.5261 11.2254 18.4535 11.0777 18.2885 11.0777C18.1633 11.0777 16.6841 12.0381 16.6506 12.1411C16.6349 12.1894 16.6338 12.2588 16.6481 12.2953C16.6885 12.3979 18.1575 13.3249 18.2798 13.3249C18.4854 13.3249 18.5314 13.2365 18.5314 12.8419V12.4749H19.4117H20.2919L20.3458 12.6729C20.4825 13.1749 20.8878 13.6398 21.3819 13.861C21.7506 14.026 22.3164 14.0589 22.7094 13.9382C23.308 13.7542 23.791 13.2323 23.951 12.5964C24.1914 11.6409 23.5223 10.6437 22.4985 10.4315C22.2124 10.3722 22.0791 10.3719 21.7758 10.43ZM10.2909 11.3411C10.4667 11.4965 10.3307 11.7298 10.0642 11.7298C9.88018 11.7298 9.75826 11.6273 9.75826 11.4726C9.75826 11.2741 10.1154 11.186 10.2909 11.3411ZM11.5507 11.3805C11.623 11.4883 11.623 11.5055 11.5507 11.6133C11.466 11.7395 11.2595 11.7701 11.0902 11.6816C10.9715 11.6195 10.9658 11.3801 11.0814 11.3143C11.2414 11.2233 11.4665 11.255 11.5507 11.3805ZM12.7176 11.3122C12.7765 11.3431 12.8098 11.4097 12.8098 11.4969C12.8098 11.7448 12.4028 11.8305 12.2571 11.6133C12.1848 11.5055 12.1848 11.4883 12.2571 11.3805C12.3417 11.2543 12.5482 11.2237 12.7176 11.3122ZM13.9623 11.3411C14.0705 11.4368 14.0731 11.5339 13.9706 11.6446C13.8103 11.8176 13.4296 11.7137 13.4296 11.4969C13.4296 11.2848 13.7821 11.1818 13.9623 11.3411ZM10.2827 12.2886C10.3909 12.3943 10.3988 12.4432 10.3288 12.5712C10.2918 12.6386 10.2283 12.6612 10.0761 12.6612C9.84862 12.6612 9.75826 12.5998 9.75826 12.445C9.75826 12.224 10.1094 12.1194 10.2827 12.2886ZM11.4413 12.2385C11.5865 12.2924 11.6289 12.4388 11.5365 12.5675C11.4806 12.6455 11.4254 12.6632 11.2725 12.6521C11.0514 12.6359 10.9694 12.5458 11.0148 12.3691C11.055 12.2128 11.2288 12.1596 11.4413 12.2385ZM12.7709 12.301C12.8268 12.3869 12.8174 12.542 12.7526 12.6053C12.6557 12.7 12.3478 12.6744 12.2694 12.5651C12.1825 12.4439 12.2205 12.2934 12.3515 12.2394C12.4764 12.1879 12.7208 12.2238 12.7709 12.301ZM13.9541 12.2886C14.0623 12.3943 14.0702 12.4432 14.0001 12.5712C13.9632 12.6386 13.8997 12.6612 13.7474 12.6612C13.52 12.6612 13.4296 12.5998 13.4296 12.445C13.4296 12.224 13.7808 12.1194 13.9541 12.2886ZM10.3095 13.2699C10.391 13.3578 10.3926 13.3771 10.3273 13.4911C10.1879 13.7349 9.75826 13.6579 9.75826 13.3891C9.75826 13.2402 9.84742 13.1735 10.0465 13.1735C10.1616 13.1735 10.2504 13.2061 10.3095 13.2699ZM11.5486 13.2869C11.6937 13.5032 11.437 13.7095 11.1462 13.6102C11.059 13.5804 11.0172 13.5288 11.0064 13.4377C10.985 13.2564 11.0735 13.1735 11.2888 13.1735C11.4308 13.1735 11.4898 13.1993 11.5486 13.2869ZM12.7597 13.2406C12.8592 13.3577 12.8015 13.5624 12.6548 13.6125C12.3751 13.708 12.1176 13.4815 12.2678 13.2721C12.3519 13.1548 12.6696 13.1345 12.7597 13.2406ZM13.9746 13.2467C14.071 13.341 14.0697 13.4472 13.9706 13.5541C13.8731 13.6594 13.6071 13.6662 13.5046 13.5661C13.3353 13.4008 13.4714 13.1735 13.7396 13.1735C13.8276 13.1735 13.9333 13.2065 13.9746 13.2467ZM10.2909 14.1821C10.4034 14.2815 10.4011 14.362 10.2827 14.4776C10.1687 14.589 9.9373 14.5993 9.83317 14.4976C9.74424 14.4107 9.73523 14.2393 9.81548 14.1609C9.89878 14.0796 10.1896 14.0925 10.2909 14.1821ZM11.5486 14.2183C11.6937 14.4347 11.437 14.641 11.1462 14.5417C11.059 14.5119 11.0172 14.4602 11.0064 14.3691C10.985 14.1878 11.0735 14.105 11.2888 14.105C11.4308 14.105 11.4898 14.1307 11.5486 14.2183ZM12.7597 14.1721C12.8592 14.2891 12.8015 14.4939 12.6548 14.544C12.3751 14.6395 12.1176 14.413 12.2678 14.2035C12.3519 14.0863 12.6696 14.066 12.7597 14.1721ZM13.9746 14.1782C14.2166 14.4146 13.7731 14.7202 13.5169 14.4937C13.4179 14.4062 13.4077 14.3253 13.479 14.1951C13.5413 14.0815 13.8643 14.0705 13.9746 14.1782ZM11.8222 17.2371C11.6143 17.4587 10.8549 18.635 10.8549 18.7354C10.8549 18.9247 10.9951 18.9953 11.3712 18.9953H11.7132V19.95V20.9048H10.5688C9.59648 20.9048 9.4245 20.8946 9.4245 20.8367C9.4245 20.7992 9.37978 20.6518 9.32509 20.5091C9.18567 20.1451 8.78911 19.7381 8.38412 19.5434C8.09388 19.4038 8.02995 19.3912 7.61365 19.3912C7.20202 19.3912 7.12969 19.405 6.83827 19.5399C6.185 19.8421 5.80156 20.3897 5.76298 21.0754C5.71459 21.9358 6.21385 22.6478 7.04964 22.9104C7.74792 23.1297 8.44543 22.9421 8.96315 22.396C9.20503 22.1407 9.4245 21.7297 9.4245 21.5318C9.4245 21.4737 9.61613 21.4637 10.7293 21.4637C11.9771 21.4637 12.0395 21.4595 12.1597 21.3671L12.2853 21.2706V20.1329V18.9953H12.6355C13.0159 18.9953 13.1436 18.9267 13.1436 18.7226C13.1436 18.6261 12.3858 17.4634 12.1754 17.2371C12.1218 17.1795 12.0425 17.1323 11.9992 17.1323C11.9559 17.1323 11.8763 17.1795 11.8222 17.2371Z" />
	</symbol>

	<symbol id="adv-icon2" viewBox="0 0 18 21">
		<path fill-rule="evenodd" clip-rule="evenodd"
			d="M7.08337 0.0413927C6.92466 0.114399 6.83672 0.211212 6.54651 0.632412C6.17966 1.16482 6.01607 1.31337 5.70693 1.39474C5.52631 1.44229 5.34798 1.43152 4.89143 1.3455C4.31713 1.23728 4.23932 1.23074 4.07753 1.27711C3.97377 1.30683 3.91737 1.34163 3.82429 1.43333C3.68071 1.57484 3.64089 1.68027 3.53669 2.19494C3.49763 2.38786 3.44922 2.59663 3.4291 2.65886C3.29339 3.07891 3.01967 3.31049 2.53507 3.41518C2.42284 3.43944 2.20182 3.4866 2.04393 3.51998C1.59615 3.61467 1.45937 3.6924 1.34181 3.91902C1.24774 4.10039 1.24852 4.21539 1.34695 4.6843C1.41888 5.02695 1.43489 5.15022 1.43509 5.36321C1.43532 5.60934 1.43135 5.63177 1.36183 5.77643C1.25307 6.00266 1.09778 6.14773 0.639567 6.45116C0.112967 6.79987 0 6.93264 0 7.20285C0 7.39017 0.05328 7.50621 0.326937 7.91508C0.466407 8.12342 0.611136 8.35321 0.64857 8.42572C0.787787 8.69531 0.787718 8.9932 0.648409 9.2843C0.611274 9.3619 0.4741 9.58325 0.343587 9.77617C0.0622136 10.1921 0.00110238 10.3233 0.00105645 10.5117C0.000964585 10.7894 0.120776 10.9322 0.639292 11.2724C1.17857 11.6262 1.31783 11.7726 1.41024 12.0829C1.46679 12.2729 1.45471 12.4671 1.35363 12.9921C1.25367 13.5115 1.25059 13.6186 1.33062 13.7931C1.38432 13.9101 1.49756 14.0209 1.63237 14.0882C1.69754 14.1207 1.93657 14.1818 2.24072 14.2437C2.82779 14.3631 2.97167 14.4213 3.17577 14.6221C3.33035 14.7742 3.40866 14.9271 3.44811 15.1539C3.49965 15.45 3.45787 15.5786 3.008 16.5088C2.92974 16.6706 2.80085 16.9404 2.72158 17.1085C2.64232 17.2765 2.39429 17.801 2.17045 18.2739C1.76743 19.1255 1.64162 19.4126 1.6625 19.4332C1.66842 19.439 2.10548 19.4329 2.63369 19.4195C3.16192 19.4061 3.61994 19.4014 3.65152 19.4091C3.74233 19.4311 3.84728 19.5192 3.96445 19.6717C4.10112 19.8496 4.22871 20.0083 4.62918 20.4986C5.07292 21.0418 5.04812 21.0143 5.07274 20.9891C5.09143 20.97 5.18929 20.7668 5.66638 19.7562C5.71045 19.6629 5.93246 19.1944 6.1597 18.7152C6.38694 18.236 6.61283 17.7592 6.66168 17.6556L6.75049 17.4672L6.84878 17.5271C7.31905 17.8139 7.44049 17.7979 8.09964 17.3621C8.58695 17.0399 8.75026 16.9799 9.08611 17C9.32143 17.014 9.44728 17.0676 9.81342 17.3099C10.2631 17.6073 10.3369 17.6504 10.4592 17.6863C10.6898 17.7539 10.8567 17.7228 11.0834 17.5698C11.1667 17.5136 11.2387 17.4715 11.2434 17.4761C11.2513 17.4839 11.4486 17.8913 11.5813 18.1738C11.674 18.3711 11.8683 18.78 12.1721 19.4168C12.276 19.6346 12.3948 19.8841 12.4362 19.9712C12.822 20.7846 12.901 20.9498 12.9216 20.9861C12.9421 21.0222 13.0046 20.9545 13.3808 20.4883C13.6203 20.1915 13.8866 19.8592 13.9725 19.7499C14.1455 19.5298 14.2335 19.4543 14.3535 19.4227C14.4003 19.4104 14.8293 19.406 15.3812 19.4122C16.4423 19.424 16.3654 19.4374 16.2858 19.2546C16.2623 19.2007 16.0335 18.7135 15.7774 18.1721C15.1629 16.8728 15.1877 16.9251 14.8226 16.158C14.5154 15.5125 14.5048 15.4855 14.5054 15.3433C14.5072 14.8367 14.9076 14.4067 15.4827 14.2939C15.5879 14.2733 15.8065 14.2309 15.9685 14.1997C16.3935 14.1178 16.5633 14.0168 16.6712 13.7818C16.7393 13.6333 16.7317 13.4421 16.64 12.9982C16.5966 12.7882 16.5542 12.5552 16.5459 12.4805C16.5137 12.1914 16.6297 11.8653 16.8404 11.6521C16.9044 11.5874 17.1208 11.4288 17.3215 11.2995C17.8742 10.9435 17.9921 10.805 17.9922 10.5117C17.9923 10.3095 17.9626 10.2457 17.6552 9.78645C17.5222 9.58786 17.3927 9.38466 17.3673 9.33488C17.2052 9.01739 17.2092 8.69353 17.3791 8.36176C17.4109 8.29953 17.5346 8.10819 17.6538 7.93656C17.9885 7.45473 18.0448 7.29767 17.9718 7.05023C17.9171 6.86459 17.7911 6.74352 17.3413 6.44409C16.8942 6.14646 16.7434 6.00823 16.6492 5.80987C16.5103 5.51746 16.5091 5.36598 16.6406 4.71494C16.6837 4.50153 16.7189 4.26167 16.7189 4.18192C16.7189 3.93941 16.5853 3.73769 16.3524 3.62843C16.3076 3.60747 16.0446 3.5413 15.7678 3.48142C15.213 3.36136 15.0384 3.29585 14.8731 3.14563C14.65 2.94299 14.5815 2.78222 14.4572 2.16928C14.3626 1.70266 14.2959 1.52919 14.167 1.41443C13.957 1.2275 13.8314 1.21709 13.1845 1.33319C12.9016 1.38395 12.6204 1.4255 12.5598 1.4255C12.2861 1.4255 12.0102 1.31232 11.8158 1.12026C11.7526 1.05787 11.5896 0.842288 11.4535 0.641147C11.0831 0.0939409 10.9672 -0.000428522 10.666 1.45854e-06C10.4618 0.000273025 10.3739 0.0403065 9.92423 0.337921C9.73337 0.464222 9.51689 0.597041 9.4432 0.633068C9.25499 0.725084 9.04298 0.75817 8.85179 0.725378C8.63929 0.688898 8.51183 0.626822 8.112 0.365077C7.61594 0.0403065 7.55731 0.0126293 7.34897 0.00486703C7.21765 -4.3799e-05 7.15454 0.00864632 7.08337 0.0413927ZM9.40438 2.87442C10.2885 2.93713 11.2179 3.20001 11.8745 3.57305C11.9644 3.62413 12.0435 3.66592 12.0502 3.66592C12.0569 3.66592 12.1929 3.75167 12.3525 3.85647C13.811 4.81465 14.7446 6.27156 15.0226 8.02339C15.0903 8.44952 15.0969 9.34042 15.0352 9.71959C14.7806 11.2847 14.03 12.5709 12.8 13.5495C11.9649 14.2139 10.9844 14.6397 9.88666 14.8147C9.56875 14.8654 8.59744 14.8728 8.27907 14.8269C7.11842 14.6596 6.21516 14.2954 5.30504 13.6276C4.9837 13.3919 4.39772 12.8191 4.15453 12.5032C3.6142 11.8011 3.27447 11.0952 3.06544 10.2401C2.94023 9.72797 2.90842 9.44868 2.9095 8.87095C2.91054 8.32243 2.94717 7.99746 3.06319 7.50782C3.69779 4.82956 6.11806 2.90737 8.92211 2.85464C9.01053 2.85299 9.22755 2.86188 9.40438 2.87442ZM8.50873 3.56667C6.61577 3.76099 5.00699 4.84803 4.17897 6.49228C3.78904 7.26658 3.61925 7.98779 3.61905 8.87095C3.61889 9.50843 3.689 9.94864 3.88425 10.5359C4.41283 12.1256 5.66709 13.3597 7.29858 13.8954C7.8811 14.0867 8.39473 14.1665 9.04265 14.1665C9.86797 14.1665 10.5884 14.0088 11.3105 13.6701C13.465 12.6594 14.6992 10.3282 14.3178 7.98933C14.1178 6.7621 13.4414 5.60276 12.4473 4.78295C11.8903 4.32361 11.1199 3.92432 10.4429 3.74411C9.95179 3.61338 9.64431 3.57205 9.10583 3.5644C8.82795 3.56047 8.55925 3.56148 8.50873 3.56667ZM11.2187 7.37308C11.3232 7.44421 11.5211 7.69034 11.543 7.77651C11.5511 7.80815 11.5452 7.87641 11.53 7.92818C11.5062 8.00884 11.3538 8.16791 10.4639 9.04068C8.68327 10.7869 8.70081 10.7708 8.47249 10.8699L8.27547 10.9554L8.04763 10.8353C7.82968 10.7206 7.79186 10.6883 7.17912 10.093C6.82676 9.75071 6.50898 9.42537 6.47293 9.37004C6.42532 9.29697 6.40741 9.24123 6.40747 9.16637C6.40757 9.04228 6.45189 8.96502 6.61541 8.80389C6.79626 8.62568 6.9312 8.5835 7.07919 8.65892C7.11902 8.6792 7.36911 8.90632 7.63496 9.16361C7.90618 9.4261 8.15159 9.64473 8.19415 9.66175C8.36722 9.73102 8.35881 9.73788 9.62306 8.4963C10.3219 7.81003 10.8151 7.34287 10.8632 7.32168C10.9694 7.27488 11.1026 7.29414 11.2187 7.37308Z" />
	</symbol>

	<symbol id="adv-icon3" viewBox="0 0 22 15">
		<path fill-rule="evenodd" clip-rule="evenodd"
			d="M1.91304 0.0330042C0.963643 0.233312 0.236633 0.948815 0.0421933 1.87427C0.00443723 2.05399 0 2.6454 0 7.49739C0 12.3494 0.00443723 12.9408 0.0421933 13.1205C0.205838 13.8993 0.773295 14.5619 1.52023 14.8461C1.96589 15.0157 1.22265 15.0041 11.093 14.9962L20.0471 14.9891L20.2418 14.9298C20.3488 14.8972 20.5127 14.8366 20.6059 14.7952C21.2854 14.493 21.8046 13.8499 21.9578 13.1205C21.9956 12.9408 22 12.3494 22 7.49739C22 2.6454 21.9956 2.05399 21.9578 1.87427C21.7765 1.01138 21.1339 0.332203 20.2464 0.0655767L20.0471 0.0056952L11.0664 0.00113496C3.46141 -0.00272164 2.05928 0.00215141 1.91304 0.0330042ZM5.37982 3.77408C5.51528 3.81098 5.67188 3.96457 5.7095 4.09741C5.74901 4.23703 5.74901 5.59825 5.7095 5.73787C5.67061 5.87527 5.51461 6.02524 5.37127 6.0631C5.29238 6.08395 4.94833 6.09067 4.243 6.08514C3.17002 6.07678 3.17632 6.07746 3.0331 5.95019C2.8888 5.82193 2.88351 5.7915 2.87411 5.0349C2.8693 4.64794 2.87307 4.27036 2.88248 4.19583C2.90937 3.98328 3.05234 3.8157 3.24481 3.77114C3.38784 3.73802 5.25683 3.7406 5.37982 3.77408ZM18.7711 4.24313C18.9074 4.28023 19.0643 4.43452 19.1003 4.56679C19.1672 4.81289 19.0048 5.06768 18.7431 5.12722C18.5927 5.16144 12.4487 5.15928 12.3227 5.12496C12.1163 5.06875 11.977 4.89067 11.977 4.68312C11.977 4.61643 11.9958 4.52604 12.0189 4.48229C12.0721 4.38136 12.2053 4.2707 12.2973 4.25087C12.3364 4.24245 12.3803 4.23166 12.3949 4.22687C12.4095 4.2221 13.8264 4.21733 15.5435 4.21629C17.7453 4.21493 18.6966 4.22285 18.7711 4.24313ZM5.92512 8.95338C6.10511 9.05045 6.19696 9.19244 6.19696 9.37357C6.19696 9.58112 6.05763 9.7592 5.85123 9.81541C5.78991 9.83211 5.29358 9.84233 4.54348 9.84233C3.79338 9.84233 3.29705 9.83211 3.23573 9.81541C3.02933 9.7592 2.89 9.58112 2.89 9.37357C2.89 9.30689 2.90889 9.21649 2.93198 9.17274C2.98517 9.07182 3.11831 8.96115 3.21038 8.94132C3.24944 8.9329 3.29336 8.92183 3.30797 8.91672C3.32258 8.91161 3.90248 8.90971 4.59662 8.9125C5.61005 8.91656 5.87179 8.92461 5.92512 8.95338ZM10.2295 8.95338C10.4095 9.05045 10.5013 9.19244 10.5013 9.37357C10.5013 9.58112 10.362 9.7592 10.1556 9.81541C10.0943 9.83211 9.59793 9.84233 8.84783 9.84233C8.09773 9.84233 7.6014 9.83211 7.54007 9.81541C7.33368 9.7592 7.19435 9.58112 7.19435 9.37357C7.19435 9.30689 7.21324 9.21649 7.23633 9.17274C7.28952 9.07182 7.42266 8.96115 7.51473 8.94132C7.55378 8.9329 7.59771 8.92183 7.61232 8.91672C7.62693 8.91161 8.20682 8.90971 8.90097 8.9125C9.9144 8.91656 10.1761 8.92461 10.2295 8.95338ZM14.5338 8.95338C14.7138 9.05045 14.8057 9.19244 14.8057 9.37357C14.8057 9.58112 14.6663 9.7592 14.4599 9.81541C14.3986 9.83211 13.9023 9.84233 13.1522 9.84233C12.4021 9.84233 11.9057 9.83211 11.8444 9.81541C11.638 9.7592 11.4987 9.58112 11.4987 9.37357C11.4987 9.30689 11.5176 9.21649 11.5407 9.17274C11.5939 9.07182 11.727 8.96115 11.8191 8.94132C11.8581 8.9329 11.9021 8.92183 11.9167 8.91672C11.9313 8.91161 12.5112 8.90971 13.2053 8.9125C14.2187 8.91656 14.4805 8.92461 14.5338 8.95338ZM18.8382 8.95338C19.0182 9.05045 19.11 9.19244 19.11 9.37357C19.11 9.5547 19.0182 9.69669 18.8382 9.79376C18.7519 9.84032 16.3244 9.8614 16.1565 9.81705C15.9438 9.7609 15.803 9.58425 15.803 9.37357C15.803 9.30689 15.8219 9.21649 15.845 9.17274C15.8982 9.07182 16.0314 8.96115 16.1234 8.94132C16.1625 8.9329 16.2064 8.92183 16.221 8.91672C16.2356 8.91161 16.8155 8.90971 17.5097 8.9125C18.5231 8.91656 18.7848 8.92461 18.8382 8.95338ZM9.68417 11.2788C9.91836 11.3426 10.0767 11.6054 10.0154 11.8286C9.97721 11.9676 9.8235 12.1208 9.68417 12.1588C9.55185 12.1948 3.41446 12.1987 3.25688 12.1629C2.77604 12.0535 2.76698 11.3865 3.24481 11.2759C3.3909 11.242 9.55948 11.2449 9.68417 11.2788Z" />
	</symbol>

	<symbol id="adv-icon4" viewBox="0 0 17 17">
		<path fill-rule="evenodd" clip-rule="evenodd"
			d="M1.18409 0.123195C0.77564 0.284121 0.397339 0.613887 0.173281 1.00427C-0.0436535 1.3822 -0.0553812 1.59662 0.129563 1.80632L0.267718 1.96302L2.07909 1.96547L3.89046 1.96792L3.87302 1.71129C3.8336 1.13256 3.36682 0.490877 2.75452 0.17381C2.36879 -0.0259518 1.62348 -0.0499403 1.18409 0.123195ZM4.16677 0.0342956C4.16677 0.0531306 4.24979 0.171786 4.35123 0.297925C4.75734 0.802851 4.94413 1.78755 4.88015 3.08594C4.81402 4.42703 4.60132 5.60947 3.95242 8.2433C3.26109 11.0493 3.04311 12.2107 2.94272 13.6238C2.86701 14.6884 2.92466 15.1486 3.19772 15.6606C3.44849 16.1306 4.00068 16.6379 4.45629 16.8167C4.94849 17.0099 5.83281 17.0148 6.30376 16.8269C7.1529 16.4882 7.78197 15.6568 7.88758 14.7338C7.97821 13.9422 7.79732 13.9882 10.8146 13.9882H13.2933L13.3962 13.0526C13.5134 11.9876 13.7798 10.6475 14.2304 8.85707C15.031 5.67659 15.2424 4.43372 15.2468 2.88354C15.2499 1.83608 15.2459 1.8016 15.0828 1.47018C14.7599 0.813956 14.2389 0.345105 13.5814 0.119023C13.2509 0.00539912 13.0287 0 8.70091 0C6.20718 0 4.16677 0.0153992 4.16677 0.0342956ZM13.472 4.13849C13.7062 4.37243 13.6366 4.7649 13.3368 4.9014C13.2331 4.94858 12.1819 4.9695 9.91331 4.9695C6.69422 4.9695 6.63675 4.96736 6.47765 4.84232C6.26815 4.67771 6.25464 4.33697 6.44935 4.12984L6.5829 3.98787H9.95211H13.3213L13.472 4.13849ZM13.0808 6.1185C13.2701 6.30771 13.2674 6.66276 13.0756 6.81798C12.9408 6.927 12.765 6.93277 9.56786 6.93277H6.20196L6.07473 6.7711C5.85467 6.49158 5.95813 6.11126 6.28006 6.01605C6.3858 5.98482 7.89906 5.96488 9.70669 5.97095L12.944 5.98181L13.0808 6.1185ZM12.484 8.01385C12.6337 8.07127 12.7716 8.38079 12.7268 8.55902C12.7054 8.64424 12.6182 8.76872 12.533 8.83566C12.383 8.95358 12.2765 8.95738 9.11507 8.95738C5.56208 8.95738 5.64921 8.96572 5.51529 8.61375C5.45002 8.44227 5.53328 8.16803 5.68562 8.05244C5.76361 7.99329 6.54133 7.97575 9.08566 7.97575C10.9001 7.97575 12.4294 7.99293 12.484 8.01385ZM12.0216 10.0286C12.3053 10.1752 12.354 10.5374 12.1212 10.77L11.9705 10.9206H8.63282C5.35878 10.9206 5.29259 10.9182 5.16082 10.7955C4.90808 10.5603 5.00516 10.1031 5.33342 9.98251C5.38408 9.96392 6.87063 9.94649 8.63687 9.94386C11.3389 9.93981 11.8757 9.95324 12.0216 10.0286ZM9.24414 15.0159C9.22971 15.0412 9.19846 15.1723 9.17463 15.3073C9.10973 15.6754 8.75194 16.3781 8.46138 16.7079L8.20405 17L11.8191 16.9819L15.4341 16.9638L15.7874 16.7984C16.1636 16.6222 16.771 16.0932 16.9137 15.8173C17.0801 15.4959 17.0021 15.1955 16.7123 15.0412C16.5595 14.9599 9.29019 14.9353 9.24414 15.0159Z" />
	</symbol>

	<symbol id="arrow-left" viewBox="0 0 21 6">
		<path
			d="M20 3.5L20.5 3.5L20.5 2.5L20 2.5L20 3.5ZM0 3L5 5.88675L5 0.113248L0 3ZM20 2.5L4.5 2.5L4.5 3.5L20 3.5L20 2.5Z" />
	</symbol>

	<symbol id="list-icon" viewBox="0 0 17 25">
		<path fill-rule="evenodd" clip-rule="evenodd"
			d="M8.24498 0.018077C7.40407 0.142308 6.68365 0.824969 6.40197 1.76451L6.34186 1.96495L5.13624 1.9651C4.37659 1.96518 3.89362 1.97531 3.83062 1.99248C3.77562 2.00746 3.68928 2.05536 3.63872 2.09892L3.5468 2.17811V2.65514V3.13217L1.97853 3.13947C0.411587 3.14674 0.410158 3.14679 0.299307 3.20495C0.175858 3.2697 0.0756739 3.38723 0.0301213 3.52073C0.00780826 3.58616 0 6.32468 0 14.0933V24.5777L0.0670452 24.7097C0.108945 24.7922 0.175116 24.8696 0.243459 24.9161L0.3528 24.9904L8.47513 24.9971C16.5188 25.0036 16.5984 25.0032 16.7 24.9524C16.8305 24.887 16.9541 24.7402 16.9876 24.6109C17.0104 24.5225 17.0021 18.8338 16.9595 5.54929L16.9532 3.56232L16.8797 3.43964C16.832 3.36009 16.7622 3.29159 16.6811 3.24484L16.5561 3.17271L14.9895 3.16544L13.4229 3.15814L13.4146 2.67639L13.4064 2.1946L13.3096 2.10764C13.2564 2.05983 13.1671 2.00822 13.1111 1.99297C13.046 1.97523 12.5835 1.96518 11.8274 1.9651L10.6456 1.96495L10.5892 1.77664C10.455 1.32844 10.248 0.964032 9.9538 0.657986C9.48419 0.169476 8.84368 -0.0703887 8.24498 0.018077ZM15.89 8.63146C15.8997 11.0552 15.9077 15.5025 15.9077 18.5144V23.9905H8.50967H1.11168V14.1205V4.25061H2.34247H3.57327V4.90785V5.56508L3.65929 5.64461C3.70659 5.68835 3.78581 5.73739 3.83528 5.7536C3.90097 5.7751 5.16374 5.78305 8.51446 5.78305C13.535 5.78305 13.195 5.79388 13.3534 5.62874L13.4328 5.54596L13.4407 4.8853L13.4486 4.22464H14.6605H15.8724L15.89 8.63146ZM5.16199 8.42159C5.11139 8.44315 4.88201 8.6439 4.65229 8.86774L4.23461 9.27472L4.05613 9.10322C3.84439 8.89971 3.79838 8.8739 3.64738 8.8739C3.40583 8.8739 3.24299 9.04075 3.26313 9.26765C3.2765 9.41825 3.33606 9.49448 3.74103 9.87943C4.06765 10.1899 4.13152 10.223 4.33424 10.1864C4.41878 10.1712 4.52106 10.0832 5.02441 9.59263C5.34942 9.27589 5.63229 8.98519 5.65304 8.94662C5.70931 8.84197 5.70079 8.6492 5.63525 8.54518C5.53597 8.38752 5.35384 8.33996 5.16199 8.42159ZM7.03428 8.85862C6.81589 8.93574 6.68286 9.08701 6.65443 9.29062C6.61864 9.54679 6.78598 9.80892 7.03142 9.88107C7.18841 9.92723 13.0873 9.92702 13.2443 9.88086C13.398 9.8357 13.5916 9.64476 13.631 9.49962C13.6918 9.27573 13.5843 9.02917 13.3726 8.90706L13.2476 8.83494L10.1904 8.8293C7.68432 8.8247 7.11546 8.82997 7.03428 8.85862ZM5.25403 12.017C5.12319 12.0444 5.08555 12.0747 4.66007 12.4943L4.25142 12.8973L4.04661 12.7053C3.82827 12.5005 3.73965 12.4624 3.55948 12.4956C3.43142 12.5192 3.28791 12.6483 3.26676 12.7589C3.22841 12.9595 3.26345 13.0194 3.63518 13.3889C3.82676 13.5794 4.01823 13.7531 4.06066 13.7749C4.11312 13.8019 4.18382 13.8108 4.28189 13.8029L4.42598 13.7911L5.05572 13.1701C5.63446 12.5994 5.68692 12.5402 5.70368 12.4387C5.7177 12.3536 5.70937 12.3029 5.66736 12.2179C5.58753 12.0564 5.43036 11.98 5.25403 12.017ZM6.93293 12.4664C6.71766 12.578 6.59485 12.8708 6.66981 13.0937C6.71327 13.223 6.84471 13.365 6.97425 13.4228C7.07494 13.4676 7.23698 13.4701 10.1375 13.4701C13.5814 13.4701 13.3042 13.4866 13.5042 13.2689C13.7297 13.0235 13.6931 12.7228 13.4105 12.4996L13.3088 12.4193L10.1795 12.4125L7.05019 12.4057L6.93293 12.4664ZM5.20217 15.4713C5.15546 15.4858 4.9471 15.6688 4.6854 15.9253L4.24692 16.355L4.11524 16.2216C3.84986 15.9528 3.66736 15.8859 3.46792 15.9842C3.28436 16.0747 3.21022 16.2775 3.29201 16.4655C3.31199 16.5115 3.49534 16.7098 3.69947 16.9062L4.07056 17.2633H4.23819H4.40584L5.04829 16.6329L5.69076 16.0025V15.8654C5.69076 15.5676 5.46906 15.3887 5.20217 15.4713ZM6.97449 15.8714C6.78966 15.9518 6.64479 16.1696 6.64479 16.3672C6.64479 16.4955 6.71809 16.6562 6.81896 16.749C6.99212 16.9083 6.8022 16.8997 10.1447 16.8997H13.1975L13.3381 16.831C13.493 16.7552 13.6126 16.6031 13.6432 16.443C13.6691 16.3076 13.598 16.097 13.4935 15.9996C13.3027 15.822 13.5625 15.8347 10.1454 15.8358C7.63271 15.8366 7.03902 15.8433 6.97449 15.8714ZM5.18785 18.9394C5.1369 18.9616 4.90205 19.1686 4.66597 19.3995L4.23673 19.8194L4.03072 19.6227C3.79941 19.4019 3.71728 19.3687 3.53018 19.4201C3.39243 19.4579 3.29177 19.5629 3.2665 19.6951C3.23232 19.8739 3.28349 19.9544 3.67393 20.3364C3.97278 20.6289 4.05992 20.6996 4.14446 20.7185C4.35076 20.7647 4.38633 20.7398 5.06213 20.0745L5.69076 19.4556L5.69065 19.314C5.69044 19.0152 5.44111 18.8295 5.18785 18.9394ZM6.97449 19.3324C6.69323 19.4776 6.57407 19.7728 6.69299 20.0297C6.74474 20.1415 6.8999 20.2905 7.00561 20.3299C7.04444 20.3444 8.30242 20.3542 10.134 20.3542H13.1975L13.336 20.2864C13.4876 20.2123 13.5892 20.0903 13.6338 19.929C13.6932 19.7139 13.5503 19.4371 13.3288 19.3384C13.226 19.2926 13.0811 19.2904 10.1375 19.2909C7.37991 19.2913 7.0455 19.2957 6.97449 19.3324Z" />
	</symbol>

	<symbol id="payment" viewBox="0 0 24 17">
		<path fill-rule="evenodd" clip-rule="evenodd"
			d="M13.9188 0.0151558C13.8406 0.0399532 13.8008 0.0617738 12.8489 0.602152C12.457 0.82464 11.9114 1.13419 11.6364 1.29003C11.3614 1.44588 11.0351 1.63154 10.9114 1.70259C10.7876 1.77363 10.3207 2.03915 9.87383 2.29261C9.13395 2.71225 8.00653 3.35206 7.59874 3.58375C7.50936 3.63453 7.3406 3.73094 7.22372 3.79802C7.10684 3.86508 6.89309 3.98705 6.74871 4.06907C6.60433 4.15106 6.23306 4.36199 5.92367 4.53774C5.61429 4.71351 5.32178 4.87915 5.27365 4.90584C5.15114 4.97373 3.3572 5.9939 2.79855 6.31334C2.54417 6.4588 2.27978 6.60827 2.21103 6.64547C2.14228 6.68269 2.02415 6.74958 1.94852 6.79411C1.87289 6.83866 1.4894 7.05733 1.09634 7.28007C0.162954 7.80893 0.140053 7.82416 0.0594001 7.96999C0.00297294 8.07199 -0.00560235 8.11319 0.00272297 8.24178C0.0121983 8.38789 0.0322741 8.42707 0.559594 9.32817C0.860481 9.84232 1.22107 10.4567 1.36092 10.6935C1.50078 10.9303 2.0464 11.8602 2.57345 12.76C3.9753 15.1532 4.04783 15.2748 4.12011 15.3523C4.25244 15.4942 4.48492 15.5517 4.6697 15.4883C4.75148 15.4603 4.92561 15.3628 6.80961 14.291C6.98749 14.1898 7.1675 14.0878 7.20962 14.0643C7.25175 14.0408 8.05126 13.5867 8.98629 13.0552C9.92133 12.5237 10.9114 11.9617 11.1864 11.8063C11.4614 11.6509 11.8158 11.449 11.9739 11.3577C12.132 11.2663 12.3008 11.1707 12.3489 11.1451C12.397 11.1196 12.6474 10.9781 12.9052 10.8307C13.2762 10.6186 13.374 10.552 13.3743 10.5112C13.3745 10.483 13.4065 10.3697 13.4455 10.2596L13.5163 10.0593L13.4405 9.84134C13.373 9.64734 13.3635 9.58417 13.3543 9.26667C13.3455 8.96452 13.3521 8.87609 13.3971 8.68855C13.477 8.35618 13.6559 8.01642 13.8723 7.78625C14.2934 7.33832 14.9347 6.91035 15.5657 6.65617C15.8153 6.55563 15.8307 6.54517 15.8691 6.45088C15.9816 6.17415 16.2132 5.83294 16.4091 5.65525C16.5372 5.53906 16.8203 5.33057 16.85 5.33057C16.8612 5.33057 16.9723 5.50491 17.0968 5.71803C17.2214 5.93114 17.3326 6.11934 17.3439 6.13626C17.3604 6.16077 17.4223 6.15953 17.6484 6.13019C17.8046 6.10992 17.9353 6.09038 17.939 6.08679C17.9426 6.0832 17.7536 5.75382 17.519 5.35485C17.2844 4.95587 16.9462 4.38037 16.7676 4.07593C16.589 3.7715 16.316 3.30655 16.161 3.04271C16.006 2.77887 15.7526 2.34712 15.5978 2.08328C14.9223 0.931234 14.6602 0.485544 14.5642 0.325222C14.4898 0.201112 14.4301 0.134862 14.3476 0.0847753C14.2242 0.00989092 14.0333 -0.0211056 13.9188 0.0151558ZM14.4308 1.17921C14.7777 1.77216 15.1253 2.36358 15.1841 2.4608C15.217 2.51525 15.1659 2.55606 14.9532 2.64496C13.9494 3.06465 12.7483 2.70774 12.1258 1.8048C12.0809 1.73959 12.048 1.68337 12.0528 1.67991C12.0704 1.66706 13.7406 0.720579 13.849 0.66198C13.9109 0.628524 13.9722 0.591475 13.9852 0.579593C13.9983 0.567735 14.0221 0.558043 14.0382 0.558043C14.0543 0.558043 14.2309 0.83758 14.4308 1.17921ZM16.6991 0.653592C16.6343 0.674748 15.8034 1.13704 15.7645 1.17365C15.7465 1.19048 15.8633 1.41191 15.9964 1.61346C16.0146 1.64104 16.0995 1.60276 16.4188 1.4228C16.6385 1.29899 16.828 1.19783 16.8399 1.19803C16.8518 1.19823 17.0278 1.4833 17.231 1.83149C17.4342 2.17969 17.6902 2.61726 17.7998 2.80386C17.9094 2.99046 17.9991 3.14888 17.9991 3.15597C17.9991 3.17673 17.6792 3.31341 17.514 3.3632C17.4302 3.38845 17.3026 3.41666 17.2304 3.42589C17.1582 3.43511 17.0991 3.45324 17.0991 3.46616C17.0991 3.49137 17.6081 4.38049 18.2122 5.41052L18.5837 6.04399L18.8227 6.04411C19.1299 6.04428 19.9472 6.08812 20.1805 6.11693C20.2796 6.12918 20.3649 6.13516 20.37 6.13019C20.3827 6.11762 20.1412 5.70216 18.4245 2.7844C18.1539 2.32437 17.8978 1.88709 17.8554 1.81268C17.5881 1.34298 17.2898 0.855612 17.2337 0.797038C17.1977 0.75935 17.1345 0.711354 17.0933 0.690419C17.0045 0.645178 16.7871 0.624883 16.6991 0.653592ZM9.94108 4.25616C10.5935 4.47358 11.1145 5.06171 11.3 5.78994C11.3456 5.96918 11.3527 6.05065 11.3422 6.27676C11.329 6.56254 11.2766 6.7558 11.1411 7.01886C11.0558 7.18445 10.8163 7.47926 10.6467 7.62741C10.3871 7.85413 9.62879 8.32336 8.75503 8.79795C8.57283 8.89692 8.42377 8.98701 8.42377 8.99815C8.42377 9.0093 8.48125 9.11579 8.5515 9.23479C8.62175 9.3538 8.71841 9.52033 8.76626 9.60485C8.81411 9.68936 8.86071 9.76289 8.86979 9.76823C8.88749 9.77863 8.91221 9.76515 9.78632 9.2682C11.0324 8.55975 11.1774 8.47945 11.2109 8.47945C11.2764 8.47945 11.6103 9.03653 11.5845 9.1028C11.5757 9.12529 11.4825 9.19201 11.3775 9.25102C11.2724 9.31004 10.9389 9.49927 10.6364 9.67152C10.3338 9.84377 9.91758 10.0794 9.71132 10.1952C9.50506 10.3109 9.32173 10.4187 9.3039 10.4347C9.27785 10.4581 9.31613 10.5395 9.49929 10.8502C9.63282 11.0767 9.72379 11.2576 9.71919 11.2872C9.71357 11.3234 9.61214 11.3941 9.36573 11.5338C9.17565 11.6415 9.00279 11.7262 8.98157 11.722C8.96034 11.7179 8.84206 11.5428 8.71868 11.3331C8.59533 11.1234 8.48537 10.9425 8.47432 10.9311C8.4633 10.9198 8.36157 10.9631 8.24824 11.0274C8.09023 11.1171 8.03281 11.1385 8.00175 11.1195C7.9512 11.0885 7.65057 10.5969 7.64952 10.5436C7.64849 10.4919 7.70132 10.4488 7.90525 10.3346C7.99823 10.2825 8.07136 10.2336 8.06776 10.2259C8.0154 10.1136 7.60516 9.44037 7.58869 9.43973C7.57629 9.43927 7.47853 9.48859 7.37145 9.54938C7.26253 9.6112 7.16 9.65354 7.1387 9.64552C7.10004 9.63091 6.77338 9.1049 6.77408 9.05835C6.77483 9.00979 6.81231 8.97894 6.99872 8.87348C7.22665 8.74455 7.211 8.75773 7.18092 8.7199C7.1672 8.70265 7.11632 8.6166 7.06782 8.52865C7.01934 8.4407 6.71616 7.9204 6.39409 7.37242C5.61644 6.04927 5.64866 6.1065 5.64866 6.0492C5.64866 6.01097 5.71614 5.96059 5.92992 5.83931C6.08463 5.75153 6.39119 5.57751 6.6112 5.45256C7.59354 4.89469 8.19611 4.55757 8.32352 4.49459C8.52612 4.39439 8.93742 4.2477 9.1237 4.2092C9.35846 4.16066 9.71622 4.18122 9.94108 4.25616ZM9.01129 5.09448C8.87429 5.13728 8.5721 5.27745 8.36127 5.396C7.84572 5.6859 6.85846 6.25073 6.84079 6.26591C6.82481 6.27961 7.341 7.20415 7.42423 7.31092C7.43478 7.32445 7.47698 7.39641 7.51801 7.47082C7.57779 7.57926 7.96735 8.24806 7.98818 8.27802C7.99565 8.28877 8.55905 7.97745 9.04879 7.69191C9.59146 7.37552 9.86082 7.18381 10.0763 6.96063C10.4473 6.57624 10.5099 6.21737 10.2867 5.75382C10.1939 5.56112 9.98203 5.3193 9.81397 5.21416C9.58449 5.07064 9.24823 5.02048 9.01129 5.09448ZM18.3742 6.70963C17.2563 6.77664 16.2152 7.03485 15.4115 7.44438C15.0237 7.64202 14.7997 7.79297 14.5544 8.02205C13.7092 8.81131 13.8192 9.79411 14.8355 10.5337C16.2185 11.54 18.8387 11.9062 21.0678 11.4047C23.2929 10.904 24.4555 9.69359 23.8332 8.5255C23.2006 7.33798 20.8631 6.56048 18.3742 6.70963ZM2.65812 7.2845C2.90103 7.84089 2.92118 8.49303 2.71175 9.01889C2.52694 9.48291 2.23021 9.85049 1.82084 10.1225L1.70569 10.199L1.12639 9.21024C0.646597 8.3913 0.553469 8.21721 0.58422 8.19671C0.604646 8.18308 0.71465 8.1193 0.828655 8.05497C0.942684 7.99063 1.3735 7.74527 1.78602 7.50969C2.19853 7.27414 2.54314 7.08046 2.55182 7.0793C2.56052 7.07815 2.60835 7.1705 2.65812 7.2845ZM20.7742 7.62841C21.3542 7.73179 21.7098 7.92175 21.8901 8.22451C21.988 8.38892 21.9872 8.62061 21.8881 8.78703C21.7877 8.95552 21.6693 9.05441 21.4295 9.17006C21.2039 9.27885 20.8826 9.368 20.5492 9.41432C20.4194 9.43238 19.8577 9.44864 19.1045 9.45614L17.8723 9.46844L17.8795 9.6883L17.8866 9.90816L19.1563 9.9068C19.9998 9.90589 20.4424 9.91411 20.4751 9.93133C20.5137 9.95165 20.5242 9.98306 20.5242 10.0773C20.5242 10.2948 20.656 10.2753 19.184 10.2753H17.8741V10.5064C17.8741 10.6944 17.8668 10.7402 17.8346 10.7524C17.7671 10.7779 17.0738 10.7689 17.0224 10.7418C16.9802 10.7196 16.9741 10.6887 16.9741 10.4958V10.2753H16.7268C16.5517 10.2753 16.4761 10.2663 16.468 10.2445C16.4516 10.2008 16.4661 9.95514 16.4862 9.93539C16.4954 9.92631 16.6089 9.91881 16.7384 9.91873L16.9739 9.91859V9.68488L16.9739 9.45117H16.7386C16.6091 9.45117 16.4957 9.44379 16.4865 9.43477C16.4597 9.40825 16.4415 9.22588 16.459 9.15744C16.4749 9.09513 16.4777 9.09447 16.7246 9.09447H16.9741V8.34825C16.9741 7.93782 16.9824 7.59388 16.9925 7.58389C17.0026 7.57392 17.8043 7.57033 18.7738 7.57592C20.302 7.58475 20.5684 7.59173 20.7742 7.62841ZM17.8741 8.50405V9.06986L18.2429 9.07501C18.9068 9.08426 19.7813 9.06817 20.0617 9.04155C20.7011 8.98083 21.0046 8.83048 21.0421 8.55586C21.0607 8.41918 20.9753 8.25342 20.8384 8.1608C20.5621 7.97368 20.2481 7.93959 18.7929 7.93875L17.8741 7.93823V8.50405ZM14.0477 10.5615C14.034 10.5971 14.0105 10.7069 13.9956 10.8056C13.9623 11.026 14.0074 11.2802 14.1231 11.5234C14.5098 12.3366 15.7765 13.0273 17.3591 13.2882C17.553 13.3202 17.8016 13.3537 17.9116 13.3627C18.0216 13.3717 18.1398 13.3835 18.1741 13.389C18.3655 13.4192 19.2333 13.4273 19.5867 13.4022C20.622 13.3287 21.3437 13.1835 22.0543 12.906C23.2983 12.4201 23.9994 11.7178 23.9994 10.9575C23.9994 10.7883 23.9606 10.5778 23.9217 10.5355C23.9095 10.5223 23.8456 10.5641 23.7688 10.6354C23.6073 10.7855 23.2692 11.0112 22.924 11.1992C22.1072 11.6442 21.1216 11.9282 20.0242 12.0349C19.5412 12.0818 18.5719 12.0812 18.1047 12.0337C16.3082 11.8508 15.0772 11.4071 14.2621 10.6485C14.1723 10.565 14.093 10.4967 14.0858 10.4967C14.0786 10.4967 14.0615 10.5259 14.0477 10.5615ZM13.0489 11.4101C12.7616 11.574 11.2888 12.4075 9.7617 13.2704C9.22563 13.5733 8.78373 13.8244 8.77966 13.8284C8.77561 13.8324 8.84109 13.9048 8.92514 13.9894C9.07644 14.1415 9.2988 14.4202 9.2988 14.4576C9.2988 14.4683 8.87409 14.7178 8.35502 15.012C7.83595 15.3062 7.38741 15.5622 7.35825 15.581C7.30805 15.6133 7.30003 15.6063 7.20485 15.4483C7.1496 15.3566 7.07952 15.2372 7.04909 15.1831C6.94289 14.9942 6.89444 14.9248 6.86871 14.9248C6.82811 14.9248 6.42517 15.156 6.42439 15.1798C6.42297 15.2231 6.85766 15.9385 6.92666 16.0064C7.02867 16.1067 7.1958 16.1638 7.34628 16.1495C7.47398 16.1375 7.46643 16.1414 8.74878 15.4127C8.97567 15.2838 9.35256 15.0698 9.58632 14.9372C9.82007 14.8045 10.3713 14.4912 10.8114 14.2408C11.2514 13.9904 11.8308 13.661 12.0989 13.5088C12.367 13.3566 12.7496 13.1392 12.9489 13.0257L13.3115 12.8193L13.3409 12.5562C13.3704 12.2922 13.4248 12.0654 13.4872 11.9466C13.5164 11.8911 13.5132 11.8575 13.4615 11.6825C13.4289 11.5722 13.3946 11.4319 13.3852 11.3706C13.3759 11.3094 13.3555 11.2596 13.3399 11.2599C13.3242 11.2602 13.1933 11.3278 13.0489 11.4101ZM14.0487 12.3547C14.0051 12.4677 13.9717 12.7403 13.9874 12.8556C14.0372 13.2206 14.1772 13.4916 14.4772 13.8034C15.4802 14.8463 17.7679 15.4003 20.0617 15.1558C21.0213 15.0535 21.7103 14.8722 22.4477 14.5278C23.197 14.1779 23.6996 13.7278 23.9136 13.2151C23.9782 13.0602 23.9855 13.0143 23.9862 12.76C23.9866 12.5823 23.9742 12.4418 23.9528 12.3822L23.9188 12.2874L23.7903 12.4102C23.7197 12.4777 23.555 12.6045 23.4243 12.6919C22.6691 13.1972 21.763 13.5483 20.7492 13.7286C20.1363 13.8376 19.9053 13.8547 19.0492 13.8543C18.1799 13.8539 17.8414 13.8243 17.0693 13.6815C15.8488 13.4556 14.9505 13.0644 14.3007 12.4756C14.1895 12.3749 14.0928 12.2925 14.0857 12.2925C14.0786 12.2925 14.0619 12.3205 14.0487 12.3547ZM5.00216 12.7484C5.45431 12.842 5.89017 13.0885 6.21619 13.435C6.30499 13.5294 6.40687 13.6556 6.44254 13.7155C6.52125 13.8477 6.57102 13.8033 5.94868 14.1556C5.69429 14.2996 5.26742 14.5421 5.00006 14.6944C4.5659 14.9418 4.51095 14.9669 4.48587 14.9297C4.47044 14.9067 4.32779 14.6665 4.16888 14.3959C4.00998 14.1253 3.76024 13.7002 3.61391 13.4512C3.46758 13.2022 3.35085 12.996 3.35448 12.9929C3.3581 12.9898 3.41733 12.9598 3.48608 12.9262C3.93687 12.7061 4.48634 12.6416 5.00216 12.7484ZM23.8225 14.1527C23.7148 14.2669 23.4134 14.4994 23.1721 14.6544C22.4576 15.1133 21.4271 15.4497 20.3492 15.5758C18.6225 15.7778 16.9656 15.6096 15.7285 15.1066C15.2134 14.8971 14.5699 14.5317 14.2712 14.2791C14.1633 14.1877 14.0702 14.113 14.0645 14.113C14.0343 14.113 13.9891 14.3965 13.992 14.5681C13.9979 14.9287 14.1462 15.2524 14.4548 15.5781C15.1412 16.3028 16.4341 16.8016 18.0616 16.9694C18.5037 17.015 19.5812 17.0085 20.0242 16.9576C21.5773 16.7792 22.7989 16.3121 23.4743 15.6382C23.6966 15.4165 23.8103 15.2519 23.9201 14.9932C23.9778 14.8573 23.9858 14.8046 23.9863 14.5558C23.9868 14.2906 23.9503 14.0884 23.9018 14.0884C23.8915 14.0884 23.8558 14.1173 23.8225 14.1527Z"/>
	</symbol>

</svg>