<svg width="82" height="25" viewBox="0 0 82 25" fill="none" xmlns="http://www.w3.org/2000/svg">
<path d="M28.8269 24.7145L32.9541 0.495125H39.5555L35.4253 24.7145H28.8269ZM59.2756 1.01722C57.968 0.52655 55.9184 0 53.3592 0C46.8359 0 42.2414 3.28488 42.202 7.99278C42.1653 11.4729 45.4824 13.4144 47.9864 14.5728C50.5562 15.7603 51.4199 16.5172 51.4075 17.5771C51.391 19.2006 49.3555 19.942 47.4579 19.942C44.8158 19.942 43.4121 19.5749 41.2441 18.671L40.3931 18.2861L39.4668 23.7077C41.0087 24.3841 43.8599 24.9696 46.8205 25C53.7599 25 58.2648 21.7526 58.316 16.725C58.3406 13.9698 56.5819 11.8734 52.7732 10.1446C50.4659 9.02422 49.0527 8.27659 49.0677 7.14208C49.0677 6.13537 50.2638 5.05889 52.8486 5.05889C55.007 5.02536 56.571 5.49612 57.7894 5.98679L58.3809 6.26627L59.2756 1.01722ZM76.2635 0.494753H71.1625C69.5824 0.494753 68.3996 0.926041 67.7058 2.50322L57.9016 24.6985H64.8338C64.8338 24.6985 65.9669 21.7143 66.2233 21.0589C66.9808 21.0589 73.7151 21.0693 74.6778 21.0693C74.8752 21.9173 75.4809 24.6985 75.4809 24.6985H81.6066L76.2635 0.494012V0.494753ZM68.1701 16.1341C68.7162 14.7387 70.8004 9.36371 70.8004 9.36371C70.7616 9.42817 71.3424 7.96147 71.6756 7.05213L72.1217 9.14027C72.1217 9.14027 73.3858 14.9216 73.65 16.1338H68.1701V16.1341ZM23.2228 0.494753L16.7598 17.0113L16.0713 13.6549C14.868 9.78572 11.1195 5.59373 6.92871 3.49508L12.8384 24.6759L19.823 24.6681L30.2159 0.494506L23.2228 0.494383" fill="#0E4595"/>
<path d="M10.7293 0.494141H0.0843771L0 0.99805C8.28166 3.0028 13.7613 7.84753 16.0365 13.6694L13.7219 2.53959C13.3224 1.00597 12.1634 0.548205 10.7296 0.494758" fill="#F2AE14"/>
</svg>
