<svg width="152" height="35" viewBox="0 0 152 35" fill="none" xmlns="http://www.w3.org/2000/svg">
<path d="M11.8858 25.145H14.2198L17.7502 9.6441H15.2005L12.9792 21.2108H12.8272L9.80676 9.62443H7.8454L5.01125 21.1911H4.90338L2.45169 9.62443H0L3.53043 25.1253H5.88405L8.76233 14.2176H8.91434L11.8858 25.145ZM24.5169 23.886C22.2711 23.886 21.2022 22.7254 21.2022 20.1043H28.3072V19.2977C28.3072 15.7323 26.6302 13.9619 23.8942 13.9619C20.6236 13.9619 18.9467 16.3667 18.9467 19.6912C18.9467 23.1336 20.452 25.4204 24.1148 25.4204C25.4649 25.4381 26.7959 25.0988 27.9738 24.4368V22.7746C26.9463 23.459 25.7496 23.8438 24.5169 23.886ZM23.8402 15.4225C25.017 15.4225 26.1301 16.3421 26.238 18.6387H21.2365C21.4768 16.4454 22.5016 15.4176 23.8304 15.4176L23.8402 15.4225ZM33.1076 8.5376L30.8422 9.08347V24.3286C32.164 24.9937 33.6153 25.3596 35.0935 25.4007C38.2562 25.4007 40.2175 23.4336 40.2175 19.3223C40.2175 15.8258 38.7465 13.9423 36.0545 13.9423C35.0243 13.9756 34.0164 14.2519 33.1125 14.7488L33.1076 8.5376ZM33.1076 16.4061C33.8182 15.9487 34.6415 15.6984 35.4857 15.6832C36.9568 15.6832 37.9374 16.5782 37.9374 19.3568C37.9374 22.8976 36.7165 23.9057 35.1033 23.9057C34.4181 23.9269 33.7358 23.8081 33.0978 23.5565L33.1076 16.4061ZM45.7926 9.62443H43.1497V25.1253H45.1111V14.1685H45.3072L49.7546 25.145H51.152L55.5994 13.9078H55.7955V25.145H58.1492V9.62443H55.4474L50.7843 21.8452H50.6764L45.7926 9.62443ZM66.0583 25.386C69.0445 25.386 71.0303 23.4188 71.0303 19.6567C71.0303 15.8307 68.9366 13.9275 66.0583 13.9275C63.18 13.9275 61.0863 15.8307 61.0863 19.6567C61.0912 23.3943 63.077 25.4056 66.0632 25.4056L66.0583 25.386ZM66.0583 23.8565C64.5088 23.8565 63.3762 22.6517 63.3762 19.6567C63.3762 16.6618 64.6167 15.4569 66.0583 15.4569C67.4999 15.4569 68.7404 16.7011 68.7404 19.6567C68.7404 22.6123 67.6078 23.886 66.0632 23.886L66.0583 23.8565ZM73.6536 25.1253H75.919V16.5093C76.7317 16.0431 77.6417 15.7736 78.5766 15.7225C79.6897 15.7225 80.538 16.0274 80.538 17.7535V25.1647H82.8033V17.2323C82.8033 14.9799 81.8227 13.9521 79.2043 13.9521C77.2411 13.991 75.3229 14.5491 73.6438 15.57L73.6536 25.1253ZM90.9429 23.886C88.6972 23.886 87.6283 22.7254 87.6283 20.1043H94.7333V19.2977C94.7333 15.7323 93.0563 13.9619 90.3202 13.9619C87.0497 13.9619 85.3727 16.3667 85.3727 19.6912C85.3727 23.1336 86.878 25.4204 90.5409 25.4204C91.891 25.4381 93.2219 25.0988 94.3998 24.4368V22.7746C93.3724 23.459 92.1756 23.8438 90.9429 23.886ZM90.2663 15.4225C91.4431 15.4225 92.5562 16.3421 92.664 18.6387H87.6724C87.9126 16.4454 88.9375 15.4176 90.2663 15.4176V15.4225ZM101.279 22.3763H101.147L98.3568 14.3308H95.9591L100.147 25.263C99.6219 26.881 98.7099 28.0612 97.2045 28.0612V29.8563C99.7102 29.8563 101.039 28.2825 102.108 25.263L106.031 14.3308H103.697L101.279 22.3763Z" fill="#006CB4"/>
<path d="M133.652 8.10873e-06C136.413 -0.00255333 139.141 0.601758 141.644 1.77042C142.027 1.93762 142.409 2.13926 142.792 2.34088L141.124 3.77687L138.624 1.26881L134.314 4.9424L131.774 2.30153L123.855 9.13236L128.93 14.5419L126.968 16.214L131.975 21.5941L130.013 23.2661L137.172 30.9182L141.409 27.1758L145.096 31.1887C144.333 31.7565 143.532 32.2708 142.698 32.728C139.946 34.2232 136.865 35.0042 133.735 35C123.693 35 115.529 27.1315 115.529 17.4926C115.529 7.85373 123.614 8.10873e-06 133.652 8.10873e-06ZM130.317 16.4058L134.662 12.6633L138.555 16.8386L134.211 20.581L130.317 16.4058ZM133.411 23.6251L137.722 19.8482L141.644 24.0235L137.295 27.7659L133.411 23.6251ZM127.228 9.28974L131.568 5.54728L135.461 9.7225L131.117 13.4649L127.228 9.28974ZM135.182 7.28327L138.413 4.47521L141.355 7.58326L138.124 10.4208L135.182 7.28327ZM140.948 20.1482L144.16 17.3451L147.102 20.4826L143.87 23.2907L140.948 20.1482ZM143.797 26.4627L147.028 23.6546L149.946 26.7627L146.714 29.6002L143.797 26.4627ZM145.14 12.029L147.293 10.1553L149.254 12.2257L147.102 14.0944L145.14 12.029ZM142.36 5.84728L144.513 3.94409L146.474 6.04891L144.321 7.91767L142.36 5.84728ZM147.886 18.2106L150.039 16.3419L152 18.4122L149.813 20.281L147.886 18.2106ZM138.173 13.5584L141.404 10.7503L144.346 13.8584L141.115 16.6664L138.173 13.5584Z" fill="#006CB4"/>
</svg>
