<svg width="141" height="49" viewBox="0 0 141 49" fill="none" xmlns="http://www.w3.org/2000/svg">
<path d="M4.98006 17.2571C5.58789 17.3116 5.9004 17.1138 6.18138 16.6637C7.25368 14.9233 8.39191 13.2088 9.50435 11.4828C10.0176 10.6915 10.0806 10.6685 11.2906 10.9008C11.2906 12.988 11.2906 15.0925 11.2906 17.1941C12.0217 17.1941 12.6553 17.1941 13.3434 17.1941C13.3434 16.8328 13.3434 16.5289 13.3434 16.2192C13.3434 11.0986 13.3434 5.97509 13.3434 0.851583C13.3434 5.36603e-05 13.3405 0.0029237 12.2797 5.65981e-05C11.302 5.65981e-05 10.3301 0.0029237 9.35526 5.65981e-05C7.97905 -0.00567761 6.83795 0.424388 5.9004 1.25298C2.68065 4.10288 3.52644 9.51597 7.80989 10.6714C6.37061 12.8332 4.93992 14.9893 3.44043 17.2485C4.05112 17.2485 4.52133 17.217 4.98006 17.2571ZM7.31675 8.3806C6.09823 7.18502 5.75131 5.80307 6.20145 4.28638C6.23872 4.16596 6.29893 4.05127 6.34767 3.93658C7.25368 1.8522 8.44925 1.27305 11.2332 1.61997C11.2332 4.11148 11.2332 6.56858 11.2332 9.0945C9.83693 9.08017 8.38045 9.42709 7.31675 8.3806Z" fill="#FC3F1D"/>
<path d="M140.261 26.8695C140.075 25.7943 139.169 25.1492 137.858 25.1349C137.454 25.1291 137.053 25.1693 136.66 25.1263C135.886 25.046 135.682 25.304 135.688 25.9176C135.725 28.9281 135.714 31.9356 135.702 34.9375C135.694 36.5115 134.157 38.1286 132.31 38.5386C126.576 39.7972 120.848 41.076 115.111 42.3232C114.466 42.4636 113.786 42.5353 113.13 42.5296C112.843 42.5296 112.447 42.3117 112.324 42.0995C112.244 41.959 112.496 41.6178 112.694 41.4429C112.955 41.2308 113.287 41.0616 113.628 40.9441C114.681 40.5685 115.75 40.2273 116.814 39.8746C121.071 38.4583 125.338 37.0592 129.59 35.6342C131.508 34.9862 132.543 33.7075 132.574 32.0933C132.672 26.8637 132.623 21.6341 132.6 16.3988C132.6 15.5702 132.17 14.8792 131.184 14.5209C130.048 14.1137 129.051 14.4377 128.064 14.9079C122.038 17.7836 116.014 20.6536 109.984 23.5236C108.21 24.3694 107.22 25.5936 107.229 27.3368C107.249 32.2826 107.235 37.2197 107.241 42.1597C107.241 42.4063 107.266 42.6586 107.344 42.8937C107.937 44.5738 109.477 45.5372 111.604 45.5372C115.845 45.5486 120.099 45.5429 124.343 45.5429C128.572 45.5429 132.786 45.5486 137.015 45.5372C137.933 45.5372 138.779 45.3479 139.467 44.7803C140.358 44.0635 140.313 43.1517 140.313 42.2429C140.315 37.4233 140.315 32.6123 140.31 27.7898C140.318 27.4888 140.313 27.1734 140.261 26.8695ZM122.628 25.3241C123.055 24.2145 123.987 23.5207 125.409 23.3429C126.35 23.2225 127.17 23.8045 127.305 24.6532C127.508 25.9606 125.874 27.4802 124.26 27.4744C122.915 27.4744 122.164 26.5312 122.628 25.3241Z" fill="#E6813A"/>
<path d="M14.9233 25.1514C11.3595 25.1514 7.90747 25.1514 4.54149 25.1514C4.39813 28.1017 4.32932 31.0032 4.09422 33.899C3.88492 36.4679 3.31724 38.9881 2.18186 41.4136C1.80627 42.2136 1.35614 42.7411 0.209298 42.549C0.149089 42.5375 0.0745446 42.5834 0 42.6121C0 44.7452 0 46.8669 0 48.9885C1.04649 48.9885 2.03277 48.9885 3.09934 48.9885C3.09934 47.5464 3.09934 46.1616 3.09934 44.7796C6.86384 44.7796 10.5538 44.7796 14.324 44.7796C14.324 46.2074 14.324 47.5894 14.324 49C15.3734 49 16.3367 49 17.3345 49C17.3345 46.8439 17.3345 44.7165 17.3345 42.5289C16.5059 42.5289 15.7404 42.5289 14.9233 42.5289C14.9233 36.7087 14.9233 30.9545 14.9233 25.1514ZM11.5602 42.506C9.23207 42.506 6.92978 42.506 4.76512 42.506C5.34428 41.0553 6.05245 39.6274 6.48252 38.1451C7.34551 35.1662 7.33978 32.1099 7.36272 29.0622C7.36845 28.592 7.36272 28.116 7.36272 27.5999C8.77046 27.5999 10.1352 27.5999 11.563 27.5999C11.5602 32.5314 11.5602 37.4771 11.5602 42.506ZM33.9264 5.94472C31.9567 5.94472 30.0673 5.94472 28.0689 5.94472C28.0689 6.67297 28.0947 7.32667 28.0661 7.98324C27.9686 10.2654 27.8854 12.5505 26.9336 14.7353C26.6985 15.2743 26.5236 15.8506 25.6147 15.7301C25.6147 16.9458 25.6147 18.1041 25.6147 19.2567C26.1881 19.2567 26.7013 19.2567 27.3034 19.2567C27.3034 18.4682 27.3034 17.717 27.3034 16.9659C29.448 16.9659 31.5008 16.9659 33.6483 16.9659C33.6483 17.76 33.6483 18.5112 33.6483 19.2452C34.2504 19.2452 34.7579 19.2452 35.2453 19.2452C35.2453 18.0296 35.2453 16.8713 35.2453 15.7129C34.7865 15.6957 34.3966 15.6785 33.9264 15.6613C33.9264 12.4043 33.9264 9.18742 33.9264 5.94472ZM32.0771 15.6613C30.7411 15.6613 29.4853 15.6613 28.132 15.6613C29.8437 13.0121 29.6114 10.1651 29.7347 7.3238C30.5174 7.3238 31.2743 7.3238 32.0771 7.3238C32.0771 10.0992 32.0771 12.8487 32.0771 15.6613ZM29.6344 42.9418C26.5981 43.564 24.6141 42.7239 23.7482 40.522C23.0802 38.8304 23.106 37.0843 23.0773 35.2408C26.4031 35.2408 29.6286 35.2408 32.986 35.2408C32.8484 33.7069 32.834 32.2102 32.5559 30.7624C32.2033 28.9475 31.5037 27.2072 30.0558 25.7449C28.7742 24.4519 27.2317 24.0763 25.3079 24.5981C23.3095 25.14 22.091 26.3958 21.271 27.8838C18.8684 32.2504 18.662 36.7489 20.5026 41.2846C21.056 42.6551 21.9935 43.8478 23.5532 44.6105C26.168 45.8978 30.397 45.4505 33.0491 43.5955C32.8398 43.0794 32.6276 42.5576 32.4384 42.0989C31.455 42.4028 30.569 42.7497 29.6344 42.9418ZM24.5739 28.0673C25.0413 27.4107 25.6634 26.8746 26.7071 26.9233C27.7277 26.9778 28.3327 27.5111 28.7427 28.2049C29.6487 29.7617 29.8007 31.4304 29.7921 33.1621C27.5098 33.1621 25.305 33.1621 22.9827 33.1621C23.1547 31.3272 23.4758 29.6127 24.5739 28.0673ZM41.3866 17.4905C42.2095 17.4045 43.0323 17.1723 43.8064 16.9028C44.6694 16.6046 44.6924 16.3294 44.096 15.6929C43.5713 15.8448 43.0667 16.0283 42.5392 16.1344C41.0684 16.4326 40.019 16.1057 39.4599 15.1797C38.8034 14.0959 38.8349 12.9319 38.875 11.7133C40.7616 11.7133 42.5736 11.7133 44.4229 11.7133C44.5433 9.88986 44.3197 8.18107 43.1642 6.6271C42.1493 5.26236 40.3917 5.04446 38.9954 6.1655C38.4708 6.58409 38.0292 7.12024 37.7196 7.66499C36.8537 9.18168 36.524 10.8159 36.7276 12.4731C36.8566 13.5024 37.1404 14.5489 37.5791 15.518C38.2156 16.9429 39.6864 17.6712 41.3866 17.4905ZM39.7954 7.47576C40.4204 6.69877 41.4526 6.72171 42.0059 7.53597C42.6252 8.4391 42.6997 9.43685 42.6739 10.4833C41.3293 10.4833 40.0993 10.4833 38.8091 10.4833C38.8693 9.38811 39.0786 8.37316 39.7954 7.47576ZM54.6269 16.9143C53.9818 16.9143 53.4456 16.9573 52.9238 16.8913C52.7289 16.8655 52.5224 16.6218 52.402 16.4412C51.4788 15.0764 50.5757 13.7031 49.6611 12.3298C49.532 12.1348 49.3858 11.9484 49.0446 11.7391C48.93 12.1749 48.7293 12.6107 48.7121 13.0465C48.6662 14.3138 48.6948 15.5868 48.6948 16.8856C48.0612 16.8856 47.5193 16.8856 46.9172 16.8856C46.9172 13.2616 46.9172 9.63469 46.9172 5.9476C47.5079 5.9476 48.0498 5.9476 48.669 5.9476C48.669 7.51017 48.669 9.04119 48.669 10.7643C48.9443 10.4977 49.0876 10.3801 49.2023 10.2454C50.2115 9.04406 51.258 7.86282 52.2013 6.62423C52.6285 6.06228 53.1073 5.8071 53.8929 5.91319C54.085 5.93899 54.2886 5.91605 54.6355 5.91605C54.452 6.15689 54.3373 6.32318 54.2054 6.48087C53.1303 7.7682 52.0723 9.067 50.9656 10.34C50.6674 10.6812 50.6846 10.9306 50.9169 11.2747C52.1411 13.1125 53.3396 14.9589 54.6269 16.9143ZM21.833 12.1319C20.6947 12.1319 19.6339 12.1319 18.4871 12.1319C18.4871 13.8006 18.4871 15.452 18.4871 17.1494C17.8391 17.1494 17.28 17.1494 16.6607 17.1494C16.6607 13.4307 16.6607 9.7207 16.6607 5.94472C17.26 5.94472 17.8047 5.94472 18.4326 5.94472C18.4326 7.45282 18.4326 8.94658 18.4326 10.4862C19.5909 10.4862 20.6661 10.4862 21.8215 10.4862C21.8215 8.97812 21.8215 7.48436 21.8215 5.95906C22.4637 5.95906 23.0228 5.95906 23.6364 5.95906C23.6364 9.68916 23.6364 13.4049 23.6364 17.1551C23.0372 17.1551 22.4781 17.1551 21.833 17.1551C21.833 15.4778 21.833 13.8235 21.833 12.1319ZM49.1966 25.5156C49.2453 25.57 49.2052 25.6733 49.2052 25.7564C49.2052 31.9493 49.2052 38.148 49.2052 44.3467C49.2052 44.5244 49.1823 44.7108 49.1679 44.9287C48.0985 44.9287 47.0663 44.9287 45.951 44.9287C45.951 41.9555 45.951 39.0053 45.951 35.9633C44.4315 35.9633 42.9922 35.9633 41.5529 35.9633C40.0333 35.9633 40.0333 35.9633 40.0333 37.2334C40.0305 39.5414 40.0333 41.838 40.0333 44.1489C40.0333 44.3897 40.0333 44.6363 40.0333 44.923C38.9324 44.923 37.9031 44.923 36.8279 44.923C36.8279 38.32 36.8279 31.7458 36.8279 25.1371C37.8715 25.1371 38.8836 25.1371 39.9932 25.1371C39.9932 27.8379 39.9932 30.5043 39.9932 33.2252C42.046 33.2252 43.9383 33.2252 45.9281 33.2252C45.9281 30.5273 45.9281 27.8436 45.9281 25.1228C46.9402 25.1228 47.8577 25.1084 48.7723 25.1457C48.9242 25.1514 49.0762 25.3722 49.1966 25.5156ZM93.0747 25.0826C94.0667 25.1256 95.0588 25.097 96.0995 25.097C96.0995 31.74 96.0995 38.3143 96.0995 44.9344C94.9011 44.9344 93.737 44.9344 92.4812 44.9344C92.4812 40.6051 92.4812 36.2729 92.4812 31.9207C90.4657 36.293 88.4673 40.6281 86.4689 44.9459C85.3794 44.9459 84.3817 44.9459 83.3237 44.9459C83.3237 38.3487 83.3237 31.7515 83.3237 25.1314C84.3817 25.1314 85.4138 25.1314 86.5263 25.1314C86.5263 29.2227 86.5263 33.2825 86.5263 37.3424C86.5807 37.3481 86.6237 37.3596 86.6782 37.3653C87.2373 36.1726 87.8107 34.9799 88.3641 33.7872C89.6285 31.0605 90.9015 28.3397 92.1429 25.6044C92.3264 25.2116 92.5586 25.0654 93.0747 25.0826ZM56.6081 15.5122C55.5186 14.0644 55.315 12.4645 55.4669 10.8159C55.6017 9.37952 56.0174 8.0119 57.0811 6.83066C58.4573 5.29963 60.989 5.01005 62.8354 6.22283C62.586 6.53535 62.3566 6.82779 62.133 7.1059C62.0555 7.11737 62.0039 7.13744 61.9609 7.12597C59.7246 6.52101 58.3799 7.06576 57.7033 8.89498C57.2015 10.2339 57.0983 11.6159 57.3879 12.9892C57.9384 15.6384 60.0371 16.5559 63.0791 15.5409C63.3601 16.7738 63.1995 16.9229 61.7631 17.2612C59.7275 17.7371 57.7492 17.0261 56.6081 15.5122ZM61.1037 32.2504C59.8307 32.1529 58.5347 32.2332 57.1614 32.2332C57.1614 29.885 57.1614 27.5111 57.1614 25.1428C56.1866 25.1428 55.3035 25.1428 54.3975 25.1428C54.3975 31.6684 54.3975 38.148 54.3975 44.8542C56.4418 44.8542 58.4172 44.9717 60.3668 44.8226C63.2884 44.6047 65.5161 43.4436 66.5598 41.061C67.1676 39.679 67.1791 38.2398 66.8923 36.7947C66.3591 34.1341 64.3349 32.517 61.1037 32.2504ZM62.6175 39.7851C62.1043 41.9641 59.8737 42.9906 57.1843 42.3541C57.1843 39.9342 57.1729 37.5545 57.2073 35.1691C57.2073 35.0114 57.4825 34.7534 57.6804 34.7161C60.3697 34.1455 62.1674 35.0401 62.6347 37.285C62.801 38.0907 62.8067 38.9766 62.6175 39.7851ZM69.8569 25.1228C73.8451 25.1228 77.7558 25.1228 81.7181 25.1228C81.7181 25.7793 81.7181 26.4072 81.7181 27.1154C78.7679 27.1154 75.809 27.1154 72.7928 27.1154C72.7928 33.0933 72.7928 38.9909 72.7928 44.9316C71.7894 44.9316 70.8518 44.9316 69.8655 44.9316C69.8569 38.343 69.8569 31.7572 69.8569 25.1228Z" fill="black"/>
</svg>
